<?xml version="1.0" standalone="no"?>
<!DOCTYPE svg PUBLIC "-//W3C//DTD SVG 1.1//EN" "http://www.w3.org/Graphics/SVG/1.1/DTD/svg11.dtd" >
<svg xmlns="http://www.w3.org/2000/svg" xmlns:xlink="http://www.w3.org/1999/xlink" version="1.1">
<metadata></metadata>
<defs>
<font id="first_order_condensedCn" horiz-adv-x="894" >
<font-face units-per-em="2048" ascent="1638" descent="-410" />
<missing-glyph horiz-adv-x="575" />
<glyph horiz-adv-x="0" />
<glyph unicode="&#xd;" horiz-adv-x="1024" />
<glyph unicode=" "  horiz-adv-x="575" />
<glyph unicode="&#x09;" horiz-adv-x="575" />
<glyph unicode="&#xa0;" horiz-adv-x="575" />
<glyph unicode="!" horiz-adv-x="411" d="M16 1057q0 -25 21.5 -26t48.5 -4t48.5 -21.5t21.5 -75.5q0 -47 -3 -74t-6.5 -48.5t-6.5 -47t-3 -70.5q0 -57 11.5 -123.5t39.5 -126.5q18 -41 45 -68.5t56 -27.5q31 0 53 35l23 86q-12 35 -19.5 57.5t-13.5 37.5t-10.5 27.5t-10.5 28.5v129l-2 31l19 205q0 23 -4.5 56.5 t-15.5 65.5t-32.5 54.5t-54.5 22.5q-23 0 -56.5 -8.5t-67.5 -25t-57.5 -39t-23.5 -50.5zM119 115q0 -14 10 -34t24.5 -38t30 -30.5t27.5 -12.5h4q12 2 31.5 12.5t39 26.5t33 35.5t13.5 42.5q0 18 -6.5 39.5t-16.5 40t-24.5 31t-30.5 12.5q-18 0 -41 -9.5t-42 -27 t-34.5 -38.5t-17.5 -46v-4z" />
<glyph unicode="&#x22;" horiz-adv-x="583" d="M29 1214q0 55 21.5 78t64.5 23q63 0 106 -42t43 -128q0 -37 -13 -83t-34.5 -87t-52.5 -68.5t-64 -27.5q-4 0 -7 2l-3 2q-4 2 -10 10t-8 12v13v12q2 6 8 23.5t12 36t11.5 35.5t5.5 24v6q0 25 -12.5 43t-28 34.5t-27.5 35t-12 46.5zM303 1214q0 55 21.5 78t64.5 23 q63 0 106.5 -42t43.5 -128q0 -37 -13.5 -83t-35 -87t-52 -68.5t-63.5 -27.5q-2 0 -6 2l-4 2q-4 2 -11.5 10t-9.5 12v13v12q2 6 9 23.5t14.5 37t12.5 35.5t5 23v6q0 23 -13.5 41t-28.5 35.5t-27.5 37t-12.5 45.5z" />
<glyph unicode="#" horiz-adv-x="909" d="M16 231l99 17l90 -31h16l10 -194q4 -41 36 -70t61 -29q53 0 96 44t43 118l-47 29q-23 0 -32 27.5t-13 72.5q47 4 90 27q4 -4 4 -6q0 -8 6 -13.5t41 -5.5h19l10 -194q4 -43 34.5 -71t59.5 -28q27 0 55.5 15.5t52 41t39 59.5t15.5 71q-18 0 -24.5 1t-12.5 1q-4 0 -8 1 t-23 1q-23 0 -32 27.5t-13 72.5q23 2 40 9t35.5 21.5t39 38t49.5 58.5q6 6 13 24.5t7 24.5q0 20 -13 23.5t-23 3.5q-12 0 -14.5 -2t-2.5 -4t-3 -6.5t-13 -12.5h-121q2 37 4 77t2 83q25 2 43.5 8t35.5 18.5t35.5 33t45.5 53.5l12 14q4 6 12.5 24.5t8.5 24.5q0 20 -13.5 23.5 t-23.5 3.5q-25 0 -41.5 -6.5t-38.5 -20.5h-76q-4 63 -7 119.5t-11 99.5t-21.5 67.5t-36.5 24.5q-20 0 -45.5 -7t-47 -22.5t-37 -39t-15.5 -56.5q0 -31 5 -43t11 -19t13.5 -17.5t11.5 -36.5v-62l-10 -6h-121q-4 61 -8 117.5t-12.5 99.5t-21.5 67.5t-36 24.5q-20 0 -47 -13 t-51.5 -34.5t-42 -50.5t-17.5 -59q0 -31 7.5 -38t16.5 -9t17 -7.5t13 -29.5v-68h-31q-59 0 -99 -45t-40 -117l98 15q29 0 36 -4.5t9 -10.5t7 -10t30 -4l8 -162h-57q-55 0 -97.5 -45t-42.5 -117zM369 393q6 74 6 160q29 2 52.5 7t47.5 20q4 -4 4 -11q0 -4 5 -9t34 -5l6 -143 q-8 -4 -16.5 -9.5t-18.5 -9.5h-120z" />
<glyph unicode="$" horiz-adv-x="751" d="M23 299q0 12 14 25.5t33.5 25.5t39 19.5t29.5 7.5h19q23 -20 72 -49t104 -45l16 143q-61 14 -107 23.5t-78 21.5t-48.5 31.5t-18.5 56.5v8q0 53 36 105.5t82 94.5t91 69.5t66 31.5l6 152l92 -8l-6 -154q76 -2 125 -22q43 -12 74.5 -33t31.5 -47l-2 -8q-4 -10 -18 -23.5 t-30.5 -24t-35 -17.5t-30.5 -7q-16 0 -46 12t-77 35l-8 -133q47 -20 81.5 -31.5t63.5 -17.5q53 -8 87 -31t34 -68q0 -66 -37 -135t-103 -106q-51 -33 -92 -33l-59 -16l-6 -2l-17 -154h-98l16 154q-41 2 -87 13t-88 29.5t-74.5 44t-44.5 54.5q-2 2 -2 8zM252 643 q0 -29 21.5 -44t50.5 -15q16 0 32 6l13 143h-33q-37 0 -60.5 -27.5t-23.5 -62.5zM434 283q47 6 62.5 7t25.5 1q35 8 42 22.5t7 34.5q0 29 -26.5 46.5t-65.5 17.5h-18q-2 0 -5.5 -1t-13.5 -3z" />
<glyph unicode="%" horiz-adv-x="966" d="M23 96q29 -43 61.5 -70.5t77.5 -27.5h26q18 0 34 4.5t30 22.5q20 55 77.5 119.5t132.5 134t156.5 140t151.5 138.5t118 130.5t54 115.5v4q0 18 -16.5 36.5t-39 34t-45 25.5t-34.5 10q-4 0 -10 -1t-9 -1q-98 -111 -194 -216t-188 -216l-308 -286q-6 -4 -17 -17.5 t-23.5 -29t-22.5 -30t-12 -20.5zM98 682q0 -29 33 -61.5t74 -55.5q20 -12 45 -12q39 0 70.5 26.5t31.5 67.5q0 84 -39 115t-94 31q-20 0 -41.5 -5.5t-39 -17.5t-29 -33.5t-11.5 -54.5zM627 203q0 -29 32.5 -61.5t73.5 -55.5q20 -12 45 -12q39 0 71 26.5t32 67.5 q0 84 -39 114.5t-94 30.5q-18 0 -40 -5t-40.5 -17t-29.5 -33.5t-11 -54.5z" />
<glyph unicode="&#x26;" horiz-adv-x="698" d="M25 475q0 -74 42 -158t103 -154.5t131 -117.5t127 -47t95 31.5t59.5 82t30 110t8.5 114.5q0 37 -3.5 75t-8.5 70.5t-9 56t-6 31.5q-145 -74 -145 -129q0 -37 -3.5 -81t-13.5 -81.5t-33.5 -63.5t-62.5 -26q-70 0 -104.5 59.5t-34.5 145.5q0 82 23.5 105.5t66.5 23.5 q20 0 42.5 -2t49.5 -2q0 49 -14.5 87t-32 74t-31.5 75t-14 90q63 0 98 -43q31 -43 102 -80q33 -18 62 -19q27 0 41 21q45 63 63.5 87t24.5 28q0 33 -19.5 56.5t-46 37.5t-55.5 21.5t-47 7.5q-20 0 -33.5 -8.5t-25 -18.5t-22.5 -18.5t-30 -8.5q-33 0 -60.5 19.5t-53 43 t-52 43t-57.5 19.5q-35 0 -46 -30.5t-11 -65.5q0 -29 7 -52.5l14 -47t14.5 -47t7.5 -48.5q0 -10 -21.5 -25.5t-47 -45t-47 -76.5t-21.5 -119z" />
<glyph unicode="'" horiz-adv-x="315" d="M29 1214q0 55 21.5 78t64.5 23q63 0 106 -42t43 -128q0 -37 -13 -83t-34.5 -87t-52.5 -68.5t-64 -27.5q-4 0 -7 2l-3 2q-4 2 -10 10t-8 12v13v12q2 6 8 23.5t12 36t11.5 35.5t5.5 24v6q0 25 -12.5 43t-28 34.5t-27.5 35t-12 46.5z" />
<glyph unicode="(" horiz-adv-x="512" d="M10 367q0 63 24.5 137t63.5 147.5t88.5 142t100.5 121t98 84t82 31.5q0 -59 -21.5 -103t-52.5 -82t-68.5 -72t-68.5 -72.5t-52.5 -87.5t-21.5 -117q0 -70 24.5 -123.5t54.5 -101.5t54.5 -97t24.5 -108q0 -25 -13.5 -49.5t-32 -44t-38.5 -31t-35 -11.5q-4 0 -10 4l-6 5 q-33 41 -68 87t-62.5 98t-46 112.5t-18.5 130.5z" />
<glyph unicode=")" horiz-adv-x="512" d="M10 -70q0 59 21.5 103.5t52.5 82.5t68.5 71.5t68.5 72.5t52.5 88t21.5 117q0 70 -24.5 123t-54.5 101t-54.5 97.5t-24.5 110.5q0 25 12.5 48.5t31 43t38 30.5t35.5 11q4 0 10 -3t8 -3l15 -16q31 -41 62.5 -86t58 -95.5t43 -109t16.5 -123.5q0 -63 -24.5 -137 t-63.5 -147.5t-89 -142.5t-100.5 -121t-97.5 -84t-82 -32z" />
<glyph unicode="*" horiz-adv-x="288" d="M25 889q0 -41 29.5 -63.5t58.5 -22.5q35 0 70.5 28.5t35.5 81.5q0 18 -8 37t-20.5 34t-29 25.5t-30.5 10.5h-8q-12 -6 -29.5 -19.5t-33 -31t-25.5 -39t-10 -41.5z" />
<glyph unicode="+" horiz-adv-x="720" d="M35 352l162 31q27 0 34 -4t9 -10.5t7 -10.5t29 -4q10 -66 38 -125t87 -139q4 -4 19.5 -13t19.5 -9q14 0 16.5 16t2.5 29q0 29 -4.5 49t-14.5 49v154q59 12 108.5 46.5t119.5 112.5q4 6 12 24.5t8 24.5q0 18 -14.5 21.5t-24.5 3.5q-23 0 -39 -5t-39 -20h-131v56 q0 33 -17 77t-44 83.5t-58.5 66.5t-58.5 27q0 -57 12.5 -103.5t12.5 -101.5q0 -37 -3 -55.5t-9.5 -26.5t-15.5 -11t-21 -12q-29 0 -64 -21.5t-65.5 -55t-52 -72.5t-21.5 -72z" />
<glyph unicode="," horiz-adv-x="333" d="M18 123q0 49 29 78.5t68 29.5q33 0 62.5 -18t51 -49t33.5 -70t12 -80q0 -53 -21.5 -108.5t-55 -101.5t-75.5 -75.5t-83 -29.5q0 31 10 57.5t22.5 52t22.5 52t10 59.5t-13 56.5t-29.5 45t-30 44t-13.5 57.5z" />
<glyph unicode="-" horiz-adv-x="614" d="M25 539q0 14 12 29.5t27.5 28.5t32 22.5t24.5 13.5l2 2q14 0 35.5 -20.5t40 -48t32 -57.5t13.5 -48q0 -23 -11.5 -43.5t-27 -34.5t-33.5 -22.5t-33 -8.5q-20 0 -40.5 19.5t-37 48.5t-26.5 60.5t-10 58.5zM195 799q0 45 35.5 82t80.5 37l13 -3q14 -4 27.5 -18t21.5 -32.5 t13 -38t5 -33.5q0 -18 -9 -42t-24.5 -46.5t-35 -38t-39.5 -15.5q-25 0 -41.5 15.5t-27.5 39t-15 49.5t-4 44zM229 262q0 23 10.5 46.5t26 42t34.5 30.5t40 12q14 0 30.5 -13t32 -31.5t26.5 -40t15 -36.5v-8q0 -23 -14 -43t-34.5 -35.5t-41 -24.5t-35.5 -9q-41 0 -65.5 31.5 t-24.5 78.5zM330 549v12q2 18 17 35.5t35.5 31t41 22.5t33.5 9q39 0 71.5 -35.5t32.5 -86.5q0 -27 -13 -49.5t-32.5 -39t-41 -25.5t-40.5 -9q-16 0 -34.5 12t-34 31.5t-25.5 44t-10 47.5z" />
<glyph unicode="." horiz-adv-x="684" d="M25 330q0 33 17 54.5t42 31.5t50.5 14t41.5 4q41 -29 51.5 -69.5t10.5 -85.5q0 -41 -19.5 -80t-58.5 -39q-25 0 -48.5 15t-43 40t-31.5 55.5t-12 59.5zM174 12q0 33 11.5 54.5t29.5 34t39.5 17.5t40.5 5q55 0 94 -31t39 -117q0 -25 -13.5 -44t-30.5 -32.5t-35.5 -20.5 t-29.5 -7q-8 0 -8 2q-12 6 -34.5 21.5t-46 35t-40 42t-16.5 40.5zM213 569q0 31 11.5 57.5t29.5 46t41.5 31t46.5 11.5q14 0 27.5 -19.5t23.5 -45t18.5 -49t14.5 -32.5v-10q0 -27 -6 -54.5t-18.5 -50t-30 -37t-41.5 -14.5q-18 0 -40 20.5t-38 48.5t-27.5 55.5t-11.5 41.5z M385 270q0 31 15.5 52.5t38 35t48 18.5t45.5 5q41 0 74 -31t33 -80q0 -51 -26.5 -92t-71.5 -41q-18 0 -45 10.5t-51.5 28t-42 41.5t-17.5 53z" />
<glyph unicode="/" horiz-adv-x="966" d="M23 96q29 -43 61.5 -70.5t77.5 -27.5h26q18 0 34 4.5t30 22.5q20 55 77.5 119.5t132.5 134t156.5 140t151.5 138.5t118 130.5t54 115.5v4q0 18 -16.5 36.5t-39 34t-45 25.5t-34.5 10q-4 0 -10 -1t-9 -1q-98 -111 -194 -216t-188 -216l-308 -286q-6 -4 -17 -17.5 t-23.5 -29t-22.5 -30t-12 -20.5z" />
<glyph unicode="0" horiz-adv-x="886" d="M23 455q0 104 37.5 197t101 163t142.5 111t163 41q68 0 136.5 -53.5t122.5 -132.5t89 -171t35 -168q0 -80 -43 -154.5t-104.5 -132t-132 -92t-126.5 -34.5q-72 0 -146.5 30.5t-136 86t-100 134.5t-38.5 175zM195 561q0 -84 32.5 -147.5t83.5 -107.5t113.5 -66.5 t124.5 -22.5q59 0 95 31t36 104q0 74 -28.5 148.5t-75 136t-104.5 99.5t-116 38q-94 0 -127.5 -47t-33.5 -166zM319 502q4 51 35 83.5t76 37.5q20 0 29 -9l12 -10t26.5 -27.5t26 -41t11.5 -54.5q0 -29 -12.5 -48t-31 -30.5t-40 -16.5t-37.5 -5q-45 0 -70 34t-25 87z" />
<glyph unicode="1" horiz-adv-x="528" d="M23 803q0 33 26.5 64.5t63.5 58t73.5 43t57.5 16.5q25 0 40 -21.5t23 -59.5t11.5 -88t3.5 -105q-4 -135 -5.5 -205t-1.5 -98v-25v-10q0 -78 10.5 -131.5t39.5 -53.5l124 29q0 -37 -23.5 -76t-57 -70.5t-71.5 -52t-65 -20.5q-29 0 -60.5 28.5t-35.5 69.5l-37 647 q-6 29 -33 29l-53 -6q-14 0 -22 7t-8 30z" />
<glyph unicode="2" horiz-adv-x="829" d="M23 106q0 -10 1 -26l1 -17q0 -6 10 -14t22.5 -15t24.5 -13.5t16 -6.5l60 49q14 4 39.5 13.5t35.5 9.5q49 0 92.5 -29.5t86.5 -66.5t85 -66.5t89 -29.5q37 0 64.5 12t50 34.5t43 53.5t47.5 69q0 4 -7.5 13.5t-13.5 9.5t-22.5 2t-34.5 2t-49 -5t-35 -5l-146 84l-1 3t-1 5 q0 43 21.5 84t48.5 80t52.5 78t33.5 80q0 104 -9.5 196t-31 161t-57 108.5t-86.5 39.5q-25 0 -51.5 -13t-52 -32.5t-50.5 -41t-45 -35.5q-4 -8 -12 -11q-41 -29 -69 -51t-44 -52t-23.5 -74t-7.5 -118q29 0 44.5 22.5t15.5 55.5v13l172 143q2 4 12 5t14 1q41 0 67 -40t39 -94 t18 -110.5t5 -89.5q0 -68 -33.5 -105.5t-86 -60t-111.5 -37t-111.5 -33t-86 -49t-33.5 -86.5z" />
<glyph unicode="3" horiz-adv-x="714" d="M25 838q4 -4 21 -28t63 -87q18 -20 43 -21q25 0 61 19q70 33 104 80q31 43 95 43q0 -51 -14.5 -90t-32 -75t-32 -74t-14.5 -87q27 0 49.5 2t43.5 2q43 0 67.5 -23.5t24.5 -105.5q0 -86 -35 -145.5t-104 -59.5h-7q-31 0 -47 17.5t-28.5 41t-24.5 49.5t-37 44 q-133 -59 -133 -113v-6q8 -57 31 -110q23 -49 59.5 -81t93.5 -32q55 0 126 47t133.5 117.5t104.5 154.5t42 158q0 72 -21.5 119t-48 76.5t-48 45t-21.5 25.5q0 25 7 48.5l14 47t14.5 47t7.5 52.5q0 35 -12.5 65.5t-45.5 30.5q-31 0 -57.5 -19.5t-53 -43t-53 -43t-59.5 -19.5 q-18 0 -29.5 8.5t-22.5 18.5t-24.5 18.5t-36.5 8.5q-18 0 -45.5 -7.5t-54.5 -21.5t-45 -38t-18 -56z" />
<glyph unicode="4" horiz-adv-x="860" d="M27 301q0 -2 1 -7l1 -5q4 -6 10 -14.5t10 -10.5q4 -4 13.5 -14t20.5 -22.5t22.5 -22.5t17.5 -12l4 -1q4 -2 6 -2q20 0 113 13q47 8 89 14t81 14q76 16 108 62v8q0 23 -68.5 43.5t-160.5 40.5l303 383q2 -12 3 -49t1 -86t1 -103.5t1 -103.5v-88v-49q2 -59 15.5 -135 t41 -142.5t70.5 -112.5t109 -46q0 33 -10.5 59.5t-21.5 52t-21.5 52t-10.5 57.5v837h4q23 0 30 13.5t7 36.5q0 27 -14.5 49t-34.5 37.5t-45 23.5t-43 8q-23 0 -46.5 -11t-46 -29.5t-42 -39t-33.5 -38.5l-344 -486q-23 -16 -48.5 -28.5t-46 -30t-33.5 -44t-13 -71.5z" />
<glyph unicode="5" horiz-adv-x="755" d="M23 215q0 -51 34.5 -91t82.5 -67.5t98.5 -43t80.5 -15.5q59 0 126 30.5t122.5 85t92 127t36.5 156.5q0 80 -35.5 119t-89 55.5t-117 21.5t-116.5 16.5t-89 41t-36 94.5l-2 123h162q23 -4 48 -7t56 -11q63 -8 82 -35q23 -10 41 -13t37 -7q57 8 57 112v8q0 23 -4 41.5 t-10 34.5q-12 33 -205 41h-395q-20 0 -23 -2v-414q0 -82 53.5 -127t125 -67.5t147.5 -29.5t119 -9q16 -4 19 -19.5t3 -31.5v-33v-25q0 -23 -3 -43t-19 -38q-66 -27 -142 -27q-37 0 -64.5 11t-57.5 30q-43 27 -58 51q-12 25 -57 37q-10 2 -14.5 3t0.5 1h-13q-20 0 -33.5 -10 t-21.5 -23.5t-12 -28t-6 -22.5z" />
<glyph unicode="6" horiz-adv-x="749" d="M25 307q-1 -64 22 -121q27 -49 60.5 -84.5t67.5 -59.5t65.5 -35t54.5 -11l16 2q63 0 134 30.5t130.5 85t99.5 129t40 165.5q0 45 -19.5 78.5t-52.5 57t-75 36t-85 16.5q-59 0 -96 -4t-58.5 -10.5t-32.5 -12.5t-20 -8h-6q-20 0 -20 90q0 74 30.5 120t65.5 46 q31 0 60.5 -12t58.5 -25.5t57.5 -26t57.5 -12.5q12 0 29.5 9.5t33.5 23.5t30.5 30.5t20.5 33.5l2 12q0 39 -34.5 68.5t-78.5 50t-86 31t-55 10.5q-59 0 -119.5 -41t-111.5 -104.5t-82 -140.5t-59 -163q-14 -78 -29.5 -136t-15.5 -118zM207 301q0 96 26 102h17q39 0 88 10.5 t78 10.5q10 0 12 -2q51 -12 83 -55t32 -95q0 -29 -6.5 -47t-34.5 -32l-94 -9q-12 0 -37 2t-41.5 4.5t-18.5 2.5q-6 0 -22.5 8t-34.5 22.5t-32.5 33.5t-14.5 44z" />
<glyph unicode="7" horiz-adv-x="821" d="M29 838q0 66 41 105.5t97 61t115.5 27.5t96.5 6q61 0 131 -16t130 -55t99 -103.5t39 -158.5v-33q0 -23 -2 -42.5t-16 -35.5q-141 -205 -302 -412t-333 -387q-29 25 -52.5 71t-23.5 89v14v11q90 98 164 187t138.5 179t125 184.5t123.5 202.5q2 2 3 10.5t1 14.5 q0 25 -10 38t-27.5 21t-37 10t-37.5 2h-43q-55 0 -103.5 -18t-90.5 -42t-79 -42t-70 -18q-18 0 -33.5 13t-24.5 32.5t-14 42t-5 41.5z" />
<glyph unicode="8" horiz-adv-x="759" d="M18 215q1 -35 7 -47q14 -47 57 -80t95 -52.5t104.5 -27.5t87.5 -8q47 0 107.5 27.5t114.5 77t91 118t37 150.5q0 29 -6 59q-4 31 -11.5 54.5t-22.5 42t-43 32.5t-71 29q41 23 62.5 50.5t31.5 53.5q14 55 15 86q-14 96 -44 136t-73 57q-41 20 -83 26.5t-66 6.5 q-59 0 -119 -31t-106 -82t-74.5 -119.5t-28.5 -142.5v-23q0 -47 17.5 -77.5t74.5 -41.5q-37 -35 -58.5 -56t-31.5 -30q-25 -16 -41 -59q-12 -23 -17.5 -59.5t-5.5 -69.5zM231 313q1 25 7 56q10 27 35.5 48t64.5 23l139 -14q31 -12 48.5 -29.5t17.5 -60.5q0 -78 -41 -124 t-101 -46q-39 0 -75.5 22.5t-71.5 42.5q-10 8 -16.5 31t-6.5 51zM231 745q0 86 60 86h20q31 0 58.5 -8t49 -18t35 -20.5t17.5 -16.5q20 -27 21 -51q0 -29 -24 -55.5t-67 -61.5q-37 2 -74.5 12.5t-54.5 10.5q-29 29 -35 56.5t-6 65.5z" />
<glyph unicode="9" horiz-adv-x="751" d="M25 598q0 -45 19 -73.5t52 -47t74 -28t84 -13.5q2 -2 16 -2h15h67q35 0 63.5 2t47.5 10q25 0 24 -96q0 -72 -23.5 -117t-62.5 -45q-31 0 -61.5 12.5t-61 27t-60.5 26.5t-58 12q-12 0 -29.5 -10t-35 -24.5t-32 -32t-18.5 -31.5l-2 -12q0 -39 35 -69t79 -49.5t85 -29.5 t53 -10q59 0 119.5 40t111.5 103q37 45 70 114t59.5 145.5t42 154.5t15.5 143q-1 58 -21 121q-29 51 -62.5 87t-68.5 58.5t-66.5 34t-56.5 11.5h-10q-63 0 -134 -31t-131.5 -86t-99 -131t-38.5 -164zM197 733q0 29 5 47.5t36 34.5l94 16h10q23 0 52.5 -8t33.5 -8 q6 0 22.5 -8t35 -22.5t32.5 -34.5t14 -45q0 -96 -30 -103q-8 -2 -15.5 -3t-17.5 -1q-39 0 -82 6t-76 14q-51 10 -82.5 37t-31.5 78z" />
<glyph unicode=":" horiz-adv-x="360" d="M23 51q0 31 11 52.5t28.5 34t39 17.5t39.5 5q55 0 94 -31t39 -115q0 -25 -13 -44t-31.5 -32.5t-37 -20.5t-28.5 -7q-4 0 -6 2q-12 6 -35 21.5t-45.5 35t-38.5 42t-16 40.5zM37 569q0 61 44 103.5t97 42.5q18 0 34.5 -17.5t30 -40t21.5 -47t8 -39.5v-12q0 -27 -7 -54.5 t-21.5 -50t-34 -37t-45.5 -14.5q-18 0 -41 20.5t-42.5 48.5t-31.5 55.5t-12 41.5z" />
<glyph unicode=";" horiz-adv-x="331" d="M29 -213q0 2 1 7l1 5q2 2 8 16.5t13 31t12.5 30.5t5.5 19q0 2 1 10t1 12q0 6 -1 14.5t-1 10.5l-39 118v7q0 25 16 45t37.5 35.5t42 24.5t29.5 9q23 0 42 -17.5t33.5 -43t22.5 -55t8 -52.5q0 -37 -18.5 -83t-47 -87t-62.5 -68.5t-64 -27.5q-16 0 -28.5 8t-12.5 31zM37 569 q0 61 44 103.5t97 42.5q18 0 32.5 -19.5t26 -45t20.5 -49t15 -32.5v-10q0 -27 -7 -54.5t-21.5 -50t-34 -37t-45.5 -14.5q-18 0 -41 20.5t-42.5 48.5t-31.5 55.5t-12 41.5z" />
<glyph unicode="&#x3c;" horiz-adv-x="610" d="M25 565q27 74 67.5 152t87.5 141.5t97.5 104.5t95.5 41h26q25 0 45.5 -16.5t20.5 -74.5q0 -59 -23.5 -88.5t-48.5 -29.5l-98 26q-12 0 -30.5 -11t-36 -30.5t-30 -48.5t-12.5 -63q0 -4 1 -14l1 -11q0 -2 7.5 -14.5t16.5 -26.5t16.5 -25.5t9.5 -11.5l153 -282 q33 -61 59.5 -73.5t71.5 -12.5h17q0 -29 -17.5 -63t-40 -64.5t-43 -51t-28.5 -20.5q-29 0 -53.5 35t-47.5 69l-180 310q-12 20 -25.5 35.5l-27 31t-26.5 35.5t-25 51z" />
<glyph unicode="=" horiz-adv-x="821" d="M37 193q0 33 21.5 71.5t52 71.5t65.5 54.5t64 21.5l432 2q23 16 39 21t39 5q10 0 23 -3t13 -23q0 -4 -7 -22.5t-11 -24.5q-55 -59 -96 -93t-82 -51.5t-89 -21.5t-116 -4l-186 26zM39 510q0 35 21.5 74t53 71.5t66.5 54t62 21.5l430 2q25 14 41 20.5t39 6.5q10 0 23 -3 t13 -24q0 -4 -7 -23.5t-11 -23.5q-55 -59 -97 -94t-83 -51.5t-88 -20.5t-115 -4l-184 25q-47 0 -83 -15.5t-81 -15.5z" />
<glyph unicode="&#x3e;" horiz-adv-x="610" d="M25 805q0 27 17 61.5t38.5 65.5t42 51.5t29.5 20.5q29 0 54 -35t48 -70l180 -309q12 -23 25.5 -38t27 -30.5t27 -35t25.5 -50.5q-29 -74 -69 -151.5t-87 -141t-97 -104.5t-98 -41h-24q-25 0 -45.5 16.5t-20.5 73.5q0 59 23.5 89t48.5 30l96 -27q12 0 30.5 11.5t37 31 t31 48t12.5 63.5q0 4 -1 14l-1 10q0 2 -7.5 14.5t-16.5 26t-16 25.5l-7 12l-156 283q-33 61 -60.5 73.5t-70.5 12.5h-16z" />
<glyph unicode="?" horiz-adv-x="806" d="M23 758q0 -6 1 -10l1 -3q20 -35 39.5 -66.5t54.5 -31.5q4 0 11 1t9 1l21 21q59 61 118.5 105t139.5 44q27 0 55.5 -9t53 -27.5t40 -46t15.5 -64.5q0 -49 -36 -67.5t-89.5 -26t-117 -12.5t-116.5 -24.5t-89 -63.5t-36 -130q25 -49 74 -49l16 2q72 12 99 39q41 29 96 40 t119 15q45 2 91 9.5t81 27t57.5 54t22.5 94.5q0 72 -41 148.5t-101.5 139t-129 102.5t-124.5 40q-37 0 -94 -15.5t-110.5 -47.5t-92 -79t-38.5 -110zM51 39q0 -16 15.5 -35.5t37 -36t41 -30t29.5 -17.5h6q8 0 24.5 6t33 17.5t29 28t12.5 38.5q0 70 -33 95.5t-84 25.5 q-37 0 -74 -18.5t-37 -71.5v-2z" />
<glyph unicode="@" horiz-adv-x="1198" d="M25 565q27 74 67.5 152t87.5 141.5t97.5 104.5t95.5 41h26q25 0 45.5 -16.5t20.5 -74.5q0 -59 -23.5 -88.5t-48.5 -29.5l-98 26q-12 0 -30.5 -11t-36 -30.5t-30 -48.5t-12.5 -63q0 -4 1 -14l1 -11q0 -2 7.5 -14.5t16.5 -26.5t16.5 -25.5t9.5 -11.5l153 -282 q33 -61 59.5 -73.5t71.5 -12.5h17q0 -29 -17.5 -63t-40 -64.5t-43 -51t-28.5 -20.5q-29 0 -53.5 35t-47.5 69l-180 310q-12 20 -25.5 35.5l-27 31t-26.5 35.5t-25 51zM457 711q0 23 9 44t22.5 37.5t26.5 26.5t22 10q31 0 59.5 -53t56 -122.5t55 -139.5t52.5 -100l4 -2 q14 0 23.5 11t25.5 11v-20l-7 -14q-7 -13 -15.5 -30.5t-17.5 -34t-13 -24.5q-10 -20 -18.5 -26t-18.5 -6l-10 2l-45 73h-9q-14 0 -27.5 -16t-28.5 -36.5t-31.5 -37t-36.5 -16.5q-16 0 -29.5 15.5t-22 38t-12.5 51t-4 57.5q0 45 13.5 76.5t29.5 55t29.5 42t13.5 41.5 q0 31 -11.5 48t-26.5 25.5t-31.5 10.5t-24.5 2h-2zM541 442q0 -10 2 -26.5t5 -30.5t8 -24.5t13 -10.5q6 0 26.5 18.5t20.5 37.5q0 12 -5 28.5t-11 31.5t-13 26.5t-12 11.5q-14 0 -24 -16.5t-10 -45.5zM637 815q0 27 17.5 61.5t39 65.5t43 51.5t27.5 20.5q29 0 54.5 -35 t47.5 -72l181 -309q10 -23 23 -37t27.5 -29.5t29 -35t26.5 -50.5q-31 -74 -71 -151.5t-86 -141t-95 -104.5t-98 -41h-25q-25 0 -45 16.5t-20 73.5t22.5 87t46.5 30l99 -27q12 0 30.5 11.5t36 32t29.5 48t12 62.5q0 6 -1 16l-1 11q0 2 -7 14t-16.5 25.5t-16.5 24.5t-7 13 l-156 283q-33 61 -60.5 73.5t-70.5 12.5h-16z" />
<glyph unicode="A" horiz-adv-x="940" d="M14 801q0 37 22.5 72.5t55.5 63.5t67 44t56 16q47 0 97 -42t100.5 -108.5t99.5 -148.5t95 -161.5t87 -147t76 -106.5q2 0 9 -1t12 -1q33 0 56 17t58 17v-32l-15 -21q-16 -22 -37.5 -51t-44 -58.5t-38.5 -48.5q-25 -33 -42 -45t-46 -12q-6 0 -15.5 3t-11.5 3l-114 127 l-17 2q-31 0 -65.5 -28.5t-73.5 -63.5t-83 -63.5t-95 -28.5q-39 0 -70 25.5t-52.5 66.5t-32.5 90t-11 96q0 80 32.5 133.5t72.5 94.5t74 73.5t34 71.5q0 53 -29.5 84t-68.5 46.5t-80 18.5t-62 3zM197 375q0 -25 6 -57.5t18 -61.5t30.5 -49.5t43.5 -20.5q12 0 38.5 9.5 t53.5 25t47.5 34.5t20.5 40q0 23 -13.5 58.5t-34 69.5t-42 58.5t-37.5 24.5q-23 0 -46.5 -10.5t-42 -27.5t-30.5 -41.5t-12 -51.5zM487 1018q0 53 30 89t73 36q8 0 8 -2q14 0 31 -11q25 -10 73 -110q0 -2 1.5 -9t1.5 -12q0 -29 -12.5 -48t-31 -30.5t-40 -16.5t-39.5 -5 q-43 0 -69 33t-26 86z" />
<glyph unicode="B" horiz-adv-x="800" d="M14 848q12 25 34 54.5t47.5 56t54 44t55.5 17.5q23 0 37 -15.5t25.5 -34t20.5 -33.5t21 -15q29 0 64 16t71.5 34.5t72.5 35t69 16.5q25 0 39 -3t20 -13.5t7 -30t1 -49.5q0 -53 -13 -93t-13 -90q0 -31 21.5 -53t47 -50t47 -70t21.5 -111q0 -78 -29.5 -142.5t-76 -115.5 t-103.5 -90t-114.5 -64.5t-108.5 -38t-82 -12.5q-41 0 -77 30.5t-36 96.5v623q0 35 -16.5 46t-38 15t-41 9t-27.5 30zM287 356q0 -61 6 -118q0 -12 13 -24.5t30.5 -23t35 -16.5t25.5 -6q33 0 68 18.5t62.5 48t45 68.5t17.5 80q0 72 -39 98.5t-98 26.5q-29 0 -73 -9.5 t-69 -9.5q-6 -35 -15 -68.5t-9 -64.5zM299 680q0 -2 2 -13.5t6 -31.5q4 -16 25.5 -21.5t44.5 -5.5q57 33 90 73t33 116v39q-25 0 -58.5 -10.5t-65.5 -27t-54.5 -39.5t-22.5 -48v-31z" />
<glyph unicode="C" horiz-adv-x="786" d="M23 455q0 111 37.5 210t101 172.5t142.5 116.5t163 43q33 0 66.5 -14t68.5 -41q68 -53 123 -141q20 -33 20 -66q0 -47 -45 -86q-47 -35 -71 -35q-33 0 -54 33q-47 66 -100 106t-113 40q-94 0 -130.5 -49.5t-36.5 -176.5q0 -104 33.5 -173.5t85 -111.5t113.5 -60.5 t122 -18.5q61 0 94 33q10 6 18.5 11t18.5 5h2q23 0 41 -16.5t18 -36.5q0 -27 -39 -64q-63 -59 -130.5 -97t-127.5 -38q-72 0 -146.5 33t-136 92t-100 143t-38.5 187zM319 1249q0 51 29 87t72 36q8 0 10 -2q20 0 29 -8q20 -10 73 -111q0 -2 1.5 -9t1.5 -13q0 -29 -12.5 -48.5 t-31 -30.5t-40 -16.5t-37.5 -5.5q-45 0 -70 34t-25 87z" />
<glyph unicode="D" horiz-adv-x="882" d="M16 1087q0 41 26 72t61.5 50.5t74.5 29.5t68 10q16 0 24.5 -2t15.5 -7t16 -15.5t28 -26.5q57 -61 142 -135t165 -161t136 -188.5t56 -217.5q0 -90 -37.5 -178.5t-98 -160t-135.5 -115.5t-146 -44q-59 0 -128 45t-127.5 114.5t-96 152.5t-37.5 159q0 47 5 81t29 87 q29 61 57.5 107.5t55.5 78.5q20 27 50 54.5t71 56.5q0 2 -10.5 17.5t-25.5 34t-30.5 37.5t-27.5 32q-25 23 -61 29t-70 6q-14 0 -26.5 -1.5t-23.5 -1.5zM174 551q0 -49 40 -115.5t94 -126t111.5 -100.5t92.5 -41q33 0 62.5 24.5t52 62.5t37 82t14.5 83q0 53 -36 125.5 t-86 137.5t-105.5 110t-92.5 45q-31 0 -63.5 -32t-59 -77t-44 -94t-17.5 -84z" />
<glyph unicode="E" horiz-adv-x="1028" d="M23 428q0 70 23.5 139.5t64.5 134t93 118.5t108.5 95t113.5 65t106 24q35 0 74 -17.5t71 -49.5t53.5 -75t21.5 -92q0 -25 -13.5 -45t-33 -34.5t-41 -23t-37.5 -8.5l-29 3l-12 18q-41 59 -75 94t-93 35q-29 0 -65 -16.5t-66.5 -44t-52 -66.5t-21.5 -82q0 -8 6 -8l70 12 l475 -33q2 -2 22 -2q53 0 102.5 17.5t102.5 29.5q0 -47 -33.5 -87t-78.5 -70.5t-92.5 -48t-73.5 -17.5l-365 17h-12q-29 0 -54.5 -5.5t-48.5 -11.5q10 -70 47 -112.5t85.5 -67.5t101.5 -33t94 -8q27 0 50.5 8t46 19.5t47 19.5t55.5 8q0 -23 -23.5 -58.5t-56.5 -71.5 t-66.5 -63.5t-54.5 -33.5q-68 -18 -133 -18q-68 0 -135 18q-51 0 -99.5 45t-86 111.5t-60 140.5t-22.5 131z" />
<glyph unicode="F" horiz-adv-x="929" d="M16 868q12 0 42 -5t40 -5q6 0 12.5 -9t8.5 -15l2 -383v-193q0 -137 -10.5 -260t-49.5 -266q-2 -6 -3 -35t-1 -35q63 0 100.5 32t60 81t34.5 107.5t25.5 109.5t34 89t57.5 46q14 2 42.5 6t59.5 9t56.5 8.5t31.5 3.5q39 0 53.5 -11.5t20.5 -26t12 -25.5t27 -11q25 0 53.5 9 t51 27.5t37.5 45t15 63.5q0 31 -17 47.5t-42 24.5q-10 6 -28.5 8t-39.5 2q-29 0 -52 -2t-34 -2q-39 0 -76.5 -8t-74.5 -18.5t-73 -18.5t-73 -8h-8l-20 352q0 47 26.5 90t65.5 75t82 50.5t76 18.5q39 0 69.5 -24t52 -51.5t36 -50t24.5 -22.5q2 0 6 1l4 1q10 4 32.5 17.5 t45.5 32t40 40t17 41.5q0 45 -23.5 79t-57 57.5t-72.5 35t-68 11.5q-49 0 -91 -12.5t-81 -33t-79 -47t-85 -53.5q-4 8 -5 15.5t-3 13.5q-16 63 -30.5 90t-67.5 27q-27 0 -59.5 -7.5t-61.5 -23t-48.5 -42t-19.5 -63.5z" />
<glyph unicode="G" horiz-adv-x="755" d="M18 455q0 94 40 193.5t103.5 179t143.5 131t160 51.5q41 0 71.5 -10.5t56 -31t50.5 -53t51 -77.5q0 -2 1 -10.5t1 -12.5q0 -20 -11 -41.5t-26.5 -39t-35 -29t-33.5 -11.5q-35 0 -61.5 22.5t-53 49.5t-56.5 49.5t-69 22.5q-47 0 -79.5 -30t-54 -74t-32 -97t-10.5 -100 q0 -59 22.5 -117t57.5 -104t80 -74.5t92 -28.5q45 0 77 24.5t61.5 54.5t61 54.5t76.5 24.5v-228q0 -72 -5 -137t-21.5 -125.5t-48 -115t-84.5 -103.5q-29 -29 -42.5 -38t-35.5 -9q-16 0 -28.5 7t-12.5 30q0 4 1 8l1 4q23 37 43 61.5t36.5 51t26 61.5t9.5 90q0 14 -1 39 t-6.5 48.5t-15.5 40t-26 16.5q-20 0 -42 -8.5t-43.5 -17.5t-43 -16t-44.5 -7q-66 0 -121 39.5t-95 102t-62.5 139.5t-22.5 151z" />
<glyph unicode="H" horiz-adv-x="864" d="M12 1311q0 25 17.5 51.5t42 47t50 33.5t44.5 13q25 0 41 -27.5t27.5 -65.5t15.5 -76t4 -56q0 -117 -8 -230.5t-8 -230.5q37 0 70.5 37t67.5 80t69.5 80t78.5 37q16 0 17 -3q53 -12 102 -73.5t86 -143.5t59.5 -168t22.5 -147q0 -76 -9 -128t-30.5 -95t-54.5 -84t-80 -94 q-4 -6 -18.5 -14.5t-20.5 -10.5l-12 -2q-11 -2 -15 -2q0 45 13.5 85t29 80t28.5 82t13 93q0 47 -20.5 116.5t-53 135t-73.5 111.5t-84 46q-25 0 -38 -11t-36 -40q-10 -10 -33.5 -36.5t-48 -57.5t-45 -57.5t-26.5 -38.5q0 -41 -1 -63.5t-1 -43.5v-26q0 -109 18 -159 t39.5 -70.5t40 -27.5t18.5 -30t-18.5 -49.5t-45 -51t-54 -41t-46.5 -16.5q-37 0 -61.5 35t-37.5 84t-19 101.5t-6 89.5q0 104 9 209.5t20 212t20.5 212t9.5 209.5v95q-31 25 -50.5 42t-19.5 52zM328 406q0 53 28.5 88.5t71.5 35.5q4 0 8 -4q23 0 31 -8q20 -10 74 -110 q0 -2 1 -9.5t1 -13.5q0 -29 -12.5 -48.5t-31 -30.5t-40 -16t-37.5 -5q-45 0 -69.5 34t-24.5 87z" />
<glyph unicode="I" horiz-adv-x="460" d="M25 803q4 0 18 1t18.5 3t18.5 13t18 11q6 0 13.5 -9t7.5 -15v-635q0 -68 19.5 -121t74.5 -53q27 0 62.5 16.5t67.5 45t53.5 64.5t21.5 77q-6 0 -25.5 -1t-23.5 -3q-2 0 -10.5 -4.5t-18.5 -8.5t-18.5 -8t-10.5 -4h-8q-6 0 -17.5 11.5t-11.5 39.5q-2 2 -2 8v746 q0 20 -15 23.5t-32 3.5h-12q-20 0 -52 -18.5t-62.5 -46.5t-52 -57.5t-21.5 -50.5v-28z" />
<glyph unicode="J" horiz-adv-x="825" d="M25 352q0 2 21.5 -14t47 -36.5t48 -39t26.5 -18.5t22.5 -10.5t46 -21.5t62.5 -21.5t72 -10.5h8q63 2 110.5 37t79 84t47 105.5t15.5 103.5q0 57 -24.5 101t-54.5 88t-54.5 93.5t-24.5 118.5v2q0 63 23.5 91t76.5 28q59 0 112.5 -23.5t76.5 -90.5q0 -31 -27 -31h-18 q-45 0 -56.5 -20.5t-11.5 -45.5l2 -57q2 -49 22.5 -89t45 -79t44 -83t19.5 -99q0 -72 -35.5 -144.5t-91 -132t-119 -97.5t-118.5 -38q-39 0 -105.5 40t-130 96.5t-110.5 115.5t-47 98zM279 453q0 4 1 11t1 9q51 98 71 111q45 10 33 10q0 2 8 2q43 0 73 -36t30 -89t-26 -86 t-71 -33q-18 0 -38.5 5t-39 16.5t-30.5 31t-12 48.5z" />
<glyph unicode="K" horiz-adv-x="1046" d="M23 1307q0 -4 1 -7.5t1 -5.5q43 -8 68.5 -35.5t25.5 -84.5v-887q0 -33 3 -82t15.5 -95.5t35 -79t60.5 -32.5q20 0 52 17.5t61 45t50.5 60.5t21.5 61q-43 0 -68.5 9.5t-39 30t-17.5 55t-4 85.5v13q0 16 3 36.5t19 20.5q4 0 18.5 -10t20.5 -14l287 -289q35 -35 77 -65.5 t89 -30.5q12 0 46 19t68.5 47t62.5 59.5t28 58.5h-17q-39 0 -67.5 1t-53 9t-49 24.5t-55.5 45.5l-244 264q-4 2 -15 11t-24.5 21.5t-25 23.5t-13.5 16l-1 9t-1 15q0 31 20.5 57.5t48.5 46t57.5 30t47.5 10.5q41 0 79 -13.5t79 -13.5t77 28.5t36 81.5t-32 86t-71 33h-47 q-57 0 -111.5 -24.5t-105.5 -62.5t-99 -83t-91 -84l-47 -67v669q0 16 -10.5 34t-26 32t-30.5 23.5t-28 9.5q-18 0 -45.5 -10.5t-54.5 -29t-46 -43t-19 -50.5z" />
<glyph unicode="L" horiz-adv-x="714" d="M23 1257q0 -18 9 -34.5t20 -35t20.5 -39t9.5 -46.5q0 -90 -9.5 -179t-19.5 -179.5t-19 -180.5t-9 -180t25.5 -161.5t68.5 -121t101.5 -76t123.5 -26.5q31 0 87 16.5t111.5 45t95.5 68.5t40 87q0 16 -3 28.5t-20 20.5q-33 -35 -58.5 -54.5t-50 -29.5t-51 -13t-59.5 -3 q-72 0 -116 30.5t-67.5 83t-31.5 121t-8 146.5q0 160 20.5 312.5t20.5 307.5q0 27 -2 62t-10.5 65.5t-25.5 52t-50 21.5q-12 0 -36 -8t-48.5 -23.5t-41.5 -35t-17 -42.5z" />
<glyph unicode="M" horiz-adv-x="1218" d="M18 526q0 -63 22.5 -148t62.5 -164t93.5 -139.5t114.5 -74.5q25 14 62 41q25 16 49 42t24 48q0 18 -42 63.5t-93 110t-93 145t-42 173.5q0 31 7 68.5t22.5 71.5t37 56.5t52.5 22.5q39 0 71.5 -60.5t64.5 -151.5t61.5 -197.5t59.5 -198t62.5 -151.5t69.5 -60q20 0 46 14 t48.5 37.5t37.5 51.5t15 56q0 20 -13 33.5t-29.5 26t-33 28t-22.5 41.5q-10 33 -26.5 86.5t-32 103.5t-26.5 86l-11 36v49l96 119q2 2 12.5 3t14.5 1q53 0 98 -49.5t77 -118t50.5 -144t18.5 -127.5q0 -59 -13.5 -100t-30 -73.5t-29.5 -64.5t-13 -75q61 0 109 41t82 102.5 t51.5 135t17.5 139.5q0 43 -12.5 98t-34 113.5t-51 115t-65.5 100.5t-77 70.5t-84 26.5q-27 0 -59.5 -18.5t-64.5 -44t-60.5 -53t-46.5 -48.5l-7 -6q-2 0 -8 -1t-10 -1q-37 0 -58.5 34t-40 76t-40 75.5t-58.5 33.5q-74 0 -142.5 -46t-122.5 -117.5t-86 -163t-32 -179.5z" />
<glyph unicode="N" horiz-adv-x="1163" d="M23 860q0 29 15 49.5t36.5 32.5t45 18.5t40.5 6.5q12 0 48 -35t75 -79t73.5 -87t46.5 -61l420 -457q4 0 26.5 -9.5t27.5 -9.5q12 0 24 29t22.5 64.5t16.5 67.5t6 38q0 61 -10 127t-29.5 130.5t-46 124.5t-57.5 110q25 41 52.5 58t66.5 17q51 0 86.5 -56t58.5 -134 t34 -159t11 -128q0 -29 -1 -48t-3 -38v-4q-6 -63 -29.5 -137t-60.5 -136.5t-84 -104.5t-103 -42l-28 2q-164 154 -256 253t-139.5 157.5t-65.5 81t-37 22.5q-2 0 -2 -6l4 -53q-2 -18 -5 -59t-6 -93.5t-7 -110t-7 -109.5t-6.5 -94t-5.5 -60q-6 -55 -16 -112.5t-31.5 -105 t-56.5 -77t-90 -29.5q0 47 5 89t17 89q2 143 5 245.5t5.5 173.5t3.5 113t1 64v33q0 66 -7.5 133.5t-21.5 149.5q-4 18 -14.5 38.5t-20.5 41t-18 40t-8 35.5zM465 999q0 53 28.5 89t71.5 36q8 0 10 -2l7 -3q8 -3 24 -7q25 -10 74 -111v-20q0 -29 -12.5 -48.5t-31 -31.5 t-38.5 -17t-39 -5q-45 0 -69.5 33.5t-24.5 86.5z" />
<glyph unicode="O" horiz-adv-x="931" d="M23 418q0 96 39.5 200.5t103 191.5t143.5 143.5t162 56.5q92 0 169 -46t131 -124t85 -179.5t31 -209.5q0 -94 -43 -176t-107.5 -143.5t-143.5 -97.5t-149 -36q-76 0 -150.5 26.5t-135 79t-98 131.5t-37.5 183zM195 526q0 -88 28.5 -154.5t75.5 -112.5t107.5 -69.5 t125.5 -23.5h68l16 2q8 4 23.5 19.5t30 34t27 36.5t16.5 29l1 23q1 24 1 40q0 98 -20.5 184.5t-60.5 150t-102.5 99t-144.5 35.5q-6 0 -18.5 -1t-28.5 -1t-29.5 -1t-19.5 -1q-29 -23 -47.5 -56.5t-29.5 -73.5t-15 -81t-4 -78zM356 -227q0 53 30 89t73 36h8q6 -2 12 -5.5 t21 -7.5q23 -10 71 -110q0 -2 1 -9.5t1 -13.5q0 -29 -12 -48t-30.5 -30.5t-39 -16.5t-38.5 -5q-45 0 -71 34t-26 87z" />
<glyph unicode="P" horiz-adv-x="835" d="M23 776l2 -12q4 -6 10 -16l6 -11q6 0 20.5 12.5t20.5 14.5h8q10 -10 17.5 -15.5t11.5 -11.5q2 -23 6 -83t7 -127.5t5 -129t2 -86.5q0 -20 -3 -81.5t-6 -133t-7 -139.5t-6 -98q-4 -37 -13.5 -73t-19.5 -69.5t-18.5 -69.5t-8.5 -73q74 0 112 50t57.5 121t30.5 144.5 t34 120.5q2 2 10 5t18.5 7.5t19.5 7.5t11 3q334 57 420 403q23 45 23 94v99q0 53 -12.5 112.5t-36 110.5t-60.5 84t-86 33q-39 0 -78 -16.5t-75.5 -43t-70.5 -58.5t-63 -63q-12 27 -17 58t-12.5 58.5t-21.5 46t-45 18.5q-27 0 -55.5 -19.5t-54 -47.5t-47 -58.5t-33.5 -55.5z M291 494q0 45 16.5 95t44 91t62.5 67.5t71 26.5q37 0 66 -28.5t47 -71.5t28.5 -92.5t10.5 -87.5q0 -66 -23.5 -117t-61.5 -86t-84 -54.5t-91 -19.5l-66 6q-2 14 -6 53t-7 82t-5 81.5t-2 54.5z" />
<glyph unicode="Q" horiz-adv-x="870" d="M23 520q0 -90 33.5 -180t89 -162t124 -118t140.5 -46q10 0 30.5 2t24.5 2l18 25q-27 41 -58.5 66.5t-64 45t-62.5 39t-52.5 48t-36.5 70.5t-14 108q0 51 12 117.5t36.5 127t61.5 102.5t86 42q23 0 54.5 -12.5t61.5 -34t51.5 -48t25.5 -55.5l43 -886q0 -25 22.5 -63 t54 -74.5t64.5 -62.5t51 -26l8 4l14.5 14.5t6.5 10.5l-57 145q-2 2 -5.5 57.5t-6.5 131.5t-6 154.5t-3 128.5v587q10 20 25.5 31.5t31.5 19.5q-18 57 -63 103.5t-98 46.5q-43 0 -57.5 -38t-28.5 -87h-11q-35 0 -67.5 19.5t-66.5 43t-69.5 43t-74.5 19.5l-58 -4 q-39 -41 -76.5 -91t-67.5 -107.5t-48 -123t-18 -135.5zM303 471q0 -51 25.5 -85t70.5 -34q16 0 38 5t40.5 16.5t30.5 31t12 48.5l-2 22q-51 98 -74 109q-45 10 -30 10q-2 2 -8 2q-43 0 -73 -36t-30 -89z" />
<glyph unicode="R" horiz-adv-x="1038" d="M25 854q0 33 22.5 59.5t54 46t64.5 30.5t53 11q8 0 21 -2l14 -2q2 -6 8 -18t12.5 -26.5t11.5 -29t5 -22.5h20q6 2 32 16.5t55.5 31t54 30.5t30.5 18q4 0 15.5 1t21.5 1q57 0 103.5 -37.5t79 -97t51 -131t18.5 -137.5q0 -41 -16.5 -86t-41 -88t-51 -80t-47.5 -63v-25 q2 0 15.5 -6t32 -14.5t38 -16.5t31.5 -10q6 -2 19.5 -6t28 -8.5t27.5 -7.5t19 -3h23l158 49q0 -43 -34 -82.5t-80 -70.5t-94 -48.5t-77 -17.5q-43 0 -84 12.5t-83 25.5t-84 25.5t-85 12.5q-39 0 -58.5 -28.5t-30.5 -72.5t-20.5 -95.5t-29 -95.5t-54 -72.5t-96.5 -28.5 q0 33 6.5 63.5t14.5 61t14 60.5t6 63v106q0 193 -5 378t-36 378q-4 16 -16 20t-25 4h-4q-14 0 -21 3.5t-7 21.5zM285 647q0 -23 1 -77t4 -115.5t6 -115.5t7 -75h57q2 -2 9 -2q43 0 83 20.5t71.5 56.5t50 85t18.5 106q0 49 -12.5 103.5t-36 100.5t-58 77t-79.5 31 q-6 0 -16 -2l-11 -2l-94 -119v-29v-43z" />
<glyph unicode="S" horiz-adv-x="866" d="M23 240q0 -43 47 -86t109.5 -78t125 -56.5t90.5 -21.5q45 0 119 31.5t143.5 82t120.5 114t51 128.5q0 84 -39.5 130t-100 71t-130.5 38t-130 30.5t-100 48t-40 92.5q0 33 12 52.5t31.5 28.5t45 11t50.5 2h8q43 0 76 -28.5t59.5 -62.5t47 -61.5t36.5 -27.5q23 0 47.5 15.5 t45 39t34 50t13.5 51.5q0 6 -2 23t-2 20q-8 6 -33 26.5t-52.5 43t-53 41t-36.5 22.5q-23 16 -29.5 19t-27.5 3h-6q-61 0 -137 -21.5t-142.5 -63.5t-111.5 -105.5t-45 -147.5q0 -90 39 -137t96 -71.5t125.5 -35t126 -26.5t96.5 -47t39 -94q0 -35 -17.5 -55.5t-42 -33 t-53 -16.5t-49.5 -4q-51 0 -98 27.5t-89 61.5t-80 62.5t-71 28.5q-45 0 -80.5 -30.5t-35.5 -83.5zM319 -238q0 -53 25 -85.5t70 -32.5q16 0 37.5 5t40 16t31 30.5t12.5 48.5q0 4 -1.5 11t-1.5 9q-49 100 -73 111q-14 4 -21 7l-8 3q-2 2 -10 2q-43 0 -72 -36t-29 -89z" />
<glyph unicode="T" horiz-adv-x="874" d="M16 758q31 0 58.5 13t53.5 28.5t52.5 29t57.5 13.5l6 1t12 1q16 0 35.5 -6.5t19.5 -22.5v-665q0 -66 23.5 -110t75.5 -44q27 0 63.5 20.5t70.5 53t56.5 73.5t22.5 84q-39 0 -68 -14t-63 -14h-9q-2 6 -5 30.5t-6 53t-5 54t-2 34.5v24l18 393l19 27q37 2 94 15.5t111.5 42 t93.5 74.5t39 116q-2 0 -14.5 -2t-16.5 -2l-115 -47h-497q-23 0 -53.5 -32t-58.5 -74t-48.5 -85t-20.5 -63z" />
<glyph unicode="U" horiz-adv-x="1019" d="M23 496q0 10 1 26l1 17l114 219q8 18 8 45q0 25 -8 41h-106l2 24q2 23 6 37q6 25 28.5 46.5t51.5 39t57.5 27.5t46.5 10q35 0 60.5 -33.5t25.5 -74.5q0 -49 -18.5 -90.5t-40 -78t-39.5 -75.5t-18 -84q0 -76 22.5 -147.5t61 -128t92 -90t114.5 -33.5q18 0 47 10t56.5 27.5 t47 40t19.5 48.5v512q-4 4 -10 23.5t-8 24.5v12q0 20 14.5 40.5t35 37t42 26t33.5 9.5h16q10 0 18.5 -4.5t12.5 -22.5q0 -31 1 -111t4 -170t6 -168.5t7 -109.5q0 -14 1 -41t6.5 -55.5t12.5 -56t19 -44.5q6 0 19.5 1t29.5 1t28.5 -1t19.5 -1l12 -12t8 -12q0 -35 -23.5 -70 t-56.5 -63.5t-67.5 -47t-57.5 -18.5q-29 0 -45 27.5t-26.5 59.5t-21.5 59.5t-30 27.5q-35 0 -66.5 -27.5t-63 -59.5t-65.5 -59.5t-71 -27.5q-72 0 -138.5 44t-117.5 114.5t-80.5 160t-29.5 179.5z" />
<glyph unicode="V" horiz-adv-x="970" d="M23 424q0 -63 49 -137t118.5 -137.5t143.5 -106.5t121 -43h10q10 6 31.5 14.5t25.5 10.5q68 53 139.5 104t131 112.5t97.5 139.5t38 186q0 27 -9.5 70t-25.5 92t-40 99.5t-50.5 90t-57 65.5t-61.5 26q-8 0 -28.5 -8.5t-42 -23.5t-38 -35.5t-16.5 -43.5v-6q8 -49 43 -93 t73 -92.5t67.5 -105.5t29.5 -133q0 -49 -21.5 -99.5t-56.5 -92t-78 -68.5t-84 -27q-45 0 -103 37t-110.5 91.5t-88 113.5t-35.5 106q0 55 27.5 95.5t59 79t59.5 82.5t28 106q0 47 -29 82t-68 35q-20 0 -52 -11.5t-60.5 -32t-50 -48t-21.5 -60.5h43q31 0 48.5 -13.5 t17.5 -56.5q0 -49 -28 -91t-59.5 -84t-59 -88t-27.5 -101zM373 530q0 -53 25.5 -86.5t68.5 -33.5q18 0 39.5 5t40 16t31 30.5t12.5 48.5q0 6 -1 13t-1 9q-53 94 -74 111q-8 8 -31 8q-2 2 -8 2q-43 0 -72.5 -36t-29.5 -87z" />
<glyph unicode="W" horiz-adv-x="1392" d="M23 436q0 47 12 91t29.5 86t38 83t36.5 80v25l-80 96q0 31 19.5 53.5t46.5 38t55.5 23.5t48.5 8q43 0 64.5 -39t21.5 -88q0 -6 -2 -24.5t-2 -20.5l-114 -242v-123l17 -23q17 -24 42 -54.5t50.5 -62.5t43.5 -50q12 -16 31.5 -33.5t40 -33t41 -24.5t39.5 -9q23 0 41 16 t18 47q0 29 -9 55.5t-21.5 52t-21.5 54t-9 61.5q0 47 15 84t34.5 70t35 66.5t15.5 76.5q0 14 -3 22.5t-8 14.5t-8 14.5t-3 20.5q0 27 17 50.5t42 38.5t51.5 24.5t46.5 9.5q29 0 33 -22.5t4 -51.5q0 -43 -15.5 -79t-35 -70.5t-34.5 -71.5t-15 -82q0 -63 35.5 -134t87 -131.5 t109 -100.5t100.5 -40q33 0 67.5 20.5t62 53.5t45 75t17.5 85q0 63 -21.5 119.5t-48 110t-48 107.5t-21.5 113q0 53 23.5 76t66.5 23t79 -54.5t63.5 -129t43 -152.5t15.5 -125q0 -80 -48.5 -169t-117 -166t-145 -127t-132.5 -50q-41 0 -73.5 27.5t-62.5 59.5t-59.5 59.5 t-62.5 27.5l-10 -2l-172 -143q-4 -6 -19.5 -14.5t-19.5 -10.5h-8q-33 0 -75 21.5t-86 57.5t-86 82t-75 94t-53 95t-20 84z" />
<glyph unicode="X" horiz-adv-x="1097" d="M18 801h13q29 0 52 -2t46 -9.5t45.5 -23.5t46.5 -47q88 -102 134 -159.5t67.5 -86.5t26 -37t6.5 -12q10 -41 12 -56.5t2 -19.5q0 -35 -15.5 -61.5t-38 -47t-46 -30.5t-41.5 -10l-131 26q-31 0 -61 -29.5t-30 -82.5q0 -55 26 -72.5t56 -17.5h43q45 0 88 15t87 52 q33 27 55 53.5t39.5 60.5t32 76t28.5 97q94 -115 151.5 -184.5t93.5 -107.5t55.5 -50t37.5 -12q10 0 37 19t55.5 49t50 62.5t21.5 59.5h-66q-39 0 -68.5 11.5t-64.5 58.5l-246 282q-4 25 -6 52.5t-2 48.5q0 33 15.5 60.5t38 48t46 30.5t42.5 10l125 -27q31 0 63.5 30 t32.5 83q0 55 -29 71.5t-59 16.5h-37q-57 0 -109.5 -28.5t-96.5 -77.5t-75.5 -112.5t-48.5 -133.5q-90 113 -147.5 181.5t-93 106.5t-56 51t-37.5 13q-10 0 -36.5 -19.5t-55.5 -48t-51.5 -61.5t-22.5 -59z" />
<glyph unicode="Y" horiz-adv-x="1046" d="M23 846q0 31 16 55.5t40.5 40.5t51.5 24.5t45 8.5h19q16 0 25 -4t26 -23q20 -14 36.5 -50t31 -81t27.5 -95t28.5 -91t33 -68.5t39.5 -30.5q18 0 45 30t60 75t72.5 96t81.5 96t86 75t90 30q14 0 35.5 -5t42 -16.5t35 -31t14.5 -47.5q0 -23 -16.5 -43.5t-39 -37t-45 -26.5 t-35.5 -10q-25 0 -45 15.5t-43 15.5q-25 0 -71.5 -52.5t-93 -122t-81 -140.5t-34.5 -107q0 -61 9 -120t21.5 -118t21.5 -118.5t9 -121.5q0 -31 -2 -79t-13 -93t-35 -77.5t-65 -32.5q-14 0 -24 6.5t-14 24.5q2 2 2 22v23q0 72 -15.5 187.5t-41 246.5t-61.5 264t-78 240.5 t-86 175t-89 67.5q-14 0 -14 -2q0 2 -1 10.5t-1 14.5zM408 1020q0 53 28.5 89t71.5 36q8 0 10 -2q14 0 31 -10q23 -10 74 -109v-23q0 -29 -12.5 -48t-31 -30.5t-39 -16.5t-38.5 -5q-45 0 -69.5 33t-24.5 86z" />
<glyph unicode="Z" horiz-adv-x="643" d="M20 862q4 61 13.5 80t27.5 29q27 20 68 20q23 0 33 -12t17 -27.5t15.5 -28t26.5 -12.5q27 0 49.5 9.5t44 19.5t44 19.5t51.5 9.5q55 0 74.5 -28t19.5 -107q0 -63 -19.5 -117.5t-19.5 -112.5q0 -33 21.5 -57.5t46 -49t46 -56t21.5 -79.5q0 -41 -23.5 -96t-58.5 -147 q-31 -86 -104 -105q-68 -18 -99 -71l-104 -195q-74 -139 -105 -147h-2q-8 0 -8 22q0 45 27 150q23 80 44 144.5t48 113.5q33 31 55.5 52t40 36.5t31.5 27t31 23.5q29 23 42 43t13 57q0 45 -23.5 62.5t-52.5 17.5q-31 0 -55.5 -14t-52.5 -14q-18 0 -24.5 15t-6.5 38 q0 49 21.5 87t47 72.5t47 73.5t21.5 88q0 45 -10 52.5t-29 7.5h-6q-29 0 -51.5 -9.5t-50.5 -9.5q-23 0 -49 13l-48 55l-59 -12q-16 16 -21.5 34.5t-5.5 34.5zM190 1280q0 53 30 89t73 36q8 0 10 -2q-14 0 31 -10q18 -10 72 -109l2 -22q0 -29 -12.5 -48.5t-31 -31t-39 -16.5 t-38.5 -5q-45 0 -71 34t-26 85z" />
<glyph unicode="[" horiz-adv-x="460" d="M37 295v133q0 104 10 205.5t10 202.5v24l-18 27q0 2 7 21.5t11 27.5l76 160h47q66 0 115 -7.5t127 -19.5l2 -12q0 -57 -26.5 -98t-86.5 -41q-18 0 -23 2t-18 2q-49 0 -57 -58q-2 -20 -3 -35.5t-1 -25.5l2 -23v-493q2 -27 8 -67t19 -79h106q14 0 14 -37q0 -23 -6 -59 q-12 -92 -53 -92t-73.5 -5t-61.5 -5q-41 0 -65.5 33.5t-38 85t-18.5 114t-5 119.5z" />
<glyph unicode="\" horiz-adv-x="966" d="M23 803q0 -23 22.5 -39t36.5 -21q143 -205 297 -381.5t334 -336.5q14 -18 30.5 -22.5t34.5 -4.5h25q45 0 77.5 27.5t61.5 70.5q-4 6 -14 20.5t-22.5 30t-24 28.5t-15.5 18l-39 22q-23 18 -63.5 57t-83.5 81t-78 78t-43 48q-4 4 -23.5 28.5t-43 53.5t-43 54.5t-23.5 31.5 q-14 14 -49 51t-75 80t-76 81t-50 52q-2 0 -8 1t-10 1q-16 0 -39 -10t-44.5 -25.5t-36.5 -36t-15 -38.5z" />
<glyph unicode="]" horiz-adv-x="446" d="M23 -18q0 57 26.5 96t79.5 39h12q12 0 15 -2l16 -2q51 0 57 57q8 14 9 59q0 4 -1 10.5t-4 16.5v199l5 49v217l-5 29q-2 29 -9 68.5t-17 78.5h-109q-12 0 -12 31q0 25 6 61q16 96 55 96q37 0 70 5.5t62 5.5q41 0 66.5 -34t39.5 -85t19.5 -113.5t5.5 -120.5v-135l-23 -418 q0 -41 -4 -62.5t-23 -64.5l-49 -120h-49q-33 0 -59.5 1t-53 4t-56.5 8t-68 13q0 2 -1 5t-1 8z" />
<glyph unicode="^" horiz-adv-x="940" d="M14 801q0 37 22.5 72.5t55.5 63.5t67 44t56 16q47 0 97 -42t100.5 -108.5t99.5 -148.5t95 -161.5t87 -147t76 -106.5q2 0 9 -1t12 -1q33 0 56 17t58 17v-32l-15 -21q-16 -22 -37.5 -51t-44 -58.5t-38.5 -48.5q-25 -33 -42 -45t-46 -12q-6 0 -15.5 3t-11.5 3l-114 127 l-17 2q-31 0 -65.5 -28.5t-73.5 -63.5t-83 -63.5t-95 -28.5q-39 0 -70 25.5t-52.5 66.5t-32.5 90t-11 96q0 80 32.5 133.5t72.5 94.5t74 73.5t34 71.5q0 53 -29.5 84t-68.5 46.5t-80 18.5t-62 3zM197 375q0 -25 6 -57.5t18 -61.5t30.5 -49.5t43.5 -20.5q12 0 38.5 9.5 t53.5 25t47.5 34.5t20.5 40q0 23 -13.5 58.5t-34 69.5t-42 58.5t-37.5 24.5q-23 0 -46.5 -10.5t-42 -27.5t-30.5 -41.5t-12 -51.5zM303 -199q0 53 29.5 89t73.5 36q6 0 8 -2q-20 0 30 -10q25 -10 74 -111q0 -2 1 -9t1 -11q0 -29 -12 -48.5t-30.5 -31.5t-40 -17t-38.5 -5 q-45 0 -70.5 33.5t-25.5 86.5z" />
<glyph unicode="_" horiz-adv-x="741" d="M-41 -281q0 51 18.5 85t47 55.5t62.5 35t67 23.5l575 43h57q-16 -61 -55 -99t-91 -58.5t-114.5 -27.5t-124.5 -7q-59 0 -114.5 3t-102.5 3q-20 0 -36.5 -1t-32.5 -3q-4 0 -23.5 -7.5t-43 -15.5t-43 -16t-23.5 -11z" />
<glyph unicode="`" horiz-adv-x="346" d="M37 1329l102 -123q27 -33 44.5 -63.5t58.5 -59.5l45 33q14 8 14 29q0 10 -10 41q-18 53 -43 71q-16 25 -23.5 36.5t-36.5 35.5h-151z" />
<glyph unicode="a" horiz-adv-x="880" d="M23 829q0 27 21.5 52.5t49 46t56 36t40.5 21.5q2 2 7 2h16q16 0 31.5 -10t30 -25.5t25.5 -32t19 -30.5q117 -178 200 -304t142.5 -209t102.5 -125t80 -52v-13q0 -37 -16.5 -66.5t-40 -51t-51 -32.5t-50.5 -11q-10 0 -21.5 1t-13.5 1q-8 6 -25.5 22.5t-36 35.5t-33.5 36.5 t-19 28.5l-21 2q-35 0 -64.5 -24t-60.5 -53.5t-62.5 -53t-70.5 -23.5q-47 0 -84 23.5t-63.5 63.5t-41 92.5t-14.5 107.5t31 99t69 79t68.5 61.5t30.5 48.5q0 66 -84 215q-31 20 -57.5 23.5t-49.5 3.5q-41 4 -40 14zM213 356q0 -27 11.5 -56.5t28.5 -55t39.5 -42t45.5 -16.5 h10q2 0 17.5 7.5t34 18.5t32.5 26.5t14 31.5q0 20 -11 51t-31.5 61t-46 51.5t-56.5 21.5h-4q-33 0 -58.5 -29t-25.5 -70z" />
<glyph unicode="b" horiz-adv-x="837" d="M16 772q0 57 21.5 98t54.5 67t73 37t77 11q16 0 29.5 -9t25.5 -19.5t25.5 -19.5t31.5 -9q35 0 70 16.5t69.5 36.5t69.5 36.5t70 16.5q18 0 30.5 -6t26.5 -22q0 -4 1 -13.5t1 -21.5t1 -23.5t1 -15.5q0 -51 -15 -91t-15 -85v-25q45 -20 87 -63t48 -115v-80 q0 -82 -25.5 -148.5t-67.5 -119.5t-96.5 -92t-109 -64.5t-106.5 -38t-91 -12.5q-12 0 -33.5 3t-43 12.5t-38 23.5t-16.5 39v704q0 20 -13.5 23.5t-23.5 3.5q-16 0 -30.5 -5t-28 -12.5t-27.5 -12.5t-33 -5zM326 311q0 -61 22.5 -103t77.5 -42q37 0 74 20.5t65.5 56.5t46 82 t17.5 95q0 66 -25.5 83t-60.5 17l-62 -4q-16 0 -18 2q-31 0 -31 37q0 4 1 9l1 5q6 14 23.5 42t36 58.5t33 63.5t14.5 62q0 20 -7.5 36.5t-25.5 16.5q-12 0 -39 -9.5t-54.5 -26.5t-48 -40.5t-20.5 -52.5q-10 -115 -15 -208.5t-5 -199.5z" />
<glyph unicode="c" horiz-adv-x="806" d="M25 422q0 123 40.5 227.5t108.5 181t155 120.5t179 44q25 0 60.5 -6t68.5 -21.5t55.5 -43t22.5 -70.5q0 -31 -11.5 -49.5t-28 -27.5t-37 -11t-40.5 -2q-29 0 -56.5 8t-56 18.5t-58.5 18.5t-60 8q-49 0 -82 -25.5t-52.5 -67.5t-28.5 -97.5t-9 -116.5q0 -160 71.5 -249 t194.5 -89q47 0 76.5 19.5t64.5 48.5q16 12 32.5 23t35.5 22q25 8 38 12l13 4q12 0 14 -2q18 -4 19 -66q0 -66 -40 -110.5t-98.5 -73.5t-127 -41t-123.5 -12h-7q-147 0 -240 107.5t-93 318.5z" />
<glyph unicode="d" horiz-adv-x="931" d="M25 1174q39 68 88 107.5t116 39.5q49 0 86 -16.5t72 -59.5l422 -502q41 -47 59.5 -118.5t18.5 -137.5q0 -90 -50.5 -177t-122 -156.5t-152.5 -112.5t-144 -43q-68 0 -135.5 41t-120.5 105.5t-87 146.5t-34 164q0 68 22.5 126t56.5 106t73.5 87t73.5 69.5t56.5 55.5 t22.5 43l4 16q-10 18 -22 33q-35 45 -63.5 79t-59.5 57.5t-69 35t-91 11.5h-20zM213 551q0 -72 27.5 -140.5t73.5 -123t102.5 -88t115.5 -33.5q27 0 52.5 13.5t48 33.5t43 47t37.5 51q4 49 5 66.5t1 21.5v2q0 72 -27.5 135.5t-68.5 119t-89.5 104.5t-89.5 92h-18 q-2 0 -15.5 -16.5t-23.5 -20.5q-43 -31 -75.5 -57.5t-54 -54t-33 -59.5t-11.5 -75v-18zM334 502q0 51 28.5 87t71.5 36q8 0 10 -2q23 0 31 -9q20 -10 74 -110v-23q0 -29 -12.5 -48t-31 -30.5t-39 -16.5t-36.5 -5q-47 0 -71.5 34t-24.5 87z" />
<glyph unicode="e" horiz-adv-x="980" d="M27 410q0 -92 29.5 -168t78.5 -130.5t112.5 -84t131.5 -29.5q35 0 85 14.5t96 43t79 72.5t33 103q-25 0 -45.5 -8t-39 -18t-38 -18.5t-41.5 -8.5q-47 0 -102.5 19.5t-104.5 58.5t-82 95.5t-33 127.5q33 -8 64 -10t65 -2q78 0 156 10t158 10q39 0 73.5 -2t73.5 -6 q20 0 46 20.5t48.5 49.5t42 57.5t29.5 44.5l6 6q-2 4 -8 12.5t-10 10.5h-10q-39 0 -76 -13.5t-80 -13.5h-53q-29 0 -49 27q20 29 29 50.5t9 49.5q0 6 -1 17.5t-1 13.5q-49 74 -95 126t-116 52q-78 0 -158.5 -53t-148 -136t-110.5 -186.5t-43 -203.5zM215 598q0 43 18.5 84 t46 72.5t60 50t61.5 18.5q23 0 41.5 -9t32.5 -21.5t24.5 -24.5t16.5 -18q8 -8 19 -60q-18 -16 -36 -24.5t-36.5 -13.5t-41 -10t-48.5 -13q-43 -14 -81 -22.5t-77 -8.5z" />
<glyph unicode="f" horiz-adv-x="874" d="M23 -305q0 6 1 14t1 10q2 6 6 24.5t9 38t11 38t10 24.5l37 494v98q0 20 -2 73.5t-4 112t-5 110.5t-5 73q-16 8 -19.5 22.5t-3.5 30.5q0 25 16.5 50.5t39 46t48 33.5t42.5 13h10q10 -6 14 -15t11 -38q6 -14 10 -33.5t8 -37t7 -30.5t7 -18q2 0 8.5 -1t10.5 -1 q31 0 63.5 23.5t69.5 53.5t78 53.5t90 23.5q33 0 74 -8t77.5 -29.5t61 -57.5t24.5 -91q0 -66 -28.5 -104t-87.5 -38q-20 0 -43 23.5t-50.5 53.5t-61.5 53.5t-75 23.5t-65.5 -23.5t-45 -54.5t-43 -59.5t-57.5 -36.5q-4 -16 -7 -58.5t-6 -89.5t-4 -89t-1 -58v-45q45 0 90 11 t90 23.5t90 23.5t92 11q14 0 38 -6t46.5 -19t38 -33.5t15.5 -47.5q0 -16 -2 -18q-2 -10 -16.5 -25.5t-32 -30t-32 -27t-16.5 -16.5q-8 -6 -21 -15t-18 -9q-2 0 -10 8t-17 17.5t-18.5 17.5t-11.5 8t-20.5 1t-30.5 1q-63 0 -129 -9t-125 -44q-12 -86 -24.5 -152.5t-34 -121 t-57.5 -101.5t-97 -94q-14 10 -16 21.5t-2 27.5z" />
<glyph unicode="g" horiz-adv-x="847" d="M23 377q0 -96 38.5 -168t99 -121t133.5 -73.5t140 -24.5l180 20q10 -23 13.5 -53.5t3.5 -65.5q0 -68 -5 -98.5t-26 -58.5q-4 -4 -12 -17.5t-16.5 -29t-16.5 -28.5t-12 -19q6 -18 16 -21.5t23 -3.5q16 0 28.5 4t28.5 21q2 2 27.5 31.5t53.5 63.5t51.5 62.5t23.5 32.5 l-2 -2q2 63 3 127.5t1 134.5q0 59 -1 121.5t-3 128.5q-6 16 -12.5 19t-12.5 3q-4 0 -13.5 -11t-13.5 -13q-16 -27 -38.5 -55.5t-48 -53t-54.5 -40t-57 -15.5q-53 0 -114.5 15.5t-114 50t-86 90t-33.5 135.5q0 68 18 133.5t52 117.5t82 85t108 33q41 0 72.5 -13.5t70.5 -13.5 q43 0 73.5 35t30.5 84t-37.5 70.5t-74.5 21.5q-66 0 -133.5 -25.5t-130 -70.5t-118.5 -106.5t-97 -132.5t-64.5 -149.5t-23.5 -156.5zM379 492q0 -53 26.5 -87t69.5 -34q18 0 40 5t40 16t30.5 30.5t12.5 48.5q0 6 -2 13.5t-2 9.5q-51 98 -72 110q-51 10 -30 10q-2 2 -11 2 q-43 0 -72.5 -35.5t-29.5 -88.5z" />
<glyph unicode="h" horiz-adv-x="882" d="M8 1321q0 -31 14.5 -44t33 -23.5t32.5 -27t14 -52.5q0 -201 -20.5 -397.5t-20.5 -395.5q0 -33 2.5 -97.5t12.5 -128t32.5 -111.5t65.5 -48q20 0 45 10t45.5 26.5t33.5 40t13 50.5v20l-57 72q-16 27 -20.5 65.5t-4.5 79.5q0 25 1 46.5t1 35.5v125l2 31l136 145 q29 25 38 37.5t37 12.5q43 0 82 -54.5t69 -129t47 -154.5t17 -131q0 -43 -7 -78t-16 -68t-16.5 -64.5t-7.5 -70.5q59 0 100.5 35t68 90t37.5 121.5t11 130.5q0 80 -17 145.5t-45 125t-64.5 114.5t-75.5 113l-29 40q-18 20 -31.5 23.5t-34.5 3.5q-43 0 -77.5 -29.5 t-66.5 -65.5t-63.5 -65.5t-70.5 -29.5v546q0 27 -11.5 42.5t-26.5 22.5t-32.5 8t-29.5 1q-20 0 -45 -3t-47.5 -12t-38 -28.5t-15.5 -50.5z" />
<glyph unicode="i" horiz-adv-x="444" d="M23 844q0 33 18 59.5t45 44t55.5 26.5t46.5 9q31 0 46.5 -14.5t37.5 -63.5v-135l2 -37l-20 -467q0 -59 14.5 -82.5t55.5 -23.5l67 14q8 0 11.5 -5t5.5 -7q-16 -55 -51 -93t-85 -69q-57 -10 -67 -10q-16 0 -31.5 3t-34.5 7q-12 0 -22.5 15.5t-18.5 35t-12 39t-4 29.5 q0 125 20.5 247.5t20.5 249.5q0 61 -9.5 106.5t-31.5 61.5q-25 16 -42 26.5t-17 33.5zM82 1200q0 53 28.5 89t71.5 36q8 0 11 -2q12 0 28 -10q25 -10 74 -111q0 -2 1 -9t1 -11q0 -29 -12.5 -48.5t-30.5 -30.5t-39.5 -16.5t-38.5 -5.5q-45 0 -69.5 33t-24.5 86z" />
<glyph unicode="j" horiz-adv-x="403" d="M-100 -510q20 -14 59 -14q29 0 51.5 14t57.5 39q31 37 57.5 69.5t49 70.5t40.5 83t33 107q14 55 25.5 110.5t19.5 103.5t12 86t4 58q0 31 -3 43t-6 23.5t-6 32t-3 69.5q0 98 5 177t9 126l21 143v15q0 33 -8.5 68.5t-25 65.5t-41 49.5t-54.5 19.5q-27 0 -46.5 -3.5 t-37 -13.5t-35 -29.5t-39.5 -52.5l-2 -35q0 -37 10 -45t22.5 -9t26 -3t19.5 -27v-276l2 -76q0 -78 4 -163t4 -183v-47v-25q0 -23 -2 -24q0 -119 -19 -232q-20 -108 -204 -315zM111 1282q0 -51 25.5 -85t70.5 -34q18 0 38.5 5.5t39 16.5t31 30.5t12.5 48.5l-2 22 q-53 98 -72 109q-45 10 -33 10q0 2 -8 2q-43 0 -72.5 -36t-29.5 -89z" />
<glyph unicode="k" horiz-adv-x="1038" d="M23 1307q0 27 19 51t46 42.5t54.5 29t45.5 10.5q12 0 27.5 -9.5t31 -23.5t26 -31.5t10.5 -34.5v-622h47q43 39 91 83t99 81t105.5 60.5t111.5 23.5q74 -4 112 -21.5t38 -71.5q0 -53 -36 -81.5t-77 -28.5t-79 13.5t-79 13.5q-18 0 -47.5 -10.5t-57.5 -30t-48.5 -46 t-20.5 -57.5q0 -6 1 -15l1 -9q2 -4 13.5 -15.5t25 -24t24.5 -21.5t15 -11l248 -264q27 -29 48.5 -45.5t44 -23.5t47 -9t57.5 -2h41q0 -27 -28 -58.5t-62.5 -59.5t-68.5 -47t-46 -19q-47 0 -89 30.5t-77 65.5l-287 289q-6 4 -20.5 14t-18.5 10q-16 0 -19 -20.5t-3 -36.5v-13 q0 -51 4 -85.5t17.5 -55t39 -30t68.5 -9.5q0 -29 -21.5 -61.5t-50.5 -60t-60.5 -45t-52.5 -17.5q-39 0 -61 32.5t-34.5 79t-15.5 95.5t-3 82v887q0 57 -25.5 84.5t-68.5 35.5q0 2 -1 5.5t-1 7.5zM418 1249q0 51 29.5 87t72.5 36q8 0 10 -2q20 0 29 -8q20 -10 74 -111 q0 -2 1 -9t1 -13q0 -29 -12.5 -48.5t-31 -30.5t-40 -16.5t-37.5 -5.5q-45 0 -70.5 34t-25.5 87z" />
<glyph unicode="l" horiz-adv-x="749" d="M25 1223q8 -23 23 -28t30.5 -10t28 -16.5t12.5 -42.5v-933q0 -66 25.5 -104t63.5 -58.5t82 -26.5t83 -6h14q70 0 128 19.5t98 51t62.5 71.5t22.5 83l-196 -80q-72 0 -117 21.5t-70.5 62.5t-35 103.5t-9.5 144.5l25 612q0 23 -2 50.5t-2 50.5v35q-10 43 -37 81.5t-66 38.5 q-51 0 -92.5 -36.5t-70.5 -83.5zM287 -227q0 -53 25.5 -87t72.5 -34q16 0 36.5 5t39 16.5t31 31t12.5 47.5q0 6 -1 13.5t-1 9.5q-51 98 -72 110q-14 4 -20.5 7.5t-10.5 5.5h-10q-43 0 -72.5 -36t-29.5 -89z" />
<glyph unicode="m" horiz-adv-x="1257" d="M23 442q0 92 30.5 191.5t85 182.5t126 136.5t153.5 53.5q31 0 55.5 -27t45 -61.5t38.5 -70.5t41 -56q35 35 67.5 69.5t68.5 62t74 45t85 17.5q31 0 66.5 -33.5t71.5 -88t69 -122t58.5 -135t40.5 -127t15 -96.5q0 -55 -19 -114.5t-53 -109.5t-77 -83t-92 -33q0 41 10 72.5 t23.5 62.5t23.5 62.5t10 74.5q0 70 -24.5 140.5t-61 136t-81 123t-82.5 100.5l-11 2q-25 0 -50 -21.5t-46.5 -52t-35 -66.5t-13.5 -63q0 -59 7 -122.5t27.5 -118t53.5 -91t86 -42.5q0 -2 1 -10.5t1 -14.5q0 -29 -23.5 -59.5t-54.5 -55t-61.5 -40t-44.5 -15.5q-37 0 -66 59.5 t-52.5 147.5t-45 191.5t-45 191.5t-52 147.5t-65.5 59.5q-31 0 -51.5 -39t-32.5 -91.5t-17 -103.5t-5 -73q0 -66 16 -119.5t44 -101.5t63.5 -91t72.5 -86l17 -18l2 -10q0 -23 -14.5 -42.5t-34 -35t-42 -24.5t-36.5 -9l-29 2q-43 43 -84 90t-74 102.5t-53 116.5t-20 133z" />
<glyph unicode="n" horiz-adv-x="1163" d="M23 860q0 29 15 49.5t36.5 32.5t45 18.5t40.5 6.5q12 0 48 -35t75 -79t73.5 -87t46.5 -61l420 -457q4 0 26.5 -9.5t27.5 -9.5q12 0 24 29t22.5 64.5t16.5 67.5t6 38q0 61 -10 127t-29.5 130.5t-46 124.5t-57.5 110q25 41 52.5 58t66.5 17q51 0 86.5 -56t58.5 -134 t34 -159t11 -128q0 -29 -1 -48t-3 -38v-4q-6 -63 -29.5 -137t-60.5 -136.5t-84 -104.5t-103 -42l-28 2q-164 154 -256 253t-139.5 157.5t-65.5 81t-37 22.5q-2 0 -2 -6l4 -53q-2 -18 -5 -59t-6 -93.5t-7 -110t-7 -109.5t-6.5 -94t-5.5 -60q-6 -55 -16 -112.5t-31.5 -105 t-56.5 -77t-90 -29.5q0 47 5 89t17 89q2 143 4 245.5t4.5 173.5t3.5 113t1 64v33q0 66 -6.5 133.5t-20.5 149.5q-4 18 -14.5 38.5t-20.5 41t-18 40t-8 35.5zM442 -180q0 53 29 89t72 36h10q4 -2 11 -4t18 -9q25 -10 73 -110q0 -2 1 -9.5t1 -11.5q0 -29 -12 -48t-30.5 -30.5 t-40 -16.5t-37.5 -5q-45 0 -70 33t-25 86z" />
<glyph unicode="o" d="M23 440q0 -96 37.5 -176t96 -139t130 -92t139.5 -33q70 0 144.5 50t137 127t102.5 171t40 184q0 74 -29.5 134.5t-75 109.5t-95.5 89t-91 75q-8 4 -18.5 13.5t-18.5 9.5q-53 18 -104 18q-55 0 -107 -18q-51 0 -102 -58.5t-93 -141.5t-67.5 -172.5t-25.5 -150.5zM176 541 q0 31 8.5 74.5t23.5 84.5t37.5 70t51.5 29q57 0 124.5 -29t124 -80t94.5 -120.5t38 -151.5q0 -117 -45 -163t-131 -46q-51 0 -108.5 21.5t-105.5 63.5t-80 103.5t-32 143.5z" />
<glyph unicode="p" d="M25 -412q-2 -2 5 -10t11 -14l4 -3t6 -3q20 0 51 25.5t59.5 62.5t50 74.5t21.5 62.5q20 227 28.5 437t12.5 444q0 27 24 54t56.5 47.5t67.5 34t57 13.5q49 0 86 -42t62.5 -103.5t38 -128t12.5 -115.5q0 -98 -30 -146.5t-75 -78t-95 -58t-91 -90.5l21 -24q4 0 24.5 -2 t30.5 -2q70 0 138.5 45t123.5 116.5t90 160.5t35 179q0 70 -18.5 134.5t-49 123t-68.5 107.5t-77 88q-6 0 -27.5 2t-29.5 2q-39 0 -74 -19.5t-69 -42t-67.5 -42t-68.5 -19.5h-10q-8 25 -14.5 46.5t-15.5 39t-22.5 27.5t-33.5 10q-49 0 -96.5 -44t-67.5 -103l8 -3 q14 -6 27.5 -15t21.5 -32v-235l4 -57v-256l-4 -39q0 -47 -3 -125t-6 -153t-5 -130t-2 -57zM356 453q0 -53 26 -86t71 -33q18 0 38.5 5t39 16.5t30.5 31t12 47.5q0 4 -1 11.5t-1 9.5q-53 102 -71 110q-45 10 -33 10q0 2 -8 3q-43 0 -73 -36t-30 -89z" />
<glyph unicode="q" horiz-adv-x="821" d="M23 530q0 -49 18 -94q10 -72 55 -138.5t107.5 -121.5t132.5 -93t129 -50q2 0 10 -3t18.5 -6.5t18.5 -7.5t10 -6q20 -47 31.5 -120.5t32 -144.5t58.5 -121t114 -50q0 37 -9.5 73t-19.5 69.5t-20.5 69.5t-12.5 73q-4 31 -8 97.5t-7 139t-5 134t-2 81.5q0 25 2 86.5t5 129 t7 128t6 82.5q10 12 29 27h10q4 -2 18.5 -14.5t18.5 -12.5q2 0 9 10.5t12 16.5l2 12l-2 12q-14 25 -36 55.5t-47.5 58.5t-54 47.5t-55.5 19.5q-31 0 -45 -18.5t-21.5 -46t-12.5 -58.5t-17 -58q-29 31 -62.5 63t-70.5 58.5t-76 43t-78 16.5q-49 0 -85 -33t-60.5 -84 t-35.5 -110.5t-11 -112.5v-99zM176 494q0 39 10.5 88t28.5 92t47 71.5t66 28.5t71.5 -26.5t62 -67.5t44 -91t16.5 -95q0 -16 -2 -54.5t-5 -81.5t-7 -81.5t-6 -53.5l-68 -6q-43 0 -89 19.5t-84 54.5t-61.5 86t-23.5 117z" />
<glyph unicode="r" horiz-adv-x="974" d="M14 -440q0 37 12.5 64.5t28 54t27.5 55t12 67.5q18 242 27.5 467.5t9.5 460.5v70q-8 2 -20.5 5t-24.5 10t-21.5 17.5t-9.5 26.5q0 2 1 4t1 6q39 61 78 101.5t103 40.5q55 0 73.5 -50.5t18.5 -113.5q31 16 64.5 44t68.5 54.5t71.5 46t71.5 19.5q53 0 90 -38t58.5 -93.5 t31 -119t9.5 -112.5v-24q0 -27 -2 -59t-2 -44q-8 -37 -34 -68.5t-52.5 -62.5t-48 -63.5t-21.5 -71.5q0 -4 1 -7l1 -3l158 -117q6 0 29.5 -5t41.5 -5q-4 0 12.5 6t34.5 6q25 0 31 -16q-29 -37 -49.5 -70t-42 -55.5t-48 -35.5t-67.5 -13q-47 0 -87 30.5t-81 67.5t-83 67.5 t-91 30.5q-31 0 -68.5 -21.5t-54.5 -56.5q0 -66 -12 -150.5t-42 -162.5t-79 -131t-125 -53zM289 287q33 8 90 23.5t113.5 42t98.5 67.5t42 100q0 33 -4 85t-16.5 102.5t-37 86t-65.5 35.5h-14q-12 0 -13 -2l-172 -135q-6 -6 -11 -37.5t-9 -52.5v-156l-2 -32v-127zM379 -217 q0 51 29.5 87t72.5 36h11q4 -2 12 -4t18 -6q14 -6 30.5 -35t41.5 -76q0 -2 2 -9t2 -14q0 -29 -12.5 -48t-30.5 -30.5t-39.5 -16.5t-40.5 -5q-43 0 -69.5 34t-26.5 87z" />
<glyph unicode="s" horiz-adv-x="768" d="M23 221q0 20 10 43t25.5 39t35 27.5t35.5 11.5h10q29 -20 65 -47t74.5 -50.5t78.5 -40t77 -16.5t72 34t35 83q0 45 -13.5 73t-36 42t-53 18t-65.5 4h-103q0 -2 -12 -2q-35 0 -67.5 6.5t-57 23.5t-39 51t-14.5 89q0 88 46 161t111.5 124t140.5 80t130 29q25 0 62.5 -12.5 t73.5 -35t61.5 -53.5t25.5 -69q0 -23 -11 -41.5t-26.5 -33t-35 -21.5t-33.5 -7q-31 0 -58.5 15.5t-55.5 35t-56.5 34.5t-61.5 15q-18 0 -42.5 -7t-46 -21.5t-37 -36t-15.5 -47.5q0 -29 5 -47.5t34 -34.5q2 -2 14 -2h68q47 0 106.5 -7t111.5 -30t88 -66t36 -114 q0 -68 -33 -141.5t-82 -136t-107.5 -102.5t-109.5 -40q-31 0 -91.5 14.5t-119.5 43t-104 69.5t-45 96z" />
<glyph unicode="t" horiz-adv-x="978" d="M25 711q0 -2 6 -12.5t10 -12.5l4 -2q4 -2 6 -2t6 2l4 2l115 121h209l-16 -576q0 -20 6 -59t18.5 -77t30.5 -66.5t43 -28.5q14 0 16 2q31 8 72 34.5t77 65.5t61.5 84t25.5 93q-18 0 -35.5 -9.5t-34 -19.5t-34 -19.5t-35.5 -9.5q-35 0 -46.5 40t-11.5 87v94q2 31 4 81 t5.5 96.5t5.5 80t4 33.5l39 51q2 -2 14 -2h16q45 0 101.5 19.5t106.5 56.5t84 88t34 115q-59 0 -109 -60q-78 -4 -153.5 -6t-149.5 -2q-76 0 -147.5 2t-143.5 6l-23 -27q-22 -28 -52.5 -67t-63.5 -80t-53 -67q-4 -6 -10 -24.5t-6 -24.5zM418 1249q0 -53 25.5 -87t70.5 -34 q16 0 37.5 5.5t40 16.5t31 30.5t12.5 48.5q0 6 -1 13t-1 9q-53 94 -74 111q-8 8 -29 8q-2 2 -10 2q-43 0 -72.5 -36t-29.5 -87z" />
<glyph unicode="u" horiz-adv-x="970" d="M23 414q0 -72 35.5 -144.5t90 -132t119 -97.5t119.5 -38q37 0 68.5 16.5t62.5 39t59.5 47t59.5 40.5q8 -29 17.5 -55.5t22.5 -46.5t31.5 -33.5t45.5 -13.5q18 0 47.5 16.5t57.5 43t48.5 59t20.5 63.5q-8 0 -25.5 1t-36 7.5t-33 18.5t-14.5 37v678q0 16 -16.5 21t-32.5 5 h-12q-6 0 -16 -1l-9 -1l-96 -121l-1 -3t-1 -5q0 -6 1 -10l1 -4q2 -6 8 -24.5t10 -24.5v-174q2 -12 3 -25.5t1 -28.5q0 -53 -6 -111.5t-23.5 -106.5t-50 -79.5t-87.5 -31.5q-41 0 -95.5 30.5t-103.5 76.5t-84 101.5t-35 106.5q0 57 24.5 97t54.5 77t54.5 82t24.5 115v2 q0 63 -23.5 88.5t-77.5 25.5q-31 0 -61.5 -14t-59 -38.5t-51 -56.5t-34.5 -65q0 -31 26 -30l86 10q18 0 29.5 -8.5t11.5 -30.5q0 -49 -24.5 -89t-53 -79t-53 -83t-24.5 -99zM426 1085q0 -53 25.5 -85.5t70.5 -32.5q16 0 38 5t40 16t30.5 30.5t12.5 48.5q0 4 -2 11t-2 9 q-45 94 -72 111q-45 10 -30 10q-2 2 -11 2q-43 0 -71.5 -36t-28.5 -89z" />
<glyph unicode="v" horiz-adv-x="978" d="M23 424q0 53 27.5 98t59 88t59.5 86t28 92q0 41 -17.5 55.5t-48.5 14.5h-43q0 33 21.5 60.5t50 48t60.5 32t52 11.5q39 0 68 -35t29 -82q0 -55 -28 -100t-59.5 -86t-59 -83t-27.5 -94q0 -47 35.5 -107.5t88 -113.5t110.5 -90t103 -37q41 0 84 27t78 67.5t56.5 91 t21.5 99.5q0 76 -29.5 132t-67.5 103.5t-73 92.5t-43 98l-2 10q0 20 17.5 40t39 35t43 23.5t27.5 8.5q31 0 61.5 -26t57 -65.5t50.5 -89t40 -98.5t25.5 -93t9.5 -73q0 -109 -38 -187.5t-97.5 -141t-131 -112.5t-139.5 -99q-4 -2 -25.5 -10.5t-31.5 -14.5h-10q-47 0 -121 42 t-143.5 105.5t-118.5 137t-49 139.5z" />
<glyph unicode="w" horiz-adv-x="1411" d="M25 842q14 25 33.5 50.5t43 47t49 34.5t54.5 13q45 0 75.5 -31.5t30.5 -91.5q0 -49 -15 -92t-32.5 -85t-33 -85t-15.5 -94q0 -61 35 -112.5t82 -90.5t95 -65.5t75 -40.5l10 -2q23 0 36 22.5t13 50.5q0 41 -11 76t-11 78t15 81t34.5 73.5t35 71.5t15.5 77q0 33 -13.5 46 t-28.5 19.5t-27.5 14.5t-12.5 35q0 33 18.5 56.5t45 38.5t55.5 22.5t51 7.5q43 0 64.5 -21.5t21.5 -81.5q0 -49 -18.5 -93t-41 -86t-41 -85t-18.5 -92q0 -37 36 -89t85 -101.5t98.5 -84t77.5 -34.5q39 0 77 26.5t65.5 67.5t45 91t17.5 97q0 59 -24.5 105.5t-54.5 88.5 t-54.5 84t-24.5 95q0 20 12.5 39.5t31 36t38 27t35.5 10.5q4 0 10 -2t9 -2l16 -21q31 -35 61.5 -74t57 -82t43 -91t16.5 -101q0 -55 -24.5 -119.5t-63.5 -127t-89 -121t-101.5 -103.5t-98.5 -71.5t-82 -26.5q-37 0 -70.5 19t-64.5 44t-62.5 44.5t-64.5 19.5l-31 -2 q-6 -6 -28.5 -31t-51 -51.5t-59.5 -48t-51 -21.5q-4 0 -10 2t-8 2q-49 25 -109.5 59.5t-114 84t-89.5 114t-36 148.5q0 49 12.5 90t28 80.5t27.5 79.5t12 85v48q-6 0 -19.5 3t-29.5 7t-29.5 8t-19.5 6q-4 2 -10 11.5t-6 15.5z" />
<glyph unicode="x" horiz-adv-x="1103" d="M20 213h68q39 0 69.5 11.5t65.5 58.5l238 282q4 25 6 52.5t2 48.5q0 33 -15.5 60.5t-38 48t-46 30.5t-41.5 10l-125 -27q-31 0 -60.5 30t-29.5 83q0 55 25.5 71.5t56.5 16.5h36q57 0 109.5 -28.5t96.5 -77.5t76 -112.5t48 -133.5q92 113 149.5 181.5t93.5 106.5t56.5 51 t38.5 13q8 0 36 -19.5t56.5 -48t51 -61.5t22.5 -59h-12q-31 0 -55.5 -1t-45 -9.5t-41 -24.5t-45.5 -47q-88 -102 -136 -159.5t-70.5 -86.5t-27.5 -37t-7 -12q-4 -18 -7.5 -30.5t-3.5 -22.5t3.5 -14.5t3.5 -8.5q0 -35 14 -61.5t33.5 -47t42 -30.5t41.5 -10l133 26 q29 0 59.5 -29.5t30.5 -82.5q0 -55 -26.5 -72.5t-57.5 -17.5h-43q-45 0 -91 15t-89 52q-33 27 -54.5 53.5t-38 60.5t-30 76t-27.5 97l-59 -74q-74 -90 -120 -145.5t-74.5 -85t-46 -39.5t-32.5 -10q-10 0 -36.5 19t-55 49t-51.5 62.5t-23 59.5zM510 1038q0 53 29.5 88 t72.5 35q8 0 11 -2q20 0 28 -8q20 -10 74 -111q0 -2 1 -9t1 -13q0 -29 -12.5 -48.5t-30.5 -30.5t-39.5 -16t-38.5 -5q-45 0 -70.5 33.5t-25.5 86.5z" />
<glyph unicode="y" horiz-adv-x="1038" d="M23 854q0 -25 16 -46.5t37.5 -38.5t44 -26.5t35.5 -9.5q25 0 45 15.5t43 15.5q16 0 43.5 -24.5t58.5 -63.5t62.5 -88t57.5 -96.5t42 -88.5t16 -65q0 -63 -9 -123.5t-21.5 -120t-21.5 -119t-9 -120.5q0 -31 2 -80t13 -95.5t35 -80t65 -33.5q32 0 38 35q-2 2 -2 20v25 q0 72 15.5 188.5t41 249.5t61.5 268t78 245t86 178.5t89 68.5q14 0 14 -2q0 2 2.5 10t2.5 12q0 31 -17.5 55.5t-42 42t-51.5 26.5t-45 9h-4q-23 0 -33 -3t-29 -25q-29 -23 -51 -91.5t-44.5 -142t-48.5 -131t-58 -57.5q-20 0 -47 29.5t-61 74.5t-72 98.5t-78.5 98.5 t-84.5 74.5t-90 29.5q-14 0 -35.5 -5t-41 -16t-33.5 -30.5t-14 -46.5zM389 1075q0 -29 12.5 -48t31 -30.5t40 -16.5t37.5 -5q45 0 70.5 34t25.5 87t-29.5 89t-72.5 36q-8 0 -12 -4q-18 0 -27 -9q-23 -10 -74 -110q0 -2 -1 -9.5t-1 -13.5z" />
<glyph unicode="z" horiz-adv-x="720" d="M37 850q0 18 16 39q39 63 78 82q27 20 66 20q23 0 33 -12t17 -27.5t16 -28t28 -12.5q27 0 49 9.5t44 19.5t44.5 19.5t48.5 9.5q55 0 75.5 -28t20.5 -107q0 -63 -20.5 -117.5t-20.5 -112.5q0 -33 21.5 -57.5t47.5 -49t47.5 -56t21.5 -79.5q0 -41 -21.5 -96t-60.5 -147 q-35 -86 -104.5 -104.5t-100.5 -71.5l-104 -195q-74 -137 -103 -147h-4q-8 0 -8 22q0 68 26 150q45 186 93 258l157 137q29 25 42.5 45t13.5 57q0 45 -22.5 62.5t-51.5 17.5q-31 0 -56.5 -14t-54.5 -14q-18 0 -24 15t-6 38q0 49 21.5 87t47 72.5t47 73.5t21.5 88 q0 45 -11.5 52.5t-29.5 7.5l-111 -15q-37 0 -45 9l-45 55q-16 -4 -29.5 -16.5t-23.5 -12.5q-23 0 -34 1t-23 11q-16 6 -22.5 29t-6.5 33z" />
<glyph unicode="{" horiz-adv-x="512" d="M10 594q0 68 18.5 128t47 114.5t62.5 100.5t67 87l6 3t10 3q14 0 34.5 -11t39 -30.5t32 -43t13.5 -48.5q0 -61 -24.5 -110.5t-54.5 -97.5t-54.5 -101t-24.5 -123q0 -68 21.5 -117t52.5 -88t68.5 -72.5t68.5 -71.5t52.5 -82t21.5 -104q-35 0 -82 32t-98 84t-100.5 121 t-88.5 142.5t-63.5 147t-24.5 137.5z" />
<glyph unicode="|" horiz-adv-x="391" d="M23 1300q0 27 15 50.5t36.5 41t45 28t40.5 10.5q18 0 36.5 -14.5t34 -38t26.5 -51.5t15 -52v-62q0 -49 1 -97t1 -97v-62q0 -172 -11 -330.5t-11 -326.5v-63q0 -29 1 -61t5 -62.5t11 -54t22 -35.5q6 -10 19.5 -13.5t26.5 -8.5t22.5 -14.5t9.5 -29.5q0 -23 -18.5 -52.5 t-45 -56t-53.5 -44t-45 -17.5q-47 0 -71.5 38t-37 92t-14.5 114.5t-2 107.5q0 236 8 466.5t8 465.5q0 70 -12 105.5t-25.5 55t-25.5 32t-12 36.5z" />
<glyph unicode="}" horiz-adv-x="512" d="M10 1030q35 0 82 -31.5t97.5 -84t100.5 -121t89 -142t63.5 -147.5t24.5 -137q0 -66 -16.5 -122.5t-43 -106.5t-57.5 -94t-61 -83l-17 -22q-2 0 -8 -4.5t-10 -4.5q-16 0 -35.5 11.5t-38 31t-31 44t-12.5 49.5q0 59 24.5 108t54.5 97t54.5 101.5t24.5 123.5q0 68 -21.5 117 t-52.5 87.5t-68.5 72.5t-68.5 72t-52.5 82t-21.5 103z" />
<glyph unicode="~" horiz-adv-x="659" d="M41 356q0 33 19.5 72t49 71.5t62.5 55.5t61 23h11l207 -41q12 6 29.5 16t38 20.5t38.5 17.5t31 7q10 0 22.5 -3t12.5 -22q0 -6 -7.5 -24.5t-11.5 -24.5q-6 -8 -12 -15t-12 -13q-43 -49 -70 -77t-54.5 -41t-64.5 -16.5t-100 -3.5l-86 31q-47 0 -84 -16.5t-80 -16.5z" />
<glyph horiz-adv-x="362" />
<glyph unicode="&#xa1;" horiz-adv-x="411" d="M16 709q2 -4 4.5 -10.5t4.5 -12.5q18 -53 24 -77.5t21 -49.5v-131l2 -31q0 -43 -3 -64.5t-6.5 -39t-6.5 -39t-3 -59.5q0 -23 4 -57t15.5 -65.5t32 -54t55.5 -22.5q20 0 55 8t67.5 23.5t56 38t23.5 51.5q0 25 -21.5 25.5t-47 4t-47 21.5t-21.5 76q0 47 3 73.5t6.5 49 t6.5 48t3 68.5q0 59 -12.5 125t-43.5 125q-18 37 -44.5 65.5t-55.5 28.5q-31 0 -49 -32zM49 1057q0 -16 6 -38t16.5 -40t25 -31.5t30.5 -13.5q18 0 39.5 9t42 26.5t35 39t18.5 46.5v4q0 14 -10 34.5t-24.5 38t-31 30t-28.5 12.5h-4q-12 -2 -31.5 -12.5t-38 -27t-32 -37 t-13.5 -40.5z" />
<glyph unicode="&#xa2;" horiz-adv-x="806" d="M16 467q0 -147 90.5 -222t243.5 -75l-6 -160l90 -10l8 172q20 0 42 2t46 8q33 8 53.5 15.5t35 14.5t25.5 16.5t26 21.5l4 4q25 14 42 23.5t29 17.5q0 10 1.5 19.5t1.5 17.5q0 49 -21 51h-18q-14 0 -25.5 -2t-21.5 -10q-41 -10 -68 -31q-35 -20 -68.5 -33.5t-81.5 -13.5 l19 436q35 -8 64.5 -15t62.5 -7q41 0 79 10t38 53q0 31 -22.5 50.5t-55.5 30.5t-69 14t-60 3h-27q-6 0 -6 -4l4 148l-92 8l-4 -166q-74 -18 -138.5 -55t-113.5 -87t-78 -112.5t-29 -132.5zM186 530q0 43 9.5 82t29 69t52 47t81.5 17h11l-17 -444q-166 45 -166 229z" />
<glyph unicode="&#xa3;" horiz-adv-x="800" d="M16 -2q0 33 21.5 69.5t52.5 67.5t65.5 51.5t63.5 20.5l49 -4q-51 66 -81.5 136.5t-30.5 135.5v31q0 8 1 14t3 15q-39 -4 -72 -16.5t-72 -12.5q0 66 58.5 123t212.5 98q8 10 8 14q0 25 -7 48.5t-14.5 47t-14.5 47t-7 52.5q0 35 11 65.5t46 30.5q29 0 53.5 -17.5t48 -37 t49 -36.5t56.5 -17h25q39 0 49 -18.5t10 -45.5t-9 -50.5t-34 -23.5q-27 0 -47 31q-14 20 -33.5 23.5t-48.5 3.5h-8v-6q0 -74 32.5 -113t72.5 -66.5t73 -54t33 -76.5q-12 0 -46 3.5t-71 6.5t-68.5 6t-42.5 3q-43 0 -59 -36t-16 -118q0 -80 30.5 -137t90.5 -68h26 q31 0 47.5 17.5t27.5 41t23 49.5t37 44q135 -59 135 -113v-6q-6 -29 -14 -56.5t-18 -53.5q-23 -49 -59 -81t-95 -32q-23 0 -96 29q-35 -8 -77 -9.5t-97 -1.5l-111 13z" />
<glyph unicode="&#xa4;" horiz-adv-x="1097" d="M16 801q37 0 60.5 -2t42 -9.5t38 -24.5t48.5 -48q29 -35 54.5 -62.5t47.5 -56.5q-2 -16 -3 -29.5t-1 -27.5q0 -92 40 -161t99 -110q-23 -35 -57.5 -53t-56.5 -18l-125 26q-31 0 -60.5 -29.5t-29.5 -82.5q0 -55 25.5 -72.5t56.5 -17.5h36q45 0 89.5 23.5t85.5 57.5 q23 20 42 41t37 41l4 4q4 8 8.5 17.5t14.5 23.5q31 -12 59.5 -17t57.5 -5q33 0 63 6l80 -96q29 -35 60.5 -65.5t66.5 -30.5q8 0 36 19t56.5 49t51 62.5t22.5 59.5h-12q-31 0 -54.5 1t-43 9t-39 25.5t-42.5 48.5l-71 78v43q0 98 -52.5 177t-125.5 132q23 41 60.5 64.5 t66.5 23.5l127 -27q29 0 59.5 30t30.5 83q0 55 -27 71.5t-57 16.5h-37q-74 0 -122 -23.5t-80 -56t-50 -69.5t-31 -64l-6 -12q-100 35 -135 35q-14 0 -31 -11l-82 101q-29 35 -61.5 67.5t-69.5 32.5q-10 0 -36.5 -19.5t-54.5 -48t-50.5 -61.5t-22.5 -59zM406 600 q0 33 14 53.5t47 20.5q49 0 87 -28t62.5 -61.5t38 -64.5t13.5 -37v-90q0 -49 -20.5 -57t-80.5 -8q-33 0 -50 6t-30.5 23.5t-29.5 48t-47 77.5z" />
<glyph unicode="&#xa5;" horiz-adv-x="1038" d="M23 854q0 -25 16 -46.5t37.5 -38.5t44 -26.5t35.5 -9.5q25 0 45 15.5t43 15.5q20 0 60 -41t81 -99.5t77 -123t50 -111.5h-80q-29 0 -63.5 -21.5t-65.5 -55t-52.5 -72.5t-21.5 -72l162 31q41 0 64.5 -7.5t52.5 -11.5q-4 -29 -9 -56.5t-12 -53.5h-57q-29 0 -63.5 -21.5 t-65.5 -54.5t-52.5 -72t-21.5 -74l162 31q23 0 40 -1t34 -5v-18q0 -31 2 -80t13 -95.5t35 -80t65 -33.5q33 0 38 35q-2 2 -2 22v27q0 78 19 205q49 2 88 9t76 25.5t74.5 50t84.5 85.5q4 4 11.5 23.5t7.5 23.5q0 20 -12.5 23t-22.5 3q-23 0 -39 -6t-41 -20h-190l22 106 q37 2 69 11.5t62.5 29t63.5 49t71 74.5q4 6 11.5 24.5t7.5 24.5q0 20 -12.5 23.5t-22.5 3.5q-25 0 -41 -6t-39 -21h-117q25 92 53.5 175t60.5 144.5t64.5 97.5t63.5 36q12 0 12 -2q0 2 2.5 10t2.5 12q0 31 -17.5 55.5t-42 42t-51.5 26.5t-45 9h-4q-23 0 -39.5 -3t-34.5 -25 q-4 -10 -17.5 -40t-28.5 -62.5t-29.5 -62.5t-20.5 -40l-2 -6q-4 -20 -14.5 -54t-25 -68t-31.5 -58.5t-32 -24.5q-25 0 -52.5 30.5t-59 76t-67.5 99.5t-75 99t-80.5 76t-87.5 31q-14 0 -35.5 -7.5t-41 -20.5t-33.5 -34.5t-14 -48.5zM389 1075q0 -29 12.5 -48t31 -30.5 t40 -16.5t37.5 -5q45 0 70.5 34t25.5 87t-29.5 89t-72.5 36q-8 0 -12 -4q-18 0 -27 -9q-29 -12 -74 -110q0 -2 -1 -9.5t-1 -13.5z" />
<glyph unicode="&#xa6;" horiz-adv-x="391" d="M23 -43q0 18 9 27.5t22.5 15.5t25.5 10t18 13q29 29 35 91t6 122v63q0 168 -11 326.5t-11 330.5v62q0 49 1 97t1 97v62q4 25 15 52.5t26.5 51t34 38t36.5 14.5t42 -10.5t45.5 -28t36 -41t14.5 -50.5q0 -25 -12.5 -37t-27 -31.5t-26.5 -55t-12 -105.5q0 -236 10 -466 t10 -466q0 -47 -3 -107.5t-15 -114.5t-38 -92t-71 -38q-16 0 -43.5 17.5t-54.5 44t-45 56t-18 52.5z" />
<glyph unicode="&#xa7;" horiz-adv-x="800" d="M18 129q0 -41 43 -71.5t99.5 -52t115 -33t89.5 -11.5q51 0 109 31t107.5 77t81 101t31.5 106q0 35 -11 54.5t-36 40.5q45 47 75 99t30 99q0 55 -35 88t-87 50.5t-111.5 22.5t-108.5 5h-64q-29 12 -34 26.5t-5 37.5q0 18 12.5 33.5t31 26.5t41 17.5t42.5 6.5 q33 0 61.5 -12.5t55.5 -26t54.5 -25.5t58.5 -12q33 0 69.5 20.5t36.5 57.5q0 29 -25.5 52.5t-60.5 39.5t-73 25.5t-62 9.5q-57 0 -129 -21.5t-135.5 -60.5t-106.5 -93.5t-43 -119.5q0 -78 53 -107q-47 -35 -77.5 -79t-34.5 -97v-10v-2q2 -25 17.5 -41t38 -29.5t48 -26 t47.5 -28.5q55 -23 109.5 -32t85.5 -9q10 0 61 10l4 2q35 -25 35 -75q0 -39 -27.5 -60.5t-66.5 -21.5t-78 12t-76.5 29.5t-71.5 36t-65 32.5h-10q-16 0 -35.5 -8t-36 -21.5t-27 -30t-10.5 -32.5zM250 483v21q0 18 12 33.5t30.5 26.5t41 17.5t43.5 6.5q29 0 53.5 -10.5 t48 -23.5t47 -25.5t49.5 -16.5l5 -25q0 -47 -37 -67q-33 -8 -65 -13.5t-62 -5.5q-56 1 -64 9h-10q-25 10 -47.5 35.5t-44.5 37.5z" />
<glyph unicode="&#xa8;" horiz-adv-x="602" d="M37 1200q0 -53 25.5 -86t68.5 -33q18 0 38.5 4.5t39.5 16.5q12 8 21.5 23.5t13.5 30.5t6 28.5t2 17.5q-53 100 -74 111q-16 10 -31 10q0 2 -8 2q-43 0 -72.5 -36t-29.5 -89zM336 1223q8 -141 98 -142q18 0 40 5.5t40 16.5t30.5 30.5t12.5 48.5q0 4 -1 11t-1 9 q-53 100 -74 111q-16 10 -30 10q0 2 -9 2q-43 0 -72.5 -35.5t-33.5 -66.5z" />
<glyph unicode="&#xa9;" d="M16 625q0 -96 38 -176t96.5 -139.5t130 -92.5t139.5 -33q70 0 144.5 50.5t137 127t102.5 171t40 184.5q0 80 -31 145.5t-76 115.5t-95 87t-87 59q-10 4 -20.5 13.5t-18.5 9.5q-53 18 -106 18q-49 0 -105 -18q-51 0 -102 -58.5t-93 -141.5t-68 -172t-26 -150zM145 598 q1 59 13 143q0 29 13 73t35.5 85t51.5 69.5t59 28.5h7q61 0 129.5 -5t126 -36.5t95.5 -100.5t38 -193q0 -59 -24.5 -116t-61.5 -103t-81 -73.5t-83 -27.5q-66 0 -124 6t-101 32t-68 77t-25 141zM207 643q0 -106 46 -160.5t122 -54.5q29 0 48 1t42 7q33 16 44 24.5t28 28.5 q14 10 22 18.5t12 10.5q2 2 2 17v14q0 27 -12 31h-6q-10 0 -25 -7q-18 -8 -32 -22q-18 -14 -37 -23.5t-41 -9.5q-63 0 -96 44t-33 124q0 63 18.5 107.5t67.5 44.5q35 0 62.5 -12.5t56.5 -12.5h4q18 0 35.5 5t17.5 40q0 20 -11.5 34.5t-27.5 22t-34.5 10.5t-30.5 3 q-47 0 -90.5 -21.5t-77 -60.5t-54 -90.5t-20.5 -112.5z" />
<glyph unicode="&#xaa;" horiz-adv-x="485" d="M31 956q0 -8 20 -8q18 0 55 -18q41 -78 41 -107q0 -10 -15 -22.5t-33.5 -29.5t-34 -38.5t-15.5 -50.5q0 -55 27.5 -99t75.5 -44q20 0 36.5 12t32 26.5t30.5 26.5t32 12h8q6 -10 27.5 -33.5t31.5 -29.5h17q23 0 50 23.5t27 58.5v4q-18 6 -37.5 24.5t-37 40t-30.5 42 t-20 30.5q-6 6 -26.5 37t-45 68t-45 67.5t-26.5 36.5l-22.5 31.5t-30.5 17.5h-4q-4 -2 -18.5 -9t-30 -17.5t-27.5 -23.5t-12 -28zM129 719q0 23 13.5 37t29.5 14q8 0 20.5 -10t24.5 -25.5t20.5 -32t8.5 -26.5q0 -8 -7.5 -15.5t-16.5 -13.5t-17 -9l-8 -3h-4q-23 0 -43.5 27.5 t-20.5 56.5z" />
<glyph unicode="&#xab;" horiz-adv-x="569" d="M49 463q12 25 24.5 41t25 29.5t24.5 26.5t24 32l97 141v-207q-18 -33 -27.5 -42t-28.5 -29q-10 -20 -10 -39q0 -2 1 -8.5t1 -16.5q16 -41 27.5 -58.5t30.5 -41.5q0 -4 6 -10v-138q-45 59 -78 108.5t-53 84.5q-18 31 -34 62.5t-30 64.5zM301 463q12 25 24.5 41t24.5 29.5 t24.5 26.5t24.5 32l99 141v-207q-18 -33 -27.5 -42t-28.5 -29q-12 -23 -12 -41q0 -6 1 -11.5t3 -11.5q18 -43 29.5 -61.5t34.5 -48.5v-138q-47 61 -80 109.5t-53 83.5q-37 70 -64 127z" />
<glyph unicode="&#xac;" horiz-adv-x="821" d="M37 350l162 31l186 -27h205q10 -66 38.5 -124t86.5 -136q4 -6 19.5 -15t19.5 -9q16 0 18 16t2 29q0 12 -1 62t-4 112.5t-7 123t-10 93.5l16 18q4 6 11 24.5t7 24.5q0 18 -13 21.5t-23 3.5q-23 0 -39 -5.5t-39 -19.5h-432q-29 0 -64 -22.5t-65.5 -55t-52 -72.5t-21.5 -73z " />
<glyph unicode="&#xad;" horiz-adv-x="659" d="M41 356q0 35 21.5 74t53 72t66.5 54.5t62 21.5l264 -5q25 14 41 19.5t39 5.5q10 0 22.5 -3t12.5 -22q0 -6 -7.5 -24.5t-11.5 -24.5q-6 -8 -12 -15t-12 -13q-43 -49 -70 -77t-54.5 -41t-64.5 -16.5t-100 -3.5l-86 31q-47 0 -84 -16.5t-80 -16.5z" />
<glyph unicode="&#xae;" d="M16 625q0 -96 38 -176t96.5 -139.5t130 -92.5t139.5 -33q70 0 144.5 50.5t137 127t102.5 171t40 184.5q0 74 -31 134t-75 109.5t-94 89.5t-89 74q-10 4 -20.5 13.5t-18.5 9.5q-53 18 -106 18q-49 0 -105 -18q-51 0 -102 -58.5t-93 -141.5t-68 -172t-26 -150zM143 598 q0 76 13 119q0 29 14 77t36.5 93t52.5 77.5t58 32.5q86 0 156 -14t117 -53t72.5 -108.5t25.5 -178.5q0 -35 -7 -66.5t-17 -60.5q-4 -4 -19 -4h-10q-6 0 -24.5 5t-22.5 7q-14 0 -36 12l-22 13v12q10 12 23.5 30.5t25 40t19.5 44t8 43.5q0 33 -9 68.5t-25.5 64.5t-40 48.5 t-52.5 19.5h-16q-2 -2 -15.5 -9.5t-29 -15.5t-28.5 -15l-13 -8h-10q0 8 -8.5 25.5t-12.5 22.5l-6 1t-10 1q-10 0 -26.5 -5.5t-33 -15.5t-28 -23.5t-11.5 -29.5q0 -12 7 -12h10q16 0 22 -13q14 -104 16.5 -199.5t2.5 -199.5v-31q0 -10 -1 -17t-1 -18q-63 23 -103.5 79.5 t-40.5 160.5zM352 342q10 43 21.5 83t40.5 40q47 0 86 -19.5t82 -19.5q4 0 13 3t28 7q-31 -45 -72 -72.5t-84 -27.5q-59 0 -115 6zM362 664v43v38v35l48 62h12q23 0 40 -15.5t29.5 -39t18.5 -50t6 -51.5q0 -59 -39 -97t-86 -38q-4 0 -10 1t-8 1q-4 8 -7.5 44t-3.5 67z" />
<glyph unicode="&#xaf;" horiz-adv-x="741" d="M-49 1407q4 0 12 1t10 1q4 2 23.5 10t43 16.5t43 15.5t23.5 7q16 2 33 3t37 1q47 0 102.5 -3t114.5 -3q63 0 125 7t114 27.5t90 58.5t56 100h-57l-574 -47q-33 -10 -67.5 -22.5t-63 -34t-47 -54.5t-18.5 -84z" />
<glyph unicode="&#xb0;" horiz-adv-x="288" d="M45 1200q0 -53 25.5 -86t68.5 -33q18 0 39 4.5t39 16.5q12 8 21.5 23.5t13.5 30.5t6 28.5t2 17.5q-53 100 -74 111q-16 10 -30 10q-2 2 -9 2q-43 0 -72.5 -36t-29.5 -89zM106 1208q0 12 8.5 24.5t24.5 12.5q2 0 2 -2h6q4 0 8.5 -7t22.5 -34q0 -2 1 -4t1 -4 q0 -20 -15 -28.5t-26 -8.5q-33 0 -33 51z" />
<glyph unicode="&#xb1;" horiz-adv-x="720" d="M29 14q45 0 80.5 15.5t83.5 15.5l86 -29q49 0 86.5 -3t70.5 -3q27 0 51.5 4t49 17.5t51 36t59.5 59.5q6 6 13.5 24.5t7.5 22.5q0 20 -13.5 23.5t-23.5 3.5q-23 0 -39.5 -5.5t-38.5 -21.5h-334q-27 0 -59.5 -12t-62 -34t-49 -51.5t-19.5 -62.5zM35 451l162 30q27 0 34 -4 t9 -10t7 -10t29 -4q4 -33 8.5 -52.5t13.5 -38t25.5 -40t45.5 -60.5q6 -6 20 -15t21 -9q16 0 18 16t2 29q0 20 3 28t3 19q0 12 -6 28l10 105q29 6 55.5 10t52 15.5t54.5 32t64 59.5q4 6 11 24.5t7 24.5q0 18 -13.5 21t-23.5 3q-23 0 -39 -5t-39 -19h-133v53q0 33 -14 63.5 t-35.5 52t-49.5 35t-54 13.5q0 -29 1 -39t1 -19q0 -8 1 -17t1 -38q0 -37 -4 -45t-8.5 -10t-8.5 -9t-4 -40h-24q-29 0 -64 -15.5t-65.5 -40t-52 -57.5t-21.5 -65z" />
<glyph unicode="&#xb2;" horiz-adv-x="458" d="M33 578q0 43 35.5 58t80 26.5t80 31t35.5 68.5q0 16 -2 45t-9 56.5t-19.5 47t-30.5 19.5q-4 0 -9 -1l-6 -1l-86 -72v-4q0 -18 -8 -30.5t-22 -12.5q0 57 9 84t34 43q20 12 57 44t78 44q27 0 44 -20.5t28.5 -49t16.5 -61.5t5 -57v-13q0 -14 -1 -30.5t-1 -20.5 q-4 -23 -17.5 -37t-26.5 -26.5t-24.5 -26.5t-11.5 -37q0 -2 1 -4l1 -2l88 -72h58l4 -4q4 -4 4 -8q-29 -41 -46.5 -63.5t-56.5 -22.5q-23 0 -44 15.5t-42.5 34t-43 33.5t-46.5 15q-6 0 -19.5 -4t-17.5 -8q-4 0 -16 -11l-12 -12q-6 0 -21.5 9.5t-17.5 13.5l-1 8t-1 15z" />
<glyph unicode="&#xb3;" horiz-adv-x="391" d="M37 930q0 33 30.5 46t51.5 13q23 0 30 -13t25 -13t31.5 10t26 21.5t25.5 21.5t30 10q18 0 23 -14.5t5 -34.5q0 -27 -10 -48.5t-10 -49.5q0 -4 10 -11.5t23.5 -22t23.5 -38t10 -59.5q0 -39 -21.5 -81t-52 -78t-65.5 -58.5t-61 -22.5q-57 0 -78 57q-8 14 -10 27.5t-4 25.5 v9q-1 24 67 53q12 -10 18.5 -23.5t11.5 -24.5t13 -19.5t27 -8.5q35 0 52 30t17 73t-11 54t-36 11l-45 -2q0 25 7.5 43t15.5 35.5t15 37t7 46.5q-29 0 -47 -21q-8 -12 -18 -19t-27 -18l-6 -4q-8 -8 -31 -8q-14 0 -20 10z" />
<glyph unicode="&#xb4;" horiz-adv-x="346" d="M39 1145l2 10t6 31q14 49 43 71q16 25 24.5 36.5t32.5 35.5h154l-102 -123q-29 -33 -45.5 -63.5t-57.5 -59.5l-47 33q-10 10 -10 29z" />
<glyph unicode="&#xb5;" horiz-adv-x="888" d="M-63 -131q0 -31 20 -63.5t48 -59.5t57.5 -43t50.5 -16q18 0 31.5 28.5t24.5 73.5t19.5 99.5t15.5 105.5t13 92t12 59q31 -16 60.5 -40.5t58.5 -47t61.5 -39t69.5 -16.5q55 0 120 38t119 97.5t91 132t37 144.5q0 55 -24.5 99t-54.5 83t-54.5 79t-24.5 89q0 23 11.5 31 t29.5 8l86 -10q25 0 29 30q-12 33 -36 65t-52.5 56.5t-60 38.5t-60.5 14q-53 0 -76.5 -25.5t-23.5 -88.5l157 -373q0 -51 -34.5 -106.5t-84 -101.5t-104.5 -76.5t-94 -30.5q-61 0 -94 39.5t-49.5 98t-19.5 125t-3 120.5v141l2 33q4 6 11 24.5t7 24.5l1 4t1 10q0 2 -1 5l-1 3 l-94 121l-10 1q-10 1 -16 1h-11q-16 0 -32.5 -5t-16.5 -21v-988q0 -25 -14.5 -37t-33.5 -18t-37.5 -7t-26.5 -1z" />
<glyph unicode="&#xb6;" horiz-adv-x="964" d="M14 102q0 6 7.5 15.5t11.5 9.5q6 0 22.5 1t34.5 1t34.5 -1t22.5 -1l172 139l1 3q2 3 2 7q0 39 -21.5 69t-48.5 55.5t-52.5 54t-33.5 65.5q0 12 -1 44t-1 59v24q0 49 9 112.5t30.5 119t57.5 93.5t91 38h369q55 0 90 -34t70 -87q6 -8 9 -13.5t5 -7.5q0 -4 1 -6t1 -4 q0 -16 -10 -26.5t-22.5 -16.5t-26 -10t-19.5 -6v-70q0 -236 17.5 -464t21.5 -464q0 -39 13.5 -67.5t28.5 -55t28.5 -54t13.5 -64.5q-74 0 -123 53t-79.5 131t-43 163t-12.5 150l-18 262v365q-4 20 -9.5 52t-9.5 38l-172 53q-2 2 -12 2h-17q-41 0 -65.5 -35.5t-38.5 -86 t-18.5 -102.5t-4.5 -85q0 -59 41 -100q23 -20 46.5 -37.5t52.5 -30.5q59 -25 59 -125q0 -49 -9 -81.5t-34 -49.5l-4 -4q-23 -16 -40 -29.5t-40 -31.5q-43 -35 -85 -63.5t-87 -28.5q-39 0 -65.5 11t-49 32.5t-43 52.5t-47.5 67z" />
<glyph unicode="&#xb7;" horiz-adv-x="360" d="M37 504q0 -16 12 -44t31.5 -55.5t42 -48t41.5 -20.5q27 0 46 14.5t33.5 37t21.5 50t7 54.5v28q-6 8 -15 29.5t-20.5 43t-25.5 38t-33 16.5q-53 0 -97 -40t-44 -103z" />
<glyph unicode="&#xb8;" horiz-adv-x="167" d="M-94 -211l31 -96q29 -29 94 -35h18q80 0 127 45t57 115q0 41 -30.5 72.5t-96.5 41.5l25 78h-96l-37 -110q37 -8 59.5 -18.5t34.5 -21t15.5 -19.5t3.5 -15q0 -23 -21 -37q-20 -20 -92 -20h-31q-35 0 -61 20z" />
<glyph unicode="&#xb9;" horiz-adv-x="309" d="M31 934q0 -18 16 -19q8 0 17.5 2.5t15.5 2.5q8 0 10 -15l19 -323q10 -49 49 -50q14 0 32.5 10.5t35 27t27.5 36t11 37.5l-59 -14q-16 0 -21.5 29.5t-5.5 72.5q0 45 2 97.5t0 96.5t-10 72.5t-29 28.5q-10 0 -28.5 -8t-37 -21.5t-31.5 -30t-13 -32.5z" />
<glyph unicode="&#xba;" horiz-adv-x="493" d="M25 762q0 -47 18 -88t48 -71t66 -46t70 -16q35 0 72 24.5t67.5 63.5t50 86t19.5 92q0 33 -12 60.5t-30.5 51t-41 43t-41.5 35.5l-16 15q-6 2 -11 7t-10 5q-31 6 -53 6q-27 0 -51 -6q-29 0 -54.5 -29.5t-46 -70.5t-32.5 -86t-12 -76zM102 813q0 14 4.5 35.5t11.5 42t18 35 t26 14.5q29 0 62.5 -14.5t62 -40t47 -60t18.5 -75.5q0 -59 -23.5 -82t-64.5 -23q-27 0 -55.5 11.5t-52 33t-39 52t-15.5 71.5z" />
<glyph unicode="&#xbb;" horiz-adv-x="569" d="M51 143q47 61 80 115.5t53 89.5q18 35 34 60.5t30 54.5q-23 49 -49.5 70.5t-48.5 58.5l-99 141v-207q18 -33 27.5 -42t27.5 -29q12 -23 13 -41q0 -6 -1 -11.5t-3 -11.5q-18 -43 -29.5 -61.5t-34.5 -48.5v-138zM305 143q45 57 75 102.5t51.5 80t35.5 64.5t27 59l6 14 q-23 49 -48.5 70.5t-50.5 58.5l-96 141v-207q18 -33 27.5 -42t27.5 -29q10 -27 11 -45q0 2 -1 -3.5t-1 -15.5q-16 -41 -28.5 -58.5t-29.5 -41.5q0 -4 -6 -10v-138z" />
<glyph unicode="&#xbc;" horiz-adv-x="962" d="M33 86q8 14 36.5 36.5t36.5 31.5l56 32q20 18 58 61.5t77 90.5t71.5 88t43.5 53q6 6 25.5 31t42 53.5t42 53t25.5 30.5l248 264q2 0 9 1t11 1q12 0 29.5 -4t33 -12t25.5 -21.5t10 -31.5q0 -23 -21.5 -48.5t-33.5 -29.5q-147 -205 -302 -383t-335 -340q-31 -10 -40 -17.5 t-9 -13.5q0 -4 2 -7t2 -5t-6 -2q-47 0 -78 22.5t-59 65.5zM104 848q0 16 13.5 32.5t32 30t37 21.5t28.5 8q25 0 32 -42t7 -101v-174q0 -35 4 -58.5t18 -23.5l62 14q0 -18 -12.5 -36.5t-28.5 -35t-34.5 -27t-33.5 -10.5q-16 0 -30.5 13.5t-16.5 36.5l-18 323q-2 14 -12 15 q-6 0 -14.5 -2.5t-16.5 -2.5q-17 1 -17 19zM465 84q0 25 9 38t23.5 22.5t30 15.5t25.5 14l184 236q12 23 31.5 44t42.5 21q18 0 43 -16.5t25 -44.5q0 -23 -15 -23h-4v-420l31 -110q-33 0 -54.5 22.5t-36 56t-20.5 71.5t-8 69l-10 196h-17l-120 -149q47 -10 78.5 -20.5 t31.5 -20.5q0 -2 -1 -3l-1 -1q-18 -25 -53 -31q-25 -6 -44.5 -8t-43.5 -6q-35 -8 -55 -8l-5 2q-2 0 -10 4t-18 10t-18.5 12t-10.5 11q-8 0 -8 12z" />
<glyph unicode="&#xbd;" horiz-adv-x="995" d="M33 86q8 14 36.5 36.5t36.5 31.5l56 32q20 18 58 61.5t77 90.5t71.5 88t43.5 53q6 6 25.5 31t42 53.5t42 53t25.5 30.5l248 264q2 0 9 1t11 1q12 0 29.5 -4t33 -12t25.5 -21.5t10 -31.5q0 -23 -21.5 -48.5t-33.5 -29.5q-147 -205 -302 -383t-335 -340q-31 -10 -40 -17.5 t-9 -13.5q0 -4 2 -7t2 -5t-6 -2q-47 0 -78 22.5t-59 65.5zM104 848q0 16 13.5 32.5t32 30t37 21.5t28.5 8q25 0 32 -42t7 -101v-174q0 -35 4 -58.5t18 -23.5l62 14q0 -18 -12.5 -36.5t-28.5 -35t-34.5 -27t-33.5 -10.5q-16 0 -30.5 13.5t-16.5 36.5l-18 323q-2 14 -12 15 q-6 0 -14.5 -2.5t-16.5 -2.5q-17 1 -17 19zM598 31q0 43 36 58t80 26.5t79.5 31t35.5 68.5q0 18 -2 46t-9 55.5t-19.5 47t-30.5 19.5q-4 0 -9 -1l-5 -1l-86 -72v-6q0 -39 -31 -39q0 55 9 82t34 45q23 12 58.5 43t76.5 43q27 0 44.5 -20.5t28.5 -49t16 -60.5t5 -56v-12 q0 -16 -1 -33t-1 -21q-4 -23 -17 -37t-26.5 -26t-25 -26.5t-11.5 -37.5q0 -2 1 -3l1 -1l89 -71h57l4 -5q4 -6 4 -8q-25 -41 -44 -63.5t-58 -22.5q-23 0 -44.5 15.5t-43 34t-42.5 34t-46 15.5q-4 0 -18.5 -5.5t-18.5 -7.5q-4 0 -16 -12l-13 -12q-6 0 -21.5 9t-17.5 15l-1 8 q-1 9 -1 13z" />
<glyph unicode="&#xbe;" horiz-adv-x="962" d="M33 86q8 14 36.5 36.5t36.5 31.5l56 32q20 18 58 61.5t77 90.5t71.5 88t43.5 53q6 6 25.5 31t42 53.5t42 53t25.5 30.5l248 264q2 0 9 1t11 1q12 0 29.5 -4t33 -12t25.5 -21.5t10 -31.5q0 -23 -21.5 -48.5t-33.5 -29.5q-147 -205 -302 -383t-335 -340q-31 -10 -40 -17.5 t-9 -13.5q0 -4 2 -7t2 -5t-6 -2q-47 0 -78 22.5t-59 65.5zM63 850q0 16 9.5 27.5t23 19.5t27.5 11t24 3q20 0 27.5 -13t28.5 -13q16 0 29.5 9t25.5 21.5t24.5 21.5t28.5 9q18 0 24.5 -13t6.5 -34q0 -29 -11.5 -50.5t-11.5 -47.5q0 -4 11.5 -12.5t24 -22.5t23.5 -37.5 t11 -60.5q0 -39 -21.5 -81t-52 -78t-65.5 -58.5t-62 -22.5q-53 0 -75 59q-8 14 -11.5 27.5t-5.5 26.5v4q0 26 68 57q12 -10 17 -23.5t11.5 -25.5t14.5 -20.5t26 -8.5q35 0 52.5 30t17.5 75q0 41 -11 52t-32 11q-10 0 -22.5 -1t-26.5 -1q0 25 7 43.5t15.5 36.5t15.5 37.5 t7 46.5q-29 0 -47 -23q-14 -23 -51 -40q-8 -8 -29 -9q-16 0 -23 11q-25 31 -31.5 42t-11.5 15zM465 84q0 25 9 38t23.5 22.5t30 15.5t25.5 14l184 236q12 23 31.5 44t42.5 21q18 0 43 -16.5t25 -44.5q0 -23 -15 -23h-4v-420l31 -110q-33 0 -54.5 22.5t-36 56t-20.5 71.5 t-8 69l-10 213h-17l-118 -166q47 -10 77.5 -20.5t30.5 -20.5l-2 -4q-18 -25 -53 -31q-25 -6 -44.5 -8t-43.5 -6q-35 -8 -55 -8l-5 2q-2 0 -10 4t-18 10t-18.5 12t-10.5 11q-8 0 -8 12z" />
<glyph unicode="&#xbf;" horiz-adv-x="806" d="M23 344q0 59 21.5 94t57 54.5t79.5 26.5t91 11q66 4 120 14.5t95 39.5q39 29 99 39q2 2 20 2q43 0 72 -47q0 -86 -36 -130.5t-89 -65t-116.5 -24.5t-117 -11t-89 -25.5t-35.5 -67.5q0 -37 15 -64.5t39.5 -47t53.5 -29t55 -9.5q78 0 143.5 51.5t135.5 120.5q2 0 8 1.5 t10 1.5q35 0 55.5 -32t41.5 -67l1 -4t1 -8q0 -63 -39 -110.5t-92.5 -79t-110.5 -47t-94 -15.5q-55 0 -124 40t-129.5 102.5t-101 138t-40.5 147.5zM496 915q0 20 12 37t29.5 28t34 17.5t24.5 6.5h4q8 -4 28.5 -17.5t41 -30t37 -35t16.5 -34.5v-2q0 -27 -10.5 -44.5 t-26.5 -28.5t-34.5 -15t-37.5 -4q-51 0 -84.5 25.5t-33.5 96.5z" />
<glyph unicode="&#xc0;" horiz-adv-x="940" d="M14 801q0 37 22.5 72.5t55.5 63.5t67 44t56 16q47 0 97 -42t100.5 -108.5t99.5 -148.5t95 -161.5t87 -147t76 -106.5q2 0 9 -1t12 -1q33 0 56 17t58 17v-32l-15 -21q-16 -22 -37.5 -51t-44 -58.5t-38.5 -48.5q-25 -33 -42 -45t-46 -12q-6 0 -15.5 3t-11.5 3l-114 127 l-17 2q-31 0 -65.5 -28.5t-73.5 -63.5t-83 -63.5t-95 -28.5q-39 0 -70 25.5t-52.5 66.5t-32.5 90t-11 96q0 80 32.5 133.5t72.5 94.5t74 73.5t34 71.5q0 53 -29.5 84t-68.5 46.5t-80 18.5t-62 3zM154 1325h151q27 -20 34 -31.5t23 -36.5q27 -14 46 -71l6 -30l2 -11 q0 -20 -13 -29q-14 -10 -24.5 -16.5t-20.5 -16.5q-41 29 -58 60t-46 63zM197 375q0 -25 6 -57.5t18 -61.5t30.5 -49.5t43.5 -20.5q12 0 38.5 9.5t53.5 25t47.5 34.5t20.5 40q0 23 -13.5 58.5t-34 69.5t-42 58.5t-37.5 24.5q-23 0 -46.5 -10.5t-42 -27.5t-30.5 -41.5 t-12 -51.5zM524 874q0 53 30 89t73 36q8 0 10 -2q14 0 31 -10q18 -8 71 -110q0 -2 1 -9.5t1 -11.5q0 -29 -12 -48.5t-30.5 -30.5t-39 -16t-36.5 -5q-47 0 -73 32.5t-26 85.5z" />
<glyph unicode="&#xc1;" horiz-adv-x="940" d="M14 801q0 37 22.5 72.5t55.5 63.5t67 44t56 16q47 0 97 -42t100.5 -108.5t99.5 -148.5t95 -161.5t87 -147t76 -106.5q2 0 9 -1t12 -1q33 0 56 17t58 17v-32l-15 -21q-16 -22 -37.5 -51t-44 -58.5t-38.5 -48.5q-25 -33 -42 -45t-46 -12q-6 0 -15.5 3t-11.5 3l-114 127 l-17 2q-31 0 -65.5 -28.5t-73.5 -63.5t-83 -63.5t-95 -28.5q-39 0 -70 25.5t-52.5 66.5t-32.5 90t-11 96q0 80 32.5 133.5t72.5 94.5t74 73.5t34 71.5q0 53 -29.5 84t-68.5 46.5t-80 18.5t-62 3zM197 375q0 -25 6 -57.5t18 -61.5t30.5 -49.5t43.5 -20.5q12 0 38.5 9.5 t53.5 25t47.5 34.5t20.5 40q0 23 -13.5 58.5t-34 69.5t-42 58.5t-37.5 24.5q-23 0 -46.5 -10.5t-42 -27.5t-30.5 -41.5t-12 -51.5zM231 1147q0 -2 2.5 8t6.5 31q23 57 47 71q16 25 23 36.5t34 35.5h154l-103 -123q-29 -33 -45 -63.5t-57 -59.5q-12 10 -37 22.5t-25 41.5z M524 874q0 53 30 89t73 36q8 0 10 -2q14 0 31 -10q18 -8 71 -110q0 -2 1 -9.5t1 -11.5q0 -29 -12 -48.5t-30.5 -30.5t-39 -16t-36.5 -5q-47 0 -73 32.5t-26 85.5z" />
<glyph unicode="&#xc2;" horiz-adv-x="940" d="M14 801q0 37 22.5 72.5t55.5 63.5t67 44t56 16q47 0 97 -42t100.5 -108.5t99.5 -148.5t95 -161.5t87 -147t76 -106.5q2 0 9 -1t12 -1q33 0 56 17t58 17v-32l-15 -21q-16 -22 -37.5 -51t-44 -58.5t-38.5 -48.5q-25 -33 -42 -45t-46 -12q-6 0 -15.5 3t-11.5 3l-114 127 l-17 2q-31 0 -65.5 -28.5t-73.5 -63.5t-83 -63.5t-95 -28.5q-39 0 -70 25.5t-52.5 66.5t-32.5 90t-11 96q0 80 32.5 133.5t72.5 94.5t74 73.5t34 71.5q0 53 -29.5 84t-68.5 46.5t-80 18.5t-62 3zM84 1085l217 244q23 -16 46.5 -33.5t53 -45t67.5 -67.5t89 -98h-121 q-25 29 -39 42.5t-47 37.5q-16 4 -18 4q-10 0 -12.5 -3t-12.5 -11q-16 -25 -23.5 -36t-33.5 -34h-166zM197 375q0 -25 6 -57.5t18 -61.5t30.5 -49.5t43.5 -20.5q12 0 38.5 9.5t53.5 25t47.5 34.5t20.5 40q0 23 -13.5 58.5t-34 69.5t-42 58.5t-37.5 24.5q-23 0 -46.5 -10.5 t-42 -27.5t-30.5 -41.5t-12 -51.5zM557 846q0 53 28.5 89t71.5 36q8 0 11 -2q14 0 30 -11q41 -23 72 -110q0 -2 1 -9.5t1 -11.5q0 -29 -12 -48t-30.5 -30.5t-39 -16.5t-39.5 -5q-45 0 -69.5 33t-24.5 86z" />
<glyph unicode="&#xc3;" horiz-adv-x="940" d="M14 801q0 37 22.5 72.5t55.5 63.5t67 44t56 16q47 0 97 -42t100.5 -108.5t99.5 -148.5t95 -161.5t87 -147t76 -106.5q2 0 9 -1t12 -1q33 0 56 17t58 17v-32l-15 -21q-16 -22 -37.5 -51t-44 -58.5t-38.5 -48.5q-25 -33 -42 -45t-46 -12q-6 0 -15.5 3t-11.5 3l-114 127 l-17 2q-31 0 -65.5 -28.5t-73.5 -63.5t-83 -63.5t-95 -28.5q-39 0 -70 25.5t-52.5 66.5t-32.5 90t-11 96q0 80 32.5 133.5t72.5 94.5t74 73.5t34 71.5q0 53 -29.5 84t-68.5 46.5t-80 18.5t-62 3zM59 1085q106 133 146 166q25 23 49.5 42.5t46.5 35.5q20 -14 33.5 -30.5 t24 -31t18.5 -24.5t18 -12q10 6 21.5 9t25.5 9q33 23 50.5 37t39.5 41h99q-51 -61 -87 -99t-62.5 -63.5t-49 -43.5l-47.5 -38h-35q-23 23 -31 36.5t-24 35.5q-18 12 -33 12q-14 0 -16 -2q-33 -25 -51.5 -38t-40.5 -42h-95zM197 375q0 -25 6 -57.5t18 -61.5t30.5 -49.5 t43.5 -20.5q12 0 38.5 9.5t53.5 25t47.5 34.5t20.5 40q0 23 -13.5 58.5t-34 69.5t-42 58.5t-37.5 24.5q-23 0 -46.5 -10.5t-42 -27.5t-30.5 -41.5t-12 -51.5zM524 913q0 53 30 89t73 36q6 0 10 -4q23 0 31 -8q23 -10 71 -111q0 -2 1 -9t1 -13q0 -29 -12 -48.5t-30.5 -30.5 t-39 -16t-36.5 -5q-47 0 -73 33.5t-26 86.5z" />
<glyph unicode="&#xc4;" horiz-adv-x="940" d="M14 801q0 37 22.5 72.5t55.5 63.5t67 44t56 16q47 0 97 -42t100.5 -108.5t99.5 -148.5t95 -161.5t87 -147t76 -106.5q2 0 9 -1t12 -1q33 0 56 17t58 17v-32l-15 -21q-16 -22 -37.5 -51t-44 -58.5t-38.5 -48.5q-25 -33 -42 -45t-46 -12q-6 0 -15.5 3t-11.5 3l-114 127 l-17 2q-31 0 -65.5 -28.5t-73.5 -63.5t-83 -63.5t-95 -28.5q-39 0 -70 25.5t-52.5 66.5t-32.5 90t-11 96q0 80 32.5 133.5t72.5 94.5t74 73.5t34 71.5q0 53 -29.5 84t-68.5 46.5t-80 18.5t-62 3zM61 1200q0 53 30 89t73 36q8 0 8 -2q16 0 33 -10q18 -8 71 -111 q0 -2 -3 -24.5t-11 -44.5q-14 -29 -45 -40.5t-59 -11.5q-45 0 -71 33t-26 86zM197 375q0 -25 6 -57.5t18 -61.5t30.5 -49.5t43.5 -20.5q12 0 38.5 9.5t53.5 25t47.5 34.5t20.5 40q0 23 -13.5 58.5t-34 69.5t-42 58.5t-37.5 24.5q-23 0 -46.5 -10.5t-42 -27.5t-30.5 -41.5 t-12 -51.5zM287 -188q0 51 29.5 86.5t72.5 35.5q8 0 10 -2q23 0 31 -8q14 -6 30.5 -34.5t41.5 -75.5q0 -2 1 -9.5t1 -13.5q0 -29 -12.5 -48t-31 -30.5t-39 -16.5t-36.5 -5q-47 0 -72.5 34t-25.5 87zM360 1212q4 31 34 67t73 36q8 0 8 -2q16 0 33 -10q20 -8 72 -109l2 -23 q0 -29 -12.5 -48t-31 -30.5t-40 -16.5t-39.5 -5q-91 0 -99 141z" />
<glyph unicode="&#xc5;" horiz-adv-x="940" d="M14 801q0 37 22.5 72.5t55.5 63.5t67 44t56 16q47 0 97 -42t100.5 -108.5t99.5 -148.5t95 -161.5t87 -147t76 -106.5q2 0 9 -1t12 -1q33 0 56 17t58 17v-32l-15 -21q-16 -22 -37.5 -51t-44 -58.5t-38.5 -48.5q-25 -33 -42 -45t-46 -12q-6 0 -15.5 3t-11.5 3l-114 127 l-17 2q-31 0 -65.5 -28.5t-73.5 -63.5t-83 -63.5t-95 -28.5q-39 0 -70 25.5t-52.5 66.5t-32.5 90t-11 96q0 80 32.5 133.5t72.5 94.5t74 73.5t34 71.5q0 53 -29.5 84t-68.5 46.5t-80 18.5t-62 3zM150 1200q0 53 29.5 89t72.5 36q8 0 10 -2q12 0 29 -10q20 -10 74 -111 q0 -2 -4.5 -24.5t-10.5 -44.5q-14 -29 -45 -40.5t-59 -11.5q-45 0 -70.5 33t-25.5 86zM197 375q0 -25 6 -57.5t18 -61.5t30.5 -49.5t43.5 -20.5q12 0 38.5 9.5t53.5 25t47.5 34.5t20.5 40q0 23 -13.5 58.5t-34 69.5t-42 58.5t-37.5 24.5q-23 0 -46.5 -10.5t-42 -27.5 t-30.5 -41.5t-12 -51.5zM211 1208q0 -51 33 -51q10 0 26.5 8.5t16.5 28.5l-2 8q-18 29 -23.5 35t-9.5 6h-4q0 2 -2 2q-16 0 -25.5 -12.5t-9.5 -24.5zM303 -199q0 53 29.5 89t73.5 36q6 0 8 -2q-20 0 30 -10q25 -10 74 -111q0 -2 1 -9t1 -11q0 -29 -12 -48.5t-30.5 -31.5 t-40 -17t-38.5 -5q-45 0 -70.5 33.5t-25.5 86.5z" />
<glyph unicode="&#xc6;" horiz-adv-x="1507" d="M14 801q20 0 61.5 -3t80.5 -18.5t68.5 -46.5t29.5 -84q0 -39 -34 -71.5t-74 -73.5t-72.5 -94.5t-32.5 -133.5q0 -47 11 -96t32.5 -90t52.5 -66.5t70 -25.5q51 0 95 28.5t83 63.5t74 63.5t65 28.5l17 -2l28 -35q41 -63 87 -97t96 -48q63 -18 129 -18q68 0 139 18 q20 0 54 27.5t67 64.5t56.5 75t23.5 60q-31 0 -55.5 -8t-47 -19.5t-46 -19.5t-50.5 -8q-31 0 -70 5t-77.5 18.5t-73.5 35t-60 54.5q-10 29 -21 53t-24 47q-2 2 -2 8h480q27 0 75.5 17.5t97 48t84 70.5t35.5 87l-245 -32l-512 28q-12 -2 -35 -24q0 2 -1 10t-1 12 q0 43 21.5 80t53 63.5t66.5 41t64 14.5q33 0 56 -10.5t43.5 -29.5t39 -47t41.5 -60l30 -3q16 0 38 8.5t41.5 23t32.5 34.5t13 45q0 49 -21.5 92t-53 75t-70.5 49.5t-76 17.5q-53 0 -116.5 -28t-125 -76t-116.5 -112.5t-92 -138.5l-29 47q-37 61 -75 115.5t-74.5 95.5 t-73.5 65.5t-74 24.5q-23 0 -56.5 -16t-66.5 -44t-55.5 -63.5t-22.5 -72.5zM197 375q0 55 36.5 91t83.5 36q16 0 39 -23.5t43.5 -56.5t35 -69t14.5 -58q0 -20 -19.5 -39.5t-45.5 -35t-51.5 -25t-37.5 -9.5q-25 0 -43.5 20.5t-30.5 49.5t-18 61.5t-6 57.5zM487 1018 q0 -53 26 -86t69 -33q18 0 39.5 5t40 16.5t31 31t12.5 47.5q0 4 -1.5 11.5t-1.5 9.5q-53 100 -73 110q-16 10 -31 11q0 2 -8 2q-43 0 -73 -36t-30 -89z" />
<glyph unicode="&#xc7;" horiz-adv-x="786" d="M23 455q0 -84 26.5 -156t69.5 -129t99 -96t116 -58l-39 -106q37 -8 59.5 -18.5t34.5 -20.5t16.5 -20.5t4.5 -16.5q0 -20 -21 -35q-29 -23 -94 -22h-31q14 0 -59 22l28 -96q16 -16 40 -23.5t55 -11.5h18q80 0 126 45t60 115q0 41 -30.5 72.5t-95.5 42.5l18 57h20 q59 0 127 39t131 98q39 37 39 64q0 18 -20 30q-25 18 -43 19q-20 0 -35 -14q-33 -33 -94 -33t-124 24.5t-114 70.5t-83.5 114.5t-32.5 154.5q0 127 33.5 176.5t127.5 49.5q59 0 114.5 -40t102.5 -108q25 -33 54 -33q31 0 73 37q45 39 45 86q0 33 -20 66q-31 47 -59.5 83 t-63.5 58q-35 27 -68.5 41t-66.5 14q-84 0 -163 -43t-142.5 -116.5t-101 -173t-37.5 -209.5zM319 1249q0 -53 25 -87t70 -34q16 0 37.5 5.5t40 16.5t31 30.5t12.5 48.5q0 6 -1.5 13t-1.5 9q-49 98 -73 111q-8 8 -29 8q-2 2 -10 2q-43 0 -72 -36t-29 -87z" />
<glyph unicode="&#xc8;" horiz-adv-x="1046" d="M23 428q0 70 23.5 139.5t64.5 134t93 118.5t108.5 95t113.5 65t106 24q35 0 74 -17.5t71 -49.5t53.5 -75t21.5 -92q0 -25 -13.5 -45t-33 -34.5t-41 -23t-37.5 -8.5l-29 3l-12 18q-41 59 -75 94t-93 35q-29 0 -65 -16.5t-66.5 -44t-52 -66.5t-21.5 -82q0 -8 6 -8l68 8 l477 -29q2 -2 22 -2q53 0 102.5 17.5t102.5 29.5q0 -47 -33.5 -87t-78.5 -70.5t-92.5 -48t-73.5 -17.5l-365 17h-12q-29 0 -54.5 -5.5t-48.5 -11.5q10 -70 47 -112.5t85.5 -67.5t101.5 -33t94 -8q27 0 50.5 8t46 19.5t47 19.5t55.5 8q0 -23 -23.5 -58.5t-56.5 -71.5 t-66.5 -63.5t-54.5 -33.5q-68 -18 -133 -18q-68 0 -135 18q-51 0 -99.5 45t-86 111.5t-60 140.5t-22.5 131zM303 1325h154q27 -20 34 -31.5t23 -36.5q27 -18 43 -71l6 -30l2 -11q0 -18 -10 -29q-14 -10 -24.5 -16.5t-22.5 -16.5q-41 29 -58.5 60t-43.5 63z" />
<glyph unicode="&#xc9;" horiz-adv-x="1046" d="M23 428q0 70 23.5 139.5t64.5 134t93 118.5t108.5 95t113.5 65t106 24q35 0 74 -17.5t71 -49.5t53.5 -75t21.5 -92q0 -25 -13.5 -45t-33 -34.5t-41 -23t-37.5 -8.5l-29 3l-12 18q-41 59 -75 94t-93 35q-29 0 -65 -16.5t-66.5 -44t-52 -66.5t-21.5 -82q0 -8 6 -8l68 8 l477 -29q2 -2 22 -2q53 0 102.5 17.5t102.5 29.5q0 -47 -33.5 -87t-78.5 -70.5t-92.5 -48t-73.5 -17.5l-365 17h-12q-29 0 -54.5 -5.5t-48.5 -11.5q10 -70 47 -112.5t85.5 -67.5t101.5 -33t94 -8q27 0 50.5 8t46 19.5t47 19.5t55.5 8q0 -23 -23.5 -58.5t-56.5 -71.5 t-66.5 -63.5t-54.5 -33.5q-68 -18 -133 -18q-68 0 -135 18q-51 0 -99.5 45t-86 111.5t-60 140.5t-22.5 131zM360 1147q0 16 13 39q14 51 45 71q16 25 24.5 36.5t32.5 31.5h154l-103 -119q-29 -33 -45 -63.5t-57 -59.5q-10 10 -22.5 16.5t-24.5 16.5q-16 12 -17 31z" />
<glyph unicode="&#xca;" horiz-adv-x="1046" d="M23 428q0 -57 22.5 -131t60 -140.5t86 -111.5t99.5 -45h268q20 0 54 27.5t67 64.5t56.5 75t23.5 60q-31 0 -55.5 -8t-47 -19.5t-46 -19.5t-50.5 -8q-41 0 -93 10.5t-100.5 35t-85 67.5t-49.5 108h480q27 0 76 17.5t98 48t85 70.5t36 87q-66 0 -124.5 -16t-123.5 -16 q-123 0 -236.5 13t-236.5 13h-37q-16 0 -35 -22q0 2 -1 10t-1 12q0 43 21.5 80t52 63.5t66.5 41t65 14.5q31 0 54.5 -10.5t44 -29.5t39.5 -47t42 -60q4 0 14.5 -1.5t14.5 -1.5q16 0 37.5 8.5t41 23t33 34.5t13.5 45q0 49 -21.5 92t-53.5 75t-71 49.5t-74 17.5 q-49 0 -106 -24t-113.5 -65t-108.5 -95t-93 -118.5t-64.5 -134t-23.5 -139.5zM211 1085l166 -2q25 25 33 36t24 36q31 20 51 10q35 -25 53.5 -38t43.5 -42h100q-49 57 -87 98.5t-65 67.5q-29 23 -54 42.5t-48 35.5q-41 -29 -57.5 -59.5t-46.5 -61.5z" />
<glyph unicode="&#xcb;" horiz-adv-x="1046" d="M23 428q0 70 23.5 139.5t64.5 134t93 118.5t108.5 95t113.5 65t106 24q35 0 74 -17.5t71 -49.5t53.5 -75t21.5 -92q0 -25 -13.5 -45t-33 -34.5t-41 -23t-37.5 -8.5l-29 3l-12 18q-41 59 -75 94t-93 35q-29 0 -65 -16.5t-66.5 -44t-52 -66.5t-21.5 -82q0 -8 6 -8l68 8 l477 -29q2 -2 22 -2q53 0 102.5 17.5t102.5 29.5q0 -47 -33.5 -87t-78.5 -70.5t-92.5 -48t-73.5 -17.5l-365 17h-12q-29 0 -54.5 -5.5t-48.5 -11.5q10 -70 47 -112.5t85.5 -67.5t101.5 -33t94 -8q27 0 50.5 8t46 19.5t47 19.5t55.5 8q0 -23 -23.5 -58.5t-56.5 -71.5 t-66.5 -63.5t-54.5 -33.5q-68 -18 -133 -18q-68 0 -135 18q-51 0 -99.5 45t-86 111.5t-60 140.5t-22.5 131zM215 1200q0 53 29.5 89t72.5 36q8 0 11 -2q12 0 28 -10q20 -10 74 -111q0 -2 1 -9t1 -11q0 -29 -12 -48.5t-30.5 -30.5t-40 -16.5t-38.5 -5.5q-45 0 -70.5 33 t-25.5 86zM524 1200q0 53 30 89t73 36q8 0 10 -2q14 0 31 -10q18 -8 71 -111q0 -2 1 -9t1 -11q0 -29 -12 -48.5t-30.5 -30.5t-39 -16.5t-36.5 -5.5q-47 0 -73 33t-26 86z" />
<glyph unicode="&#xcc;" horiz-adv-x="460" d="M25 803q4 0 18 1t18.5 3t18.5 13t18 11q6 0 13.5 -9t7.5 -15v-635q0 -68 19.5 -121t74.5 -53q27 0 62.5 16.5t67.5 45t53.5 64.5t21.5 77q-6 0 -25.5 -1t-23.5 -3q-2 0 -10.5 -4.5t-18.5 -8.5t-18.5 -8t-10.5 -4h-8q-6 0 -17.5 11.5t-11.5 39.5q-2 2 -2 8v746 q0 20 -15 23.5t-32 3.5h-12q-20 0 -52 -18.5t-62.5 -46.5t-52 -57.5t-21.5 -50.5v-28zM59 1329l103 -123q27 -33 44 -63.5t58 -59.5l47 33q12 8 13 31q0 -2 -2.5 8t-6.5 31q-20 51 -45 71q-16 25 -23 36.5t-34 35.5h-154z" />
<glyph unicode="&#xcd;" horiz-adv-x="460" d="M25 803q4 0 18 1t18.5 3t18.5 13t18 11q6 0 13.5 -9t7.5 -15v-635q0 -68 19.5 -121t74.5 -53q27 0 62.5 16.5t67.5 45t53.5 64.5t21.5 77q-6 0 -25.5 -1t-23.5 -3q-2 0 -10.5 -4.5t-18.5 -8.5t-18.5 -8t-10.5 -4h-8q-6 0 -17.5 11.5t-11.5 39.5q-2 2 -2 8v746 q0 20 -15 23.5t-32 3.5h-12q-20 0 -52 -18.5t-62.5 -46.5t-52 -57.5t-21.5 -50.5v-28zM63 1145q0 -18 11 -29l49 -33q39 29 57.5 60t46.5 63l101 119h-154q-27 -20 -34 -31.5t-23 -36.5q-27 -14 -45 -71l-6 -30z" />
<glyph unicode="&#xce;" horiz-adv-x="460" d="M-41 1085h164q27 23 34 34t23 36q10 10 10 12q0 6 5 7q6 0 8 -3q33 -25 45 -41t39 -45h143q-98 113 -154 166q-55 49 -102 78q-43 -29 -57.5 -60.5t-44.5 -60.5zM25 803q4 0 18 1t18.5 3t18.5 13t18 11q6 0 13.5 -9t7.5 -15v-635q0 -68 19.5 -121t74.5 -53 q27 0 62.5 16.5t67.5 45t53.5 64.5t21.5 77q-6 0 -25.5 -1t-23.5 -3q-2 0 -10.5 -4.5t-18.5 -8.5t-18.5 -8t-10.5 -4h-8q-6 0 -17.5 11.5t-11.5 39.5q-2 2 -2 8v746q0 20 -15 23.5t-32 3.5h-12q-20 0 -52 -18.5t-62.5 -46.5t-52 -57.5t-21.5 -50.5v-28z" />
<glyph unicode="&#xcf;" horiz-adv-x="468" d="M-66 1200q0 -53 26 -86t71 -33q16 0 37.5 5.5t40 16.5t31 30.5t12.5 48.5q0 4 -1 11t-1 9q-49 100 -74 111q-16 10 -29 10q-2 2 -10 2q-43 0 -73 -36t-30 -89zM25 803q4 0 18 1t18.5 3t18.5 13t18 11q6 0 13.5 -9t7.5 -15v-635q0 -68 19.5 -121t74.5 -53q27 0 62.5 16.5 t67.5 45t53.5 64.5t21.5 77q-6 0 -25.5 -1t-23.5 -3q-2 0 -10.5 -4.5t-18.5 -8.5t-18.5 -8t-10.5 -4h-8q-6 0 -17.5 11.5t-11.5 39.5q-2 2 -2 8v746q0 20 -15 23.5t-32 3.5h-12q-20 0 -52 -18.5t-62.5 -46.5t-52 -57.5t-21.5 -50.5v-28zM233 1200q0 -53 26 -86t71 -33 q18 0 38.5 5.5t39 16.5t31 30.5t12.5 48.5q0 4 -1 11t-1 9q-47 102 -72 111q-16 10 -33 10q0 2 -8 2q-43 0 -73 -36t-30 -89z" />
<glyph unicode="&#xd0;" horiz-adv-x="1103" d="M4 354l162 31q31 0 38 -4t8 -10t6 -10.5t36 -4.5h8q23 -68 65 -131t94 -114.5t108.5 -82t105.5 -30.5q72 0 146.5 46t135 120t98.5 164t38 180q0 119 -56.5 217t-136.5 181t-165 155t-142 137q-18 16 -28.5 26.5t-17.5 15.5t-16.5 7t-23.5 2q-27 0 -66 -10t-74.5 -29.5 t-61 -50.5t-25.5 -72q10 0 22 1.5t27 1.5q35 0 69.5 -6.5t59.5 -28.5q12 -12 28.5 -31.5t32 -38t25.5 -34t10 -17.5q-41 -29 -70.5 -55.5t-52.5 -55.5q-18 -23 -46 -68.5t-66 -117.5q-8 -14 -13.5 -29.5t-11.5 -32.5h-47q-27 0 -61.5 -21.5t-66.5 -54t-53.5 -71.5t-21.5 -74 zM399 575q4 37 21.5 82t44.5 85t57.5 68t59.5 28q37 0 91 -45t104 -110t86 -137.5t36 -125.5q0 -39 -13.5 -83t-37 -82t-53 -62.5t-60.5 -24.5q-23 0 -56.5 18.5t-71.5 48t-74.5 68.5t-65.5 82q41 20 79 52t91 89q4 6 11 24.5t7 24.5q0 20 -12 23.5t-22 3.5q-23 0 -39.5 -6 t-40.5 -21h-142z" />
<glyph unicode="&#xd1;" horiz-adv-x="1169" d="M23 860q0 29 15 49.5t36.5 32.5t45 18.5t40.5 6.5q12 0 48 -35t75 -79t73.5 -87t46.5 -61l420 -457q4 0 26.5 -9.5t27.5 -9.5q12 0 24 29t22.5 64.5t16.5 67.5t6 38q0 61 -10 127t-29.5 130.5t-46 124.5t-57.5 110q25 41 52.5 58t66.5 17q51 0 86.5 -56t58.5 -134 t34 -159t11 -128q0 -29 -1 -48t-3 -38v-4q-6 -63 -29.5 -137t-60.5 -136.5t-84 -104.5t-103 -42l-28 2q-164 154 -256 253t-139.5 157.5t-65.5 81t-37 22.5q-2 0 -2 -6l4 -53q-2 -18 -5 -59t-6 -93.5t-7 -110t-7 -109.5t-6.5 -94t-5.5 -60q-6 -55 -16 -112.5t-31.5 -105 t-56.5 -77t-90 -29.5q0 47 5 89t17 89q2 143 4 245.5t4.5 173.5t3.5 113t1 64v33q0 66 -6.5 133.5t-20.5 149.5q-4 18 -14.5 38.5t-20.5 41t-18 40t-8 35.5zM250 1085q113 141 143 166q25 23 50.5 42.5t48.5 35.5q20 -14 33.5 -30.5t23.5 -31t18 -24.5t19 -12q10 6 21 9 t24 9q35 23 52 37t40 41h96q-51 -61 -86 -100t-61.5 -63.5t-49 -42t-47.5 -38.5h-36q-23 23 -30 36.5t-24 35.5q-14 14 -34 14l-3 -1q-4 -1 -14 -3q-33 -25 -50 -38t-40 -42h-94z" />
<glyph unicode="&#xd2;" horiz-adv-x="931" d="M23 418q0 -104 37.5 -183t98 -131.5t135.5 -79t150 -26.5q70 0 149 36t143.5 97.5t107.5 143t43 176.5q0 109 -31 210t-85 179t-131 124t-169 46q-82 0 -162 -56.5t-143.5 -143.5t-103 -191.5t-39.5 -200.5zM195 526q0 37 4 78t15 81t29.5 74t47.5 56q6 0 19.5 1t29.5 1 t28.5 1t18.5 1q82 0 144.5 -35.5t102.5 -99t60.5 -149.5t20.5 -185q0 -16 -1 -40l-1 -23q-4 -10 -16.5 -28.5t-27 -37t-29.5 -34t-24 -19.5h-16q-10 0 -24.5 -1t-26.5 -1h-17q-66 0 -126 23.5t-107 69.5t-75.5 112.5t-28.5 154.5zM315 1325l103 -119q27 -33 44 -63.5 t58 -59.5q10 10 21.5 16.5t23.5 16.5q23 16 4 70q-18 57 -45 71q-16 25 -23 36.5t-34 35.5zM356 -227q0 -53 26 -87t71 -34q18 0 38.5 5t39 16.5t30.5 31t12 47.5q0 6 -1 13.5t-1 9.5q-51 98 -71 110q-14 4 -20.5 7.5t-12.5 5.5h-8q-43 0 -73 -36t-30 -89z" />
<glyph unicode="&#xd3;" horiz-adv-x="931" d="M23 418q0 -104 37.5 -183t98 -131.5t135.5 -79t150 -26.5q70 0 149 36t143.5 97.5t107.5 143t43 176.5q0 109 -31 210t-85 179t-131 124t-169 46q-82 0 -162 -56.5t-143.5 -143.5t-103 -191.5t-39.5 -200.5zM195 526q0 37 4 78t15 81t29.5 74t47.5 56q6 0 19.5 1t29.5 1 t28.5 1t18.5 1q82 0 144.5 -35.5t102.5 -99t60.5 -149.5t20.5 -185q0 -16 -1 -40l-1 -23q-4 -10 -16.5 -28.5t-27 -37t-29.5 -34t-24 -19.5h-16q-10 0 -24.5 -1t-26.5 -1h-17q-66 0 -126 23.5t-107 69.5t-75.5 112.5t-28.5 154.5zM342 1186q-20 -47 2 -70q14 -10 25.5 -16.5 t23.5 -16.5q39 29 57.5 60t47.5 63l100 119l-154 4q-27 -25 -34 -36t-23 -36q-27 -14 -45 -71zM356 -227q0 -53 26 -87t71 -34q18 0 38.5 5t39 16.5t30.5 31t12 47.5q0 6 -1 13.5t-1 9.5q-51 98 -71 110q-14 4 -20.5 7.5t-12.5 5.5h-8q-43 0 -73 -36t-30 -89z" />
<glyph unicode="&#xd4;" horiz-adv-x="931" d="M23 418q0 -104 37.5 -183t98 -131.5t135.5 -79t150 -26.5q70 0 149 36t143.5 97.5t107.5 143t43 176.5q0 109 -31 210t-85 179t-131 124t-169 46q-82 0 -162 -56.5t-143.5 -143.5t-103 -191.5t-39.5 -200.5zM195 526q0 37 4 78t15 81t29.5 74t47.5 56q6 0 19.5 1t29.5 1 t28.5 1t18.5 1q82 0 144.5 -35.5t102.5 -99t60.5 -149.5t20.5 -185q0 -16 -1 -40l-1 -23q-4 -10 -16.5 -28.5t-27 -37t-29.5 -34t-24 -19.5h-16q-10 0 -24.5 -1t-26.5 -1h-17q-66 0 -126 23.5t-107 69.5t-75.5 112.5t-28.5 154.5zM207 1085l166 -2q27 25 34 36t23 36 q14 20 51 10q35 -25 54.5 -38t44.5 -42h100q-51 57 -89 97.5t-67.5 68t-53 45t-46.5 33.5q-43 -29 -58.5 -60.5t-46.5 -60.5zM356 -227q0 -53 26 -87t71 -34q18 0 38.5 5t39 16.5t30.5 31t12 47.5q0 6 -1 13.5t-1 9.5q-51 98 -71 110q-14 4 -20.5 7.5t-12.5 5.5h-8 q-43 0 -73 -36t-30 -89z" />
<glyph unicode="&#xd5;" horiz-adv-x="931" d="M23 418q0 -104 37.5 -183t98 -131.5t135.5 -79t150 -26.5q70 0 149 36t143.5 97.5t107.5 143t43 176.5q0 109 -31 210t-85 179t-131 124t-169 46q-82 0 -162 -56.5t-143.5 -143.5t-103 -191.5t-39.5 -200.5zM164 1114h96q20 27 38.5 41t53.5 39q20 8 49 -10 q16 -23 23.5 -36t30.5 -36h37q25 20 46 37.5t48.5 42.5t62.5 63.5t88 100.5h-98q-25 -25 -42 -39t-50 -39q-14 -6 -25.5 -9t-21.5 -9q-10 2 -18.5 12t-17.5 24.5t-22.5 30.5t-33.5 31q-23 -16 -48.5 -35.5t-50.5 -42.5q-39 -33 -145 -166zM195 526q0 37 4 78t15 81t29.5 74 t47.5 56q6 0 19.5 1t29.5 1t28.5 1t18.5 1q82 0 144.5 -35.5t102.5 -99t60.5 -149.5t20.5 -185q0 -16 -1 -40l-1 -23q-4 -10 -16.5 -28.5t-27 -37t-29.5 -34t-24 -19.5h-16q-10 0 -24.5 -1t-26.5 -1h-17q-66 0 -126 23.5t-107 69.5t-75.5 112.5t-28.5 154.5zM356 -227 q0 -53 26 -87t71 -34q18 0 38.5 5t39 16.5t30.5 31t12 47.5q0 6 -1 13.5t-1 9.5q-51 98 -71 110q-14 4 -20.5 7.5t-12.5 5.5h-8q-43 0 -73 -36t-30 -89z" />
<glyph unicode="&#xd6;" horiz-adv-x="931" d="M23 418q0 -104 37.5 -183t98 -131.5t135.5 -79t150 -26.5q70 0 149 36t143.5 97.5t107.5 143t43 176.5q0 109 -31 210t-85 179t-131 124t-169 46q-82 0 -162 -56.5t-143.5 -143.5t-103 -191.5t-39.5 -200.5zM193 1200q0 -53 25.5 -86t68.5 -33q18 0 39.5 5.5t40 16.5 t31 30.5t12.5 48.5q0 4 -1 11t-1 9q-53 100 -74 111q-16 10 -31 10q0 2 -8 2q-43 0 -72.5 -36t-29.5 -89zM195 526q0 37 4 78t15 81t29.5 74t47.5 56q6 0 19.5 1t29.5 1t28.5 1t18.5 1q82 0 144.5 -35.5t102.5 -99t60.5 -149.5t20.5 -185q0 -16 -1 -40l-1 -23 q-4 -10 -16.5 -28.5t-27 -37t-29.5 -34t-24 -19.5h-16q-10 0 -24.5 -1t-26.5 -1h-17q-66 0 -126 23.5t-107 69.5t-75.5 112.5t-28.5 154.5zM356 -227q0 -53 26 -87t71 -34q18 0 38.5 5t39 16.5t30.5 31t12 47.5q0 6 -1 13.5t-1 9.5q-51 98 -71 110q-14 4 -20.5 7.5 t-12.5 5.5h-8q-43 0 -73 -36t-30 -89zM502 1200q0 -53 25.5 -86t70.5 -33q18 0 38.5 5.5t39 16.5t31 30.5t12.5 48.5q0 4 -1 11t-1 9q-53 102 -72 111q-16 10 -31 10q-2 2 -10 2q-43 0 -72.5 -36t-29.5 -89z" />
<glyph unicode="&#xd7;" horiz-adv-x="798" d="M18 672q27 0 43.5 -1t29.5 -7.5t26.5 -18.5t34.5 -35q78 -86 116.5 -131t42.5 -51l17 -20q10 -12 8 -21.5t0 -15.5l1 -5q1 -6 1 -12q0 -25 -11.5 -43t-27.5 -32.5t-32.5 -21.5t-28.5 -7q-23 0 -44.5 9t-43.5 9q-23 0 -43.5 -21.5t-20.5 -58.5q0 -41 17.5 -52t39.5 -11h29 q33 0 61.5 16.5t57.5 42.5q16 14 30.5 26.5t27.5 31t25.5 49.5t26.5 84l146 -178q18 -29 40.5 -50.5t51.5 -21.5q6 0 24.5 14.5t39 35t36 43t15.5 40.5q-47 0 -72 8t-59 53l-174 183q-8 8 -9.5 17t-0.5 17.5t3 14.5t-2 10l-3 5t-3 12q0 25 11.5 44t27.5 31.5t32.5 19.5 t29.5 7q23 0 44 -9t44 -9t44 21.5t21 57.5q0 41 -18.5 51.5t-40.5 10.5h-27q-35 0 -63.5 -15.5t-59.5 -42.5q-16 -14 -28.5 -27t-24.5 -30q-33 -43 -53 -133l-144 178q-25 29 -45 49.5t-49 20.5q-6 0 -25.5 -13.5t-40 -34t-36 -43t-15.5 -40.5z" />
<glyph unicode="&#xd8;" horiz-adv-x="989" d="M23 150q29 -45 61.5 -72t77.5 -27q23 0 47.5 1t42.5 24q6 6 11 13t11 13q59 -47 122 -74.5t126 -27.5q68 0 142.5 50t137 127t102.5 171t40 184q0 70 -25.5 124.5t-66.5 103.5q10 10 16 18t17 17q12 6 34.5 21t22.5 40q0 18 -16.5 37.5t-38 36t-45 27t-35.5 10.5 q-4 0 -10 -2t-9 -2q-10 -10 -28.5 -27.5t-40.5 -46.5q-18 10 -33.5 23.5t-30.5 27.5q-8 4 -18 13.5t-21 9.5q-33 10 -48 16l-15 6h-55h-54q-20 0 -36 -22q-51 0 -103.5 -58.5t-93.5 -141.5t-67.5 -172t-26.5 -151q0 -86 30 -161q-4 -2 -5 -5.5t-5 -5.5l-39 -24 q-6 -4 -17 -17.5t-23.5 -29t-22.5 -28.5t-12 -19zM272 541q0 31 8.5 74.5t23.5 84.5t38 70t51 29q86 0 182 -62q-14 -12 -23 -22t-13 -15q-6 -8 -25.5 -32.5t-42 -52t-42 -52t-23.5 -31.5q-10 -12 -42 -43.5t-69 -68.5q-23 49 -23 121zM422 264q74 80 146.5 163t148.5 171 q55 -84 55 -180q0 -117 -44 -163t-130 -46q-43 0 -88 13.5t-88 41.5z" />
<glyph unicode="&#xd9;" horiz-adv-x="1019" d="M23 496q0 -90 29.5 -179.5t80.5 -160t117.5 -114.5t138.5 -44q37 0 71 27.5t65.5 59.5t63.5 59.5t66 27.5q18 0 29.5 -27.5t22 -59.5t27 -59.5t44.5 -27.5q23 0 57.5 18.5t67.5 47t56.5 63.5t23.5 70q0 4 -8 12l-12 12q-6 0 -18.5 1t-29.5 1q-16 0 -29.5 -1t-19.5 -1 q-12 16 -19 44t-12.5 56.5t-6.5 55t-1 41.5q-4 31 -7 109.5t-6 168.5t-4 170t-1 111q-4 25 -19.5 26t-27.5 1t-33.5 -9.5t-42 -26t-35 -37t-14.5 -40.5v-12q2 -4 8 -23.5t10 -24.5v-512q0 -27 -19.5 -49t-47 -39.5t-56 -27.5t-47.5 -10q-61 0 -114.5 33.5t-92 90t-61 128 t-22.5 147.5q0 45 18 84t39.5 75.5t40 77.5t18.5 91q0 41 -25.5 74.5t-60.5 33.5q-18 0 -46.5 -10t-57.5 -27.5t-51.5 -39t-28.5 -46.5q-4 -14 -6 -37l-2 -24h106v-86l-114 -219l-1 -17q-1 -16 -1 -26zM315 1325l103 -119q27 -33 44 -63.5t58 -59.5q10 10 21.5 16.5 t23.5 16.5q23 16 4 70q-18 57 -45 71q-16 25 -23 36.5t-34 35.5z" />
<glyph unicode="&#xda;" horiz-adv-x="1019" d="M23 496q0 -90 29.5 -179.5t80.5 -160t117.5 -114.5t138.5 -44q37 0 71 27.5t65.5 59.5t63.5 59.5t66 27.5q18 0 29.5 -27.5t22 -59.5t27 -59.5t44.5 -27.5q23 0 57.5 18.5t67.5 47t56.5 63.5t23.5 70q0 4 -8 12l-12 12q-6 0 -18.5 1t-29.5 1q-16 0 -29.5 -1t-19.5 -1 q-12 16 -19 44t-12.5 56.5t-6.5 55t-1 41.5q-4 31 -7 109.5t-6 168.5t-4 170t-1 111q-4 25 -19.5 26t-27.5 1t-33.5 -9.5t-42 -26t-35 -37t-14.5 -40.5v-12q2 -4 8 -23.5t10 -24.5v-512q0 -27 -19.5 -49t-47 -39.5t-56 -27.5t-47.5 -10q-61 0 -114.5 33.5t-92 90t-61 128 t-22.5 147.5q0 45 18 84t39.5 75.5t40 77.5t18.5 91q0 41 -25.5 74.5t-60.5 33.5q-18 0 -46.5 -10t-57.5 -27.5t-51.5 -39t-28.5 -46.5q-4 -14 -6 -37l-2 -24h106v-86l-114 -219l-1 -17q-1 -16 -1 -26zM401 1186q-18 -51 7 -70q14 -10 25.5 -16.5t21.5 -16.5q41 29 57 60 t45 63l102 119l-151 4q-29 -23 -37 -35t-22 -37q-25 -16 -48 -71z" />
<glyph unicode="&#xdb;" horiz-adv-x="1019" d="M23 496q0 -90 29.5 -179.5t80.5 -160t117.5 -114.5t138.5 -44q37 0 71 27.5t65.5 59.5t63.5 59.5t66 27.5q18 0 29.5 -27.5t22 -59.5t27 -59.5t44.5 -27.5q23 0 57.5 18.5t67.5 47t56.5 63.5t23.5 70q0 4 -8 12l-12 12q-6 0 -18.5 1t-29.5 1q-16 0 -29.5 -1t-19.5 -1 q-12 16 -19 44t-12.5 56.5t-6.5 55t-1 41.5q-4 31 -7 109.5t-6 168.5t-4 170t-1 111q-4 25 -19.5 26t-27.5 1t-33.5 -9.5t-42 -26t-35 -37t-14.5 -40.5v-12q2 -4 8 -23.5t10 -24.5v-512q0 -27 -19.5 -49t-47 -39.5t-56 -27.5t-47.5 -10q-61 0 -114.5 33.5t-92 90t-61 128 t-22.5 147.5q0 45 18 84t39.5 75.5t40 77.5t18.5 91q0 41 -25.5 74.5t-60.5 33.5q-18 0 -46.5 -10t-57.5 -27.5t-51.5 -39t-28.5 -46.5q-4 -14 -6 -37l-2 -24h106v-86l-114 -219l-1 -17q-1 -16 -1 -26zM233 1114l166 -2q27 25 34 36t24 36q31 20 51 10q35 -25 54.5 -38 t43.5 -42h99q-49 57 -86 98t-66 68q-27 23 -51 42.5t-51 35.5q-41 -29 -57.5 -59.5t-47.5 -61.5z" />
<glyph unicode="&#xdc;" horiz-adv-x="1019" d="M23 496q0 -90 29.5 -179.5t80.5 -160t117.5 -114.5t138.5 -44q37 0 71 27.5t65.5 59.5t63.5 59.5t66 27.5q18 0 29.5 -27.5t22 -59.5t27 -59.5t44.5 -27.5q23 0 57.5 18.5t67.5 47t56.5 63.5t23.5 70q0 4 -8 12l-12 12q-6 0 -18.5 1t-29.5 1q-16 0 -29.5 -1t-19.5 -1 q-12 16 -19 44t-12.5 56.5t-6.5 55t-1 41.5q-4 31 -7 109.5t-6 168.5t-4 170t-1 111q-4 25 -19.5 26t-27.5 1t-33.5 -9.5t-42 -26t-35 -37t-14.5 -40.5v-12q2 -4 8 -23.5t10 -24.5v-512q0 -27 -19.5 -49t-47 -39.5t-56 -27.5t-47.5 -10q-61 0 -114.5 33.5t-92 90t-61 128 t-22.5 147.5q0 45 18 84t39.5 75.5t40 77.5t18.5 91q0 41 -25.5 74.5t-60.5 33.5q-18 0 -46.5 -10t-57.5 -27.5t-51.5 -39t-28.5 -46.5q-4 -14 -6 -37l-2 -24h106v-86l-114 -219l-1 -17q-1 -16 -1 -26zM221 1221q0 -53 26.5 -87t71.5 -34q16 0 38 5t40.5 16.5t30.5 30.5 t12 48q0 6 -2 13.5t-2 9.5q-45 94 -71 110q-8 8 -31 8q-2 2 -10 2q-43 0 -73 -35.5t-30 -86.5zM530 1221q0 -53 25 -87t70 -34q18 0 38.5 5t39 16.5t30.5 30.5t12 48v23q-53 100 -73 110q-8 8 -33 8q0 2 -8 2q-43 0 -72 -35.5t-29 -86.5z" />
<glyph unicode="&#xdd;" horiz-adv-x="1038" d="M23 854q0 27 14 45.5t33.5 28.5t41 14t35.5 4q45 0 87 -28.5t81 -72.5t75 -95.5t67.5 -95.5t59.5 -72.5t52 -28.5q16 0 34 26.5t31 61.5t24.5 69.5t15.5 53.5q6 10 20.5 40t29.5 62.5t28.5 62t17.5 40.5q18 23 36.5 25.5t41.5 2.5q18 0 45 -9t51.5 -26.5t42 -42 t17.5 -55.5q0 -4 -2.5 -12t-2.5 -10q-49 14 -98 -56.5t-93 -189.5t-82 -268.5t-64.5 -291.5t-39 -260t-6.5 -175q-6 -35 -38 -35q-41 0 -65 33.5t-35 80t-13 95.5t-2 80q0 61 9 120.5t21.5 119t21.5 119.5t9 124q0 25 -16 65.5t-42 88t-57.5 96.5t-62.5 88t-58.5 63.5 t-43.5 24.5q-23 0 -43.5 -15.5t-44.5 -15.5q-12 0 -35 9.5t-44.5 26.5t-37.5 38.5t-16 46.5zM160 319q0 4 1 11.5t1 9.5q45 94 71 111q16 4 23 7l6 3q2 2 12 2q43 0 73 -36t30 -89t-25.5 -87t-72.5 -34q-16 0 -37 5t-39.5 17.5t-30.5 32t-12 47.5zM418 1186q20 57 47 71 q16 25 23.5 36.5t33.5 35.5l152 -4l-101 -119q-29 -33 -46 -63.5t-58 -59.5q-10 10 -21.5 16.5t-25.5 16.5q-23 18 -4 70z" />
<glyph unicode="&#xde;" horiz-adv-x="835" d="M23 776l2 12q12 25 33.5 55.5t47 58.5t54 47.5t55.5 19.5q29 0 38 -49.5t9 -114.5v-96q0 -59 12 -86q59 61 134 105t153 44q49 0 86 -28.5t60.5 -72.5t36 -99.5t12.5 -108.5v-98q0 -53 -21 -95q-20 -78 -66 -147.5t-105.5 -124.5t-125 -90t-127.5 -41q-2 0 -10 -3 t-18.5 -6t-18.5 -7.5t-10 -6.5q-23 -47 -28 -95t-17 -87t-44 -63.5t-108 -24.5q0 37 8.5 73t18.5 69.5t19.5 69.5t13.5 73q2 31 6 98.5t7 139t6 133t3 81.5q0 25 -2 86.5t-5 129t-7 128t-6 82.5q-4 6 -11.5 11.5t-17.5 15.5h-8q-6 -2 -20.5 -14.5t-20.5 -12.5l-6 11 q-6 10 -10 16zM254 328q0 -16 2 -54t5 -81t6 -82t7 -54q14 -2 25.5 -3t22.5 -1q63 0 114 22.5t88 60.5t56.5 87t19.5 105q0 39 -9 88t-28.5 92t-48.5 71.5t-65 28.5q-37 0 -72 -26.5t-62.5 -67.5t-44 -91t-16.5 -95z" />
<glyph unicode="&#xdf;" horiz-adv-x="706" d="M41 451l4 -545q0 -25 15.5 -39t37 -23.5t42 -12.5t32.5 -3q39 0 33 125q-4 47 -6 108.5t-2 106.5v47q6 199 12 323t10 181q0 29 17.5 52.5t41 40.5t48 26.5t36.5 9.5q18 0 24.5 -16.5t6.5 -36.5q0 -29 -11 -62t-30 -61q-16 -27 -28.5 -45.5t-12.5 -53.5q0 -23 13 -55 q20 -6 47.5 -2t54.5 0t45 -23.5t18 -72.5q0 -51 -17 -96t-46 -82q-14 -16 -26.5 -24.5t-26 -15.5t-28.5 -15.5t-34 -22.5q14 -35 34 -46.5t41.5 -5t46 26t50.5 47.5q86 86 134.5 182.5t41.5 184.5q-6 72 -47 115t-88 63v25q0 45 11.5 85t11.5 91v14q0 12 -1 24.5t-1 20.5v15 q-16 16 -27.5 21t-30.5 5q-35 0 -66.5 -16.5t-68.5 -18.5q-18 0 -30.5 -3t-25.5 -10t-28.5 -18.5t-40.5 -25.5q-39 -20 -64.5 -38.5t-35.5 -39.5q-47 -27 -80 -82z" />
<glyph unicode="&#xe0;" horiz-adv-x="886" d="M23 829q0 27 21.5 52.5t49 46t56 36t40.5 21.5q2 2 7 2h8q16 0 31.5 -10t30 -25.5t25.5 -32t19 -30.5q117 -178 202 -304t147.5 -208t107.5 -125t80 -53v-13q0 -37 -15.5 -66.5t-39 -51t-51 -32.5t-52.5 -11q-8 0 -20.5 1t-14.5 1q-8 6 -25.5 22.5t-36 35.5t-33.5 36.5 t-19 28.5l-19 2q-35 0 -64.5 -24t-60 -53.5t-63.5 -53t-72 -23.5q-47 0 -84 23.5t-63.5 63.5t-41 92.5t-14.5 107.5t31 98t67 77t66.5 59.5t30.5 47.5q0 57 -84 209q-57 39 -107 39q-41 4 -40 14zM121 1325h153q27 -20 34 -31.5t24 -36.5q10 -10 22.5 -26.5t22.5 -44.5 q4 -20 6 -30.5t2 -8.5q0 -23 -14 -31q-10 -10 -20.5 -16.5t-24.5 -16.5q-41 29 -58.5 60t-46.5 63zM217 356q0 -27 11.5 -56.5t29.5 -55t41 -42t45 -16.5h8q2 0 17.5 7.5t34 18.5t33 26.5t14.5 31.5q0 20 -11.5 51t-32 61t-46 51.5t-56.5 21.5h-2q-35 0 -60.5 -29t-25.5 -70 z" />
<glyph unicode="&#xe1;" horiz-adv-x="886" d="M23 829q0 27 21.5 52.5t49 46t56 36t40.5 21.5q2 2 7 2h8q16 0 31.5 -10t30 -25.5t25.5 -32t19 -30.5q117 -178 202 -304t147.5 -208t107.5 -125t80 -53v-13q0 -37 -15.5 -66.5t-39 -51t-51 -32.5t-52.5 -11q-8 0 -20.5 1t-14.5 1q-8 6 -25.5 22.5t-36 35.5t-33.5 36.5 t-19 28.5l-19 2q-35 0 -64.5 -24t-60 -53.5t-63.5 -53t-72 -23.5q-47 0 -84 23.5t-63.5 63.5t-41 92.5t-14.5 107.5t31 98t67 77t66.5 59.5t30.5 47.5q0 57 -84 209q-57 39 -107 39q-41 4 -40 14zM195 1145l2 10t6 31q14 45 45 71q16 25 23.5 36.5t33.5 31.5h154l-101 -119 q-29 -33 -46 -63.5t-58 -59.5l-49 33q-10 10 -10 29zM217 356q0 -27 11.5 -56.5t29.5 -55t41 -42t45 -16.5h8q2 0 17.5 7.5t34 18.5t33 26.5t14.5 31.5q0 20 -11.5 51t-32 61t-46 51.5t-56.5 21.5h-2q-35 0 -60.5 -29t-25.5 -70z" />
<glyph unicode="&#xe2;" horiz-adv-x="886" d="M23 829q0 27 21.5 52.5t49 46t56 36t40.5 21.5q2 2 7 2h8q16 0 31.5 -10t30 -25.5t25.5 -32t19 -30.5q117 -178 202 -304t147.5 -208t107.5 -125t80 -53v-13q0 -37 -15.5 -66.5t-39 -51t-51 -32.5t-52.5 -11q-8 0 -20.5 1t-14.5 1q-8 6 -25.5 22.5t-36 35.5t-33.5 36.5 t-19 28.5l-19 2q-35 0 -64.5 -24t-60 -53.5t-63.5 -53t-72 -23.5q-47 0 -84 23.5t-63.5 63.5t-41 92.5t-14.5 107.5t31 98t67 77t66.5 59.5t30.5 47.5q0 57 -84 209q-57 39 -107 39q-41 4 -40 14zM84 1085l217 244q23 -16 46.5 -33.5t53 -45t67.5 -67.5t89 -98h-121 q-25 29 -39 42.5t-47 37.5q-16 4 -18 4q-10 0 -12.5 -3t-12.5 -11q-16 -25 -23.5 -36t-33.5 -34h-166zM217 356q0 -27 11.5 -56.5t29.5 -55t41 -42t45 -16.5h8q2 0 17.5 7.5t34 18.5t33 26.5t14.5 31.5q0 20 -11.5 51t-32 61t-46 51.5t-56.5 21.5h-2q-35 0 -60.5 -29 t-25.5 -70z" />
<glyph unicode="&#xe3;" horiz-adv-x="886" d="M23 829q0 27 21.5 52.5t49 46t56 36t40.5 21.5q2 2 7 2h8q16 0 31.5 -10t30 -25.5t25.5 -32t19 -30.5q117 -178 202 -304t147.5 -208t107.5 -125t80 -53v-13q0 -37 -15.5 -66.5t-39 -51t-51 -32.5t-52.5 -11q-8 0 -20.5 1t-14.5 1q-8 6 -25.5 22.5t-36 35.5t-33.5 36.5 t-19 28.5l-19 2q-35 0 -64.5 -24t-60 -53.5t-63.5 -53t-72 -23.5q-47 0 -84 23.5t-63.5 63.5t-41 92.5t-14.5 107.5t31 98t67 77t66.5 59.5t30.5 47.5q0 57 -84 209q-57 39 -107 39q-41 4 -40 14zM27 1085q45 63 78.5 105.5t56.5 64.5q29 29 56.5 43.5t49.5 30.5 q20 -14 33.5 -30.5t24 -31t18.5 -24.5t18 -12q10 6 21.5 9t26.5 9q33 23 50 37t40 41h98q-96 -135 -139 -162q-35 -39 -59.5 -52t-47.5 -30h-35q-23 23 -30.5 36.5t-24.5 35.5q-14 14 -33 14l-4 -1l-12 -3q-16 -12 -28.5 -20t-22.5 -16.5t-19.5 -18.5t-21.5 -25h-94z M217 356q0 -27 11.5 -56.5t29.5 -55t41 -42t45 -16.5h8q2 0 17.5 7.5t34 18.5t33 26.5t14.5 31.5q0 20 -11.5 51t-32 61t-46 51.5t-56.5 21.5h-2q-35 0 -60.5 -29t-25.5 -70z" />
<glyph unicode="&#xe4;" horiz-adv-x="886" d="M23 829q0 27 21.5 52.5t49 46t56 36t40.5 21.5q2 2 7 2h8q16 0 31.5 -10t30 -25.5t25.5 -32t19 -30.5q117 -178 202 -304t147.5 -208t107.5 -125t80 -53v-13q0 -37 -15.5 -66.5t-39 -51t-51 -32.5t-52.5 -11q-8 0 -20.5 1t-14.5 1q-8 6 -25.5 22.5t-36 35.5t-33.5 36.5 t-19 28.5l-19 2q-35 0 -64.5 -24t-60 -53.5t-63.5 -53t-72 -23.5q-47 0 -84 23.5t-63.5 63.5t-41 92.5t-14.5 107.5t31 98t67 77t66.5 59.5t30.5 47.5q0 57 -84 209q-57 39 -107 39q-41 4 -40 14zM61 1200q0 53 30 89t73 36q8 0 8 -2q16 0 33 -10q18 -8 71 -111 q0 -4 -2 -17.5t-6 -28.5t-13 -30.5t-22 -23.5q-18 -12 -37.5 -16.5t-37.5 -4.5q-45 0 -71 33t-26 86zM217 356q0 -27 11.5 -56.5t29.5 -55t41 -42t45 -16.5h8q2 0 17.5 7.5t34 18.5t33 26.5t14.5 31.5q0 20 -11.5 51t-32 61t-46 51.5t-56.5 21.5h-2q-35 0 -60.5 -29 t-25.5 -70zM360 1223q4 31 34 66.5t73 35.5q8 0 8 -2q16 0 33 -10q18 -8 72 -111q0 -2 1 -9t1 -11q0 -29 -12.5 -48.5t-31 -30.5t-40 -16.5t-39.5 -5.5q-91 1 -99 142z" />
<glyph unicode="&#xe5;" horiz-adv-x="886" d="M23 829q0 27 21.5 52.5t49 46t56 36t40.5 21.5q2 2 7 2h8q16 0 31.5 -10t30 -25.5t25.5 -32t19 -30.5q117 -178 202 -304t147.5 -208t107.5 -125t80 -53v-13q0 -37 -15.5 -66.5t-39 -51t-51 -32.5t-52.5 -11q-8 0 -20.5 1t-14.5 1q-8 6 -25.5 22.5t-36 35.5t-33.5 36.5 t-19 28.5l-19 2q-35 0 -64.5 -24t-60 -53.5t-63.5 -53t-72 -23.5q-47 0 -84 23.5t-63.5 63.5t-41 92.5t-14.5 107.5t31 98t67 77t66.5 59.5t30.5 47.5q0 57 -84 209q-57 39 -107 39q-41 4 -40 14zM127 1200q0 53 29.5 89t72.5 36q8 0 9 -2q14 0 30 -10q20 -10 74 -111 q0 -4 -2 -17.5t-6 -28.5t-13.5 -30.5t-21.5 -23.5q-18 -12 -38.5 -16.5t-39.5 -4.5q-43 0 -68.5 33t-25.5 86zM188 1208q0 -51 33 -51q10 0 25.5 8.5t15.5 28.5v8q-18 29 -23.5 35t-9.5 6h-4q0 2 -4 2q-14 0 -23.5 -12.5t-9.5 -24.5zM217 356q0 -27 11.5 -56.5t29.5 -55 t41 -42t45 -16.5h8q2 0 17.5 7.5t34 18.5t33 26.5t14.5 31.5q0 20 -11.5 51t-32 61t-46 51.5t-56.5 21.5h-2q-35 0 -60.5 -29t-25.5 -70z" />
<glyph unicode="&#xe6;" horiz-adv-x="1437" d="M23 829q0 -10 40 -14q49 0 107 -39q84 -152 84 -209q0 -23 -30.5 -48t-66.5 -59t-67 -77t-31 -98t14.5 -107.5t41 -92.5t63.5 -63.5t84 -23.5q39 0 72 23.5t63.5 53t60 53.5t64.5 24q4 0 9.5 -1t9.5 -1q4 -10 19 -28t33.5 -37t36 -35.5t25.5 -22.5q2 0 14.5 -1t20.5 -1h4 q33 -12 63.5 -19.5t61.5 -7.5q33 0 83 14.5t96 43t79 72.5t33 103q-25 0 -44 -8t-37.5 -18t-37 -18.5t-41.5 -8.5q-47 0 -102 19v2q-29 6 -59.5 30.5t-59.5 56t-54.5 67.5t-43.5 67q-6 14 -6 59h589q20 0 48 23.5t52.5 53.5t45 59.5t29.5 41.5q-2 4 -8.5 12.5t-12.5 10.5h-8 q-39 0 -76 -13.5t-80 -13.5h-53q-31 0 -51 27q10 16 20 38.5t19 53.5v35q-23 35 -45.5 67.5t-48 58t-54 41t-63.5 15.5q-59 0 -122 -31.5t-119 -85t-104 -124t-79 -146.5q-29 43 -59.5 89t-58.5 87t-48.5 71t-26.5 40q-8 14 -19 30.5t-25.5 32t-31 25.5t-30.5 10h-8 q-8 -4 -36 -18.5t-58.5 -36t-55 -48t-24.5 -55.5zM217 356q0 43 27.5 71t60.5 28q18 0 43 -21.5t47.5 -50.5t39 -60.5t16.5 -52.5q0 -16 -14.5 -31.5t-33 -26.5t-34 -18.5t-17.5 -7.5h-8q-23 0 -45.5 16.5t-40.5 42t-29.5 55t-11.5 56.5zM655 598q0 43 18.5 84t46.5 72.5 t60.5 50t61.5 18.5q23 0 40.5 -9t35.5 -23q16 -16 24 -26.5t12 -14.5q12 -16 21 -58q-23 -23 -49 -28q-12 -2 -41 -10.5t-72 -24.5q-84 -31 -158 -31z" />
<glyph unicode="&#xe7;" horiz-adv-x="806" d="M25 422q0 -205 80.5 -308.5t222.5 -113.5l-33 -90q37 -8 59.5 -18.5t34.5 -20.5t16.5 -20.5t4.5 -16.5q0 -20 -21 -35q-29 -23 -94 -22h-31q14 0 -59 22l28 -96q16 -16 40 -23.5t55 -11.5h18q80 0 126 45t60 115q0 41 -30.5 72.5t-95.5 42.5l16 57q29 0 57.5 2t57.5 10 q31 14 49 24.5t31.5 20t24.5 19.5t28 26l12 13q23 20 41 37.5t29 21.5q2 10 2 31v28q0 61 -19 66q-2 2 -14 2l-13 -4q-14 -4 -38 -12q-18 -10 -35 -21.5t-33 -23.5q-35 -29 -70.5 -48.5t-82.5 -19.5q-123 0 -188.5 89t-65.5 249q0 61 9 116.5t28.5 97.5t52 67.5t82.5 25.5 q31 0 60.5 -8t58 -18.5t56 -18.5t56.5 -8q20 0 40.5 2t37 11t28 27.5t11.5 49.5q0 43 -22.5 70.5t-55.5 43t-69 21.5t-60 6q-92 0 -179 -44t-155 -120.5t-108.5 -181t-40.5 -227.5z" />
<glyph unicode="&#xe8;" horiz-adv-x="989" d="M27 410q0 -92 29.5 -168t78.5 -130.5t112.5 -84t131.5 -29.5q35 0 85 14.5t96 43t79 72.5t33 103q-25 0 -45.5 -8t-39 -18t-38 -18.5t-41.5 -8.5q-47 0 -102.5 19.5t-104.5 58.5t-82 95.5t-33 127.5q33 -8 64 -10t65 -2q78 0 156 10t158 10q39 0 73.5 -2t73.5 -6 q20 0 46 20.5t48.5 49.5t42 57.5t29.5 44.5l6 6q-2 4 -8 12.5t-10 10.5h-10q-39 0 -76 -13.5t-80 -13.5h-53q-29 0 -49 27q20 29 29 50.5t9 49.5q0 6 -1 17.5t-1 13.5q-49 74 -95 126t-116 52q-78 0 -158.5 -53t-148 -136t-110.5 -186.5t-43 -203.5zM215 598q0 43 18.5 84 t46 72.5t60 50t61.5 18.5q23 0 41.5 -9t32.5 -21.5t24.5 -24.5t16.5 -18q8 -8 19 -60q-18 -16 -36 -24.5t-36.5 -13.5t-41 -10t-48.5 -13q-43 -14 -81 -22.5t-77 -8.5zM254 1329l100 -123q29 -33 45.5 -63.5t59.5 -59.5q12 10 23.5 16.5t21.5 16.5q12 8 12 31q0 -2 -2 8 t-6 31q-10 29 -21.5 45t-21.5 26q-16 25 -23.5 36.5t-33.5 35.5h-154z" />
<glyph unicode="&#xe9;" horiz-adv-x="989" d="M27 410q0 -92 29.5 -168t78.5 -130.5t112.5 -84t131.5 -29.5q35 0 85 14.5t96 43t79 72.5t33 103q-25 0 -45.5 -8t-39 -18t-38 -18.5t-41.5 -8.5q-47 0 -102.5 19.5t-104.5 58.5t-82 95.5t-33 127.5q33 -8 64 -10t65 -2q78 0 156 10t158 10q39 0 73.5 -2t73.5 -6 q20 0 46 20.5t48.5 49.5t42 57.5t29.5 44.5l6 6q-2 4 -8 12.5t-10 10.5h-10q-39 0 -76 -13.5t-80 -13.5h-53q-29 0 -49 27q20 29 29 50.5t9 49.5q0 6 -1 17.5t-1 13.5q-49 74 -95 126t-116 52q-78 0 -158.5 -53t-148 -136t-110.5 -186.5t-43 -203.5zM215 598q0 43 18.5 84 t46 72.5t60 50t61.5 18.5q23 0 41.5 -9t32.5 -21.5t24.5 -24.5t16.5 -18q8 -8 19 -60q-18 -16 -36 -24.5t-36.5 -13.5t-41 -10t-48.5 -13q-43 -14 -81 -22.5t-77 -8.5zM295 1143q0 -16 16 -27q12 -10 24.5 -16.5t22.5 -16.5q41 29 57.5 60t45.5 63l102 123h-153 q-29 -23 -35 -36t-23 -36q-31 -20 -45 -71q-12 -29 -12 -43z" />
<glyph unicode="&#xea;" horiz-adv-x="989" d="M27 410q0 -92 29.5 -168t78.5 -130.5t112.5 -84t131.5 -29.5q35 0 85 14.5t96 43t79 72.5t33 103q-25 0 -45.5 -8t-39 -18t-38 -18.5t-41.5 -8.5q-47 0 -102.5 19.5t-104.5 58.5t-82 95.5t-33 127.5q33 -8 64 -10t65 -2q78 0 156 10t158 10q39 0 73.5 -2t73.5 -6 q20 0 46 20.5t48.5 49.5t42 57.5t29.5 44.5l6 6q-2 4 -8 12.5t-10 10.5h-10q-39 0 -76 -13.5t-80 -13.5h-53q-29 0 -49 27q20 29 29 50.5t9 49.5q0 6 -1 17.5t-1 13.5q-49 74 -95 126t-116 52q-78 0 -158.5 -53t-148 -136t-110.5 -186.5t-43 -203.5zM164 1083h166 q27 25 34 36t23 36q20 12 25 12q8 0 10 -2l8 -6q29 -20 45.5 -32.5t38.5 -41.5h123q-98 113 -154 166q-29 25 -54 44.5t-48 33.5q-20 -14 -32.5 -29.5t-24 -31t-21.5 -30.5t-24 -30zM215 598q0 43 18.5 84t46 72.5t60 50t61.5 18.5q23 0 41.5 -9t32.5 -21.5t24.5 -24.5 t16.5 -18q8 -8 19 -60q-18 -16 -36 -24.5t-36.5 -13.5t-41 -10t-48.5 -13q-43 -14 -81 -22.5t-77 -8.5z" />
<glyph unicode="&#xeb;" horiz-adv-x="989" d="M27 410q0 -92 29.5 -168t78.5 -130.5t112.5 -84t131.5 -29.5q35 0 85 14.5t96 43t79 72.5t33 103q-25 0 -45.5 -8t-39 -18t-38 -18.5t-41.5 -8.5q-47 0 -102.5 19.5t-104.5 58.5t-82 95.5t-33 127.5q33 -8 64 -10t65 -2q78 0 156 10t158 10q39 0 73.5 -2t73.5 -6 q20 0 46 20.5t48.5 49.5t42 57.5t29.5 44.5l6 6q-2 4 -8 12.5t-10 10.5h-10q-39 0 -76 -13.5t-80 -13.5h-53q-29 0 -49 27q20 29 29 50.5t9 49.5q0 6 -1 17.5t-1 13.5q-49 74 -95 126t-116 52q-78 0 -158.5 -53t-148 -136t-110.5 -186.5t-43 -203.5zM162 1200 q0 -53 24.5 -86t69.5 -33q18 0 38.5 5.5t39 16.5t31 30.5t12.5 48.5v20q-53 100 -74 111q-16 10 -31 10q-2 2 -10 2q-43 0 -71.5 -36t-28.5 -89zM215 598q0 43 18.5 84t46 72.5t60 50t61.5 18.5q23 0 41.5 -9t32.5 -21.5t24.5 -24.5t16.5 -18q8 -8 19 -60q-18 -16 -36 -24.5 t-36.5 -13.5t-41 -10t-48.5 -13q-43 -14 -81 -22.5t-77 -8.5zM465 1200q0 -53 24.5 -86t69.5 -33q18 0 38.5 5.5t39 16.5t31 30.5t12.5 48.5v20q-53 100 -74 111q-16 10 -31 10q-2 2 -10 2q-43 0 -71.5 -36t-28.5 -89z" />
<glyph unicode="&#xec;" horiz-adv-x="452" d="M23 844q0 33 18 59.5t45 44t55.5 26.5t46.5 9q31 0 46.5 -14.5t37.5 -63.5v-135l2 -37l-20 -467q0 -59 14.5 -82.5t55.5 -23.5l67 14q8 0 11.5 -5t5.5 -7q-16 -55 -51 -93t-85 -69q-57 -10 -67 -10q-16 0 -31.5 3t-34.5 7q-12 0 -22.5 15.5t-18.5 35t-12 39t-4 29.5 q0 125 20.5 247.5t20.5 249.5q0 61 -9.5 106.5t-31.5 61.5q-25 16 -42 26.5t-17 33.5zM23 1325h151q27 -20 34 -31.5t23 -36.5q27 -14 45 -71l6 -30l3 -11q0 -20 -13 -29q-14 -10 -24.5 -16.5t-20.5 -16.5q-41 29 -58 60t-46 63z" />
<glyph unicode="&#xed;" horiz-adv-x="452" d="M23 844q0 33 18 59.5t45 44t55.5 26.5t46.5 9q31 0 46.5 -14.5t37.5 -63.5v-135l2 -37l-20 -467q0 -59 14.5 -82.5t55.5 -23.5l67 14q8 0 11.5 -5t5.5 -7q-16 -55 -51 -93t-85 -69q-57 -10 -67 -10q-16 0 -31.5 3t-34.5 7q-12 0 -22.5 15.5t-18.5 35t-12 39t-4 29.5 q0 125 20.5 247.5t20.5 249.5q0 61 -9.5 106.5t-31.5 61.5q-25 16 -42 26.5t-17 33.5zM33 1147q0 -2 2 8t6 31q14 49 45 71q16 25 23.5 36.5t33.5 31.5h154l-100 -119q-29 -33 -46.5 -63.5t-58.5 -59.5l-47 33q-12 8 -12 31z" />
<glyph unicode="&#xee;" horiz-adv-x="452" d="M-66 1085h164q29 20 33 41t27 29l8 2q16 0 26.5 -23.5t38.5 -48.5h177q-98 113 -154 166q-29 25 -54 44.5t-48 33.5q-43 -29 -57.5 -60.5t-45.5 -60.5zM23 844q0 -23 17 -33t42 -27q23 -16 32 -61t9 -107q0 -127 -20.5 -249.5t-20.5 -247.5q0 -10 4 -29.5t12 -39 t18.5 -35t22.5 -15.5q18 -4 33.5 -7t32.5 -3q10 0 67 10q49 31 84 68.5t52 93.5q-2 2 -5.5 7t-11.5 5l-67 -14q-41 0 -55.5 23.5t-14.5 82.5l20 467l-2 37v135q-23 49 -38 63.5t-46 14.5q-18 0 -46.5 -9t-55.5 -26.5t-45 -44t-18 -59.5z" />
<glyph unicode="&#xef;" horiz-adv-x="452" d="M-80 1200q0 53 30 89t73 36q6 0 8 -2q14 0 30 -10q25 -10 74 -111q0 -2 1 -9t1 -11q0 -29 -12 -48.5t-30.5 -30.5t-40 -16.5t-38.5 -5.5q-45 0 -70.5 33t-25.5 86zM23 844q0 33 18 59.5t45 44t55.5 26.5t46.5 9q31 0 46.5 -14.5t37.5 -63.5v-135l2 -37l-20 -467 q0 -59 14.5 -82.5t55.5 -23.5l67 14q8 0 11.5 -5t5.5 -7q-16 -55 -51 -93t-85 -69q-57 -10 -67 -10q-16 0 -31.5 3t-34.5 7q-12 0 -22.5 15.5t-18.5 35t-12 39t-4 29.5q0 125 20.5 247.5t20.5 249.5q0 61 -9.5 106.5t-31.5 61.5q-25 16 -42 26.5t-17 33.5zM219 1200 q0 53 28.5 89t71.5 36q8 0 11 -2q14 0 30 -10q25 -10 74 -111v-20q0 -29 -12 -48.5t-30.5 -30.5t-39 -16.5t-37.5 -5.5q-47 0 -71.5 33t-24.5 86z" />
<glyph unicode="&#xf0;" horiz-adv-x="749" d="M25 408q0 45 19 78.5t52 57t75 36t85 16.5q59 0 96 -4t58.5 -10.5t33 -12.5t19.5 -8h4q23 0 22 90q0 74 -30.5 120t-65.5 46q-10 0 -17 -1t-16 -3v-10q10 -23 14.5 -56.5t4.5 -56.5q0 -10 -11.5 -31.5t-25.5 -21.5q-2 0 -12.5 11t-22.5 25.5t-22.5 27t-12.5 14.5 q-4 16 -5 29.5t-5 27.5q-27 -12 -51.5 -21.5t-50.5 -9.5q-12 0 -29.5 9.5t-35 23.5t-32 30.5t-18.5 33.5l-2 12q0 31 21.5 55.5t52 43t65.5 31.5t64 21q8 14 8 68l-25 152q27 0 54.5 -19.5t49 -49.5t36 -61.5t14.5 -56.5l-6 -45q41 -18 79 -51t72 -74q51 -63 82 -140 t60 -163q14 -78 28.5 -136t14.5 -118q0 -74 -21 -121q-27 -49 -60.5 -84.5t-67.5 -59.5t-65.5 -35t-56.5 -11l-14 2q-63 0 -134 30.5t-131.5 85t-99 129t-38.5 165.5zM197 272q0 -29 5 -47t36 -32l94 -9q8 0 24.5 1t31.5 3t28 4l12 1q6 0 22.5 8t35 22.5t32.5 33.5t14 44 q0 96 -26 102h-17q-39 0 -88 10.5t-77 10.5q-12 0 -13 -2q-51 -12 -82.5 -55t-31.5 -95z" />
<glyph unicode="&#xf1;" horiz-adv-x="1169" d="M23 860q0 29 15 49.5t36.5 32.5t45 18.5t40.5 6.5q12 0 48 -35t75 -79t73.5 -87t46.5 -61l420 -457q4 0 26.5 -9.5t27.5 -9.5q12 0 24 29t22.5 64.5t16.5 67.5t6 38q0 61 -10 127t-29.5 130.5t-46 124.5t-57.5 110q25 41 52.5 58t66.5 17q51 0 86.5 -56t58.5 -134 t34 -159t11 -128q0 -29 -1 -48t-3 -38v-4q-6 -63 -29.5 -137t-60.5 -136.5t-84 -104.5t-103 -42l-28 2q-164 154 -256 253t-139.5 157.5t-65.5 81t-37 22.5q-2 0 -2 -6l4 -53q-2 -18 -5 -59t-6 -93.5t-7 -110t-7 -109.5t-6.5 -94t-5.5 -60q-6 -55 -16 -112.5t-31.5 -105 t-56.5 -77t-90 -29.5q0 47 5 89t17 89q2 143 4 245.5t4.5 173.5t3.5 113t1 64v33q0 66 -6.5 133.5t-20.5 149.5q-4 18 -14.5 38.5t-20.5 41t-18 40t-8 35.5zM227 1085q51 59 89 101.5t63 64.5q25 20 48.5 37t45.5 33l2 2q2 2 4 3t4 3q20 -12 33.5 -28.5t25 -32t19.5 -25.5 t21 -12q10 6 21 9t28 9q35 23 54.5 37t41.5 41h107q-49 -55 -88 -94l-64 -64l-4 -4q0 -2 -2 -4q-29 -23 -55.5 -42t-47.5 -36h-41q-25 23 -32.5 36.5t-24.5 35.5q-12 14 -33 14q-4 0 -7 -1t-13 -3q-35 -25 -53.5 -38t-42.5 -42h-99zM442 -180q0 53 29 89t72 36h10 q4 -2 11 -4t18 -9q25 -10 73 -110q0 -2 1 -9.5t1 -11.5q0 -29 -12 -48t-30.5 -30.5t-40 -16.5t-37.5 -5q-45 0 -70 33t-25 86z" />
<glyph unicode="&#xf2;" d="M23 440q0 -96 37.5 -176t96 -139t130 -92t139.5 -33q70 0 144.5 50t137 127t102.5 171t40 184q0 74 -29.5 134.5t-75 109.5t-95.5 89t-91 75q-8 4 -18.5 13.5t-18.5 9.5q-106 37 -211 0q-51 0 -102 -58.5t-93 -141.5t-67.5 -172.5t-25.5 -150.5zM176 541q0 31 8.5 74.5 t23.5 84.5t37.5 70t51.5 29q57 0 124.5 -29t124 -80t94.5 -120.5t38 -151.5q0 -117 -45 -163t-131 -46q-51 0 -108.5 21.5t-105.5 63.5t-80 103.5t-32 143.5zM238 1325l102 -119q27 -33 44 -63.5t58 -59.5q12 10 24.5 16.5t22.5 16.5q27 20 3 70q-16 53 -43 71 q-16 23 -22.5 36.5t-35.5 35.5z" />
<glyph unicode="&#xf3;" d="M23 440q0 -96 37.5 -176t96 -139t130 -92t139.5 -33q70 0 144.5 50t137 127t102.5 171t40 184q0 74 -29.5 134.5t-75 109.5t-95.5 89t-91 75q-8 4 -18.5 13.5t-18.5 9.5q-106 37 -211 0q-51 0 -102 -58.5t-93 -141.5t-67.5 -172.5t-25.5 -150.5zM176 541q0 31 8.5 74.5 t23.5 84.5t37.5 70t51.5 29q57 0 124.5 -29t124 -80t94.5 -120.5t38 -151.5q0 -117 -45 -163t-131 -46q-51 0 -108.5 21.5t-105.5 63.5t-80 103.5t-32 143.5zM295 1186q-18 -51 4 -70q14 -10 25.5 -16.5t21.5 -16.5q41 29 57.5 58.5t47.5 64.5l102 119l-154 4 q-27 -25 -34 -36t-23 -36q-27 -14 -47 -71z" />
<glyph unicode="&#xf4;" d="M23 440q0 -96 37.5 -176t96 -139t130 -92t139.5 -33q70 0 144.5 50t137 127t102.5 171t40 184q0 74 -29.5 134.5t-75 109.5t-95.5 89t-91 75q-8 4 -18.5 13.5t-18.5 9.5q-106 37 -211 0q-51 0 -102 -58.5t-93 -141.5t-67.5 -172.5t-25.5 -150.5zM150 1085h94l21 24.5 t19.5 19t22.5 16.5t29 20q35 10 49 -10q16 -23 24.5 -36t30.5 -36h35l47.5 38t49 43.5t62.5 63.5t87 99h-98q-23 -27 -40.5 -41t-50.5 -37q-14 -6 -25 -9t-22 -9q-10 2 -18 12t-18.5 24.5t-23.5 31t-34 30.5q-23 -16 -47.5 -35.5t-48.5 -42.5q-39 -33 -145 -166zM176 541 q0 31 8.5 74.5t23.5 84.5t37.5 70t51.5 29q57 0 124.5 -29t124 -80t94.5 -120.5t38 -151.5q0 -117 -45 -163t-131 -46q-51 0 -108.5 21.5t-105.5 63.5t-80 103.5t-32 143.5z" />
<glyph unicode="&#xf5;" d="M23 440q0 -96 37.5 -176t96 -139t130 -92t139.5 -33q70 0 144.5 50t137 127t102.5 171t40 184q0 74 -29.5 134.5t-75 109.5t-95.5 89t-91 75q-8 4 -18.5 13.5t-18.5 9.5q-106 37 -211 0q-51 0 -102 -58.5t-93 -141.5t-67.5 -172.5t-25.5 -150.5zM170 1085l164 -2 q27 25 34 36t23 36q31 20 51 10q35 -25 54.5 -38t44.5 -42h98q-49 57 -86 97.5t-65.5 68t-53 46t-49.5 32.5q-43 -29 -57.5 -60.5t-44.5 -60.5zM176 541q0 31 8.5 74.5t23.5 84.5t37.5 70t51.5 29q57 0 124.5 -29t124 -80t94.5 -120.5t38 -151.5q0 -117 -45 -163t-131 -46 q-51 0 -108.5 21.5t-105.5 63.5t-80 103.5t-32 143.5z" />
<glyph unicode="&#xf6;" d="M23 440q0 -96 37.5 -176t96 -139t130 -92t139.5 -33q70 0 144.5 50t137 127t102.5 171t40 184q0 74 -29.5 134.5t-75 109.5t-95.5 89t-91 75q-8 4 -18.5 13.5t-18.5 9.5q-106 37 -211 0q-51 0 -102 -58.5t-93 -141.5t-67.5 -172.5t-25.5 -150.5zM154 1200q0 -53 24.5 -86 t71.5 -33q16 0 36.5 5.5t39 16.5t31 30.5t12.5 48.5v20q-53 100 -74 111q-16 10 -31 10q-2 2 -10 2q-43 0 -71.5 -36t-28.5 -89zM176 541q0 31 8.5 74.5t23.5 84.5t37.5 70t51.5 29q57 0 124.5 -29t124 -80t94.5 -120.5t38 -151.5q0 -117 -45 -163t-131 -46 q-51 0 -108.5 21.5t-105.5 63.5t-80 103.5t-32 143.5zM457 1200q0 -53 24.5 -86t71.5 -33q16 0 36.5 5.5t39 16.5t31 30.5t12.5 48.5v20q-53 100 -74 111q-16 10 -31 10q-2 2 -10 2q-43 0 -71.5 -36t-28.5 -89z" />
<glyph unicode="&#xf7;" horiz-adv-x="821" d="M37 350q45 0 81 15.5t81 15.5q31 0 52 -4t40.5 -9.5t41 -9.5t52.5 -4q68 0 114 -1t86 9.5t80 39t93 90.5q4 4 12 23.5t8 23.5q0 20 -14 23t-25 3q-23 0 -39 -5t-38 -21l-433 -2q-27 0 -59.5 -16.5t-62 -43t-50 -60.5t-20.5 -67zM307 145q0 -53 25.5 -85.5t68.5 -32.5 q18 0 40 5t40.5 16t30.5 30.5t12 48.5q0 6 -1 12t-1 11q-25 47 -42 75.5t-31 32.5q-16 10 -31 10q0 2 -8 2q-43 0 -73 -36t-30 -89zM311 741q0 -53 27 -86.5t72 -33.5q16 0 37.5 5t40 16t30.5 30.5t12 48.5q0 6 -2 13t-2 9q-45 94 -71 111q-8 8 -31 8q-2 2 -10 2 q-43 0 -73 -36t-30 -87z" />
<glyph unicode="&#xf8;" horiz-adv-x="989" d="M117 440q0 -96 38 -176t96 -139t131 -92t140 -33q68 0 142.5 50t137 127t102.5 171t40 184q0 74 -30.5 134.5t-74.5 109.5t-94.5 89t-89.5 75q-8 4 -18 13.5t-21 9.5q-109 37 -208 0q-51 0 -103.5 -58.5t-93.5 -141.5t-67.5 -172.5t-26.5 -150.5zM272 541q0 31 8.5 74.5 t23.5 84.5t38 70t51 29q88 0 185 -62q-12 -12 -21.5 -21t-17.5 -16q-6 -8 -25.5 -32.5t-42 -52t-42 -52t-23.5 -31.5q-20 -23 -40 -63.5t-59 -77.5q-35 74 -35 150zM467 240q25 57 43 96t44 73.5t64.5 75.5t104.5 105q23 -41 36 -83t13 -89q0 -117 -44 -163t-130 -46 q-33 0 -65.5 7t-65.5 24z" />
<glyph unicode="&#xf9;" horiz-adv-x="970" d="M23 414q0 55 24.5 99t53 83t53 79t24.5 89q0 25 -13 33t-32.5 7t-41 -6t-40.5 -5q-27 0 -26 30q12 33 34.5 65t51 56.5t59.5 38.5t61 14q53 0 77 -25.5t24 -88.5q0 -59 -24.5 -102.5t-54.5 -84.5t-54.5 -85t-24.5 -101q0 -51 35 -106.5t84 -101.5t103.5 -76.5t95.5 -30.5 q63 0 97 43t49 104t17 130t2 122v31q0 23 -1 47t-1 47v33q-4 6 -10 24.5t-8 24.5l-1 4t-1 10q0 2 1 5l1 3l96 121l9 1q10 1 16 1h12q16 0 32.5 -5t16.5 -21v-678q0 -25 14.5 -37t33 -18.5t36 -7.5t25.5 -1q0 -31 -20.5 -63.5t-48.5 -59t-57.5 -43t-47.5 -16.5 q-27 0 -45.5 13.5t-31.5 33.5t-22.5 47t-17.5 55q-31 -16 -59.5 -40.5t-59.5 -47t-62.5 -39t-68.5 -16.5q-55 0 -119.5 38t-119 97.5t-90 132t-35.5 144.5zM291 1325l153 4q27 -25 34 -36t24 -36q27 -14 45 -71q18 -51 -4 -70q-14 -10 -24.5 -16.5t-20.5 -16.5 q-41 29 -58.5 60t-46.5 63zM342 553q0 53 28.5 89t71.5 36q8 0 11 -2q14 0 30 -10q20 -10 74 -111v-20q0 -29 -12.5 -48.5t-30.5 -31t-38.5 -16.5t-39.5 -5q-45 0 -69.5 33t-24.5 86z" />
<glyph unicode="&#xfa;" horiz-adv-x="970" d="M23 414q0 55 24.5 99t53 83t53 79t24.5 89q0 25 -13 33t-32.5 7t-41 -6t-40.5 -5q-27 0 -26 30q12 33 34.5 65t51 56.5t59.5 38.5t61 14q53 0 77 -25.5t24 -88.5q0 -59 -24.5 -102.5t-54.5 -84.5t-54.5 -85t-24.5 -101q0 -51 35 -106.5t84 -101.5t103.5 -76.5t95.5 -30.5 q63 0 97 43t49 104t17 130t2 122v31q0 23 -1 47t-1 47v33q-4 6 -10 24.5t-8 24.5l-1 4t-1 10q0 2 1 5l1 3l96 121l9 1q10 1 16 1h12q16 0 32.5 -5t16.5 -21v-678q0 -25 14.5 -37t33 -18.5t36 -7.5t25.5 -1q0 -31 -20.5 -63.5t-48.5 -59t-57.5 -43t-47.5 -16.5 q-27 0 -45.5 13.5t-31.5 33.5t-22.5 47t-17.5 55q-31 -16 -59.5 -40.5t-59.5 -47t-62.5 -39t-68.5 -16.5q-55 0 -119.5 38t-119 97.5t-90 132t-35.5 144.5zM338 549q0 53 29.5 89t72.5 36q6 0 9 -2q-4 0 2 -3t28 -7q25 -12 74 -111q0 -2 1 -9t1 -12q0 -29 -12.5 -48 t-30.5 -31.5t-39.5 -17.5t-38.5 -5q-45 0 -70.5 34t-25.5 87zM395 1186q20 57 47 71q16 25 23.5 36.5t34.5 35.5l151 -4l-102 -119q-29 -33 -45.5 -63.5t-57.5 -59.5q-10 10 -21 16.5t-26 16.5q-27 20 -4 70z" />
<glyph unicode="&#xfb;" horiz-adv-x="970" d="M23 414q0 55 24.5 99t53 83t53 79t24.5 89q0 25 -13 33t-32.5 7t-41 -6t-40.5 -5q-27 0 -26 30q12 33 34.5 65t51 56.5t59.5 38.5t61 14q53 0 77 -25.5t24 -88.5q0 -59 -24.5 -102.5t-54.5 -84.5t-54.5 -85t-24.5 -101q0 -51 35 -106.5t84 -101.5t103.5 -76.5t95.5 -30.5 q63 0 97 43t49 104t17 130t2 122v31q0 23 -1 47t-1 47v33q-4 6 -10 24.5t-8 24.5l-1 4t-1 10q0 2 1 5l1 3l96 121l9 1q10 1 16 1h12q16 0 32.5 -5t16.5 -21v-678q0 -25 14.5 -37t33 -18.5t36 -7.5t25.5 -1q0 -31 -20.5 -63.5t-48.5 -59t-57.5 -43t-47.5 -16.5 q-27 0 -45.5 13.5t-31.5 33.5t-22.5 47t-17.5 55q-31 -16 -59.5 -40.5t-59.5 -47t-62.5 -39t-68.5 -16.5q-55 0 -119.5 38t-119 97.5t-90 132t-35.5 144.5zM219 1085l113 123q31 29 45 60.5t57 60.5q47 -29 103 -78q55 -53 153 -166h-100q-25 29 -44.5 42.5t-53.5 37.5 q-35 10 -50 -10q-16 -25 -24 -36t-33 -36zM338 549q0 53 29.5 89t72.5 36q6 0 9 -2q-4 0 2 -3t28 -7q25 -12 74 -111q0 -2 1 -9t1 -12q0 -29 -12.5 -48t-30.5 -31.5t-39.5 -17.5t-38.5 -5q-45 0 -70.5 34t-25.5 87z" />
<glyph unicode="&#xfc;" horiz-adv-x="970" d="M23 414q0 55 24.5 99t53 83t53 79t24.5 89q0 25 -13 33t-32.5 7t-41 -6t-40.5 -5q-27 0 -26 30q12 33 34.5 65t51 56.5t59.5 38.5t61 14q53 0 77 -25.5t24 -88.5q0 -59 -24.5 -102.5t-54.5 -84.5t-54.5 -85t-24.5 -101q0 -51 35 -106.5t84 -101.5t103.5 -76.5t95.5 -30.5 q63 0 97 43t49 104t17 130t2 122v31q0 23 -1 47t-1 47v33q-4 6 -10 24.5t-8 24.5l-1 4t-1 10q0 2 1 5l1 3l96 121l9 1q10 1 16 1h12q16 0 32.5 -5t16.5 -21v-678q0 -25 14.5 -37t33 -18.5t36 -7.5t25.5 -1q0 -31 -20.5 -63.5t-48.5 -59t-57.5 -43t-47.5 -16.5 q-27 0 -45.5 13.5t-31.5 33.5t-22.5 47t-17.5 55q-31 -16 -59.5 -40.5t-59.5 -47t-62.5 -39t-68.5 -16.5q-55 0 -119.5 38t-119 97.5t-90 132t-35.5 144.5zM207 1200q0 53 29.5 89t72.5 36q8 0 10 -2q14 0 31 -10q18 -8 72 -111q0 -2 1 -9t1 -11q0 -29 -12.5 -48.5 t-31 -30.5t-38.5 -16.5t-39 -5.5q-45 0 -70.5 33t-25.5 86zM338 549q0 53 29.5 89t72.5 36q6 0 9 -2q-4 0 2 -3t28 -7q25 -12 74 -111q0 -2 1 -9t1 -12q0 -29 -12.5 -48t-30.5 -31.5t-39.5 -17.5t-38.5 -5q-45 0 -70.5 34t-25.5 87zM508 1200q0 53 28.5 89t71.5 36q6 0 8 -2 q14 0 31 -10q25 -10 74 -111q0 -2 1 -9t1 -11q0 -29 -12.5 -48.5t-30.5 -30.5t-40 -16.5t-38 -5.5q-45 0 -69.5 33t-24.5 86z" />
<glyph unicode="&#xfd;" horiz-adv-x="1046" d="M23 846q0 -6 1 -14.5t1 -10.5q37 10 73.5 -27.5t71.5 -108.5t67.5 -167t60.5 -203.5t50.5 -217t36.5 -207t20.5 -174t2.5 -119.5q4 -18 14 -24.5t24 -6.5q41 0 65 32.5t35 77.5t13 93.5t2 78.5q0 61 -9 121t-21.5 119t-21.5 117.5t-9 120.5q0 37 34.5 107.5t81 140 t93.5 122t71 52.5q23 0 43.5 -15.5t44.5 -15.5q12 0 35 10t45.5 26.5t39 37t16.5 43.5q0 29 -14.5 47t-35 28.5t-42 14.5t-35.5 4q-45 0 -87 -29t-81 -72t-75 -94t-67.5 -94t-59.5 -71.5t-52 -28.5q-16 0 -34 26.5t-32 61.5t-24.5 69.5t-14.5 51.5q-6 10 -20.5 37.5 t-29.5 60.5t-28.5 61.5t-17.5 40.5q-18 23 -36.5 25t-41.5 2q-18 0 -45 -8.5t-51.5 -24.5t-40.5 -40.5t-16 -55.5zM410 1186q-18 -51 4 -70q14 -10 24.5 -16.5t24.5 -16.5q41 29 57.5 60t44.5 63l103 119l-154 4q-27 -25 -34 -36t-23 -36q-25 -18 -47 -71zM651 272 q0 -53 25.5 -85.5t71.5 -32.5q18 0 38.5 5t39 16t30.5 30.5t12 48.5q0 6 -1 12t-1 10q-47 100 -71 109q-16 10 -33 10q0 2 -8 2q-41 0 -72 -36t-31 -89z" />
<glyph unicode="&#xfe;" d="M25 -412l57 144q0 2 2 57t5 130t6 153t3 125v295l4 57v235q-10 23 -24.5 32t-28.5 15l-8 3q20 59 67.5 103t96.5 44q20 0 28.5 -39t11.5 -91t5 -102.5t10 -74.5h8q35 0 69 18.5t67.5 42t68.5 42t74 18.5h57q39 -41 77 -91.5t68.5 -107.5t49 -121.5t18.5 -134.5 q0 -90 -34.5 -179t-90 -162t-124 -118t-138.5 -45q-10 0 -30.5 3t-24.5 3l-21 23q41 61 91.5 90t95.5 59.5t74.5 78.5t29.5 147q0 49 -12 115.5t-38 127t-62.5 102.5t-86.5 42q-23 0 -57.5 -12.5t-66 -34t-56 -48t-26.5 -53.5v-696q-4 -25 -25.5 -62.5t-51.5 -74.5 t-60.5 -62.5t-51.5 -25.5q-2 0 -6 3l-4 3q-4 6 -11 14t-5 10zM324 268q0 53 29.5 89t72.5 36q8 0 8 -2q-18 0 33 -10q25 -14 72 -111q0 -2 1 -9t1 -13q0 -29 -12.5 -48.5t-31 -30.5t-39 -16.5t-38.5 -5.5q-45 0 -70.5 34t-25.5 87z" />
<glyph unicode="&#xff;" horiz-adv-x="1046" d="M23 846q0 -6 1 -14.5t1 -10.5q0 2 14 2q45 0 89 -67.5t86 -175t78 -239.5t61.5 -263t41 -247t15.5 -187v-25q0 -20 -2 -22q4 -18 14 -24.5t24 -6.5q41 0 65 32.5t35 77.5t13 93.5t2 78.5q0 61 -9 121t-21.5 119t-21.5 117.5t-9 120.5q0 37 34.5 107.5t81 140t93.5 122 t71 52.5q23 0 43.5 -15.5t44.5 -15.5q12 0 35 10t45.5 26.5t39 37t16.5 43.5q0 29 -14.5 48t-35 30.5t-42 16.5t-35.5 5q-45 0 -87 -30t-81 -73t-75 -95t-67.5 -95t-59.5 -72.5t-52 -29.5q-16 0 -31.5 23.5t-29 55t-25 65.5t-17.5 54l-2 11q-6 10 -20.5 37.5t-29.5 60.5 t-28.5 61.5t-17.5 40.5q-16 18 -29.5 22.5t-29.5 4.5h-19q-18 0 -45 -8.5t-51.5 -24.5t-40.5 -40.5t-16 -55.5zM227 1200q0 -53 24.5 -86t70.5 -33q18 0 38.5 5.5t39 16.5t30.5 30.5t12 48.5v20q-53 100 -73 111q-16 10 -31 10q-2 2 -10 2q-43 0 -72 -36t-29 -89zM522 1200 q0 -53 24.5 -86t69.5 -33q18 0 39 5.5t39.5 16.5t30.5 30.5t12 48.5v20q-53 100 -73 111q-16 10 -31 10q-2 2 -10 2q-43 0 -72 -36t-29 -89zM651 272q0 -53 25.5 -85.5t71.5 -32.5q18 0 38.5 5t39 16t30.5 30.5t12 48.5q0 6 -1 12t-1 10q-47 100 -71 109q-16 10 -33 10 q0 2 -8 2q-41 0 -72 -36t-31 -89z" />
<glyph unicode="&#x152;" horiz-adv-x="1437" d="M23 455q0 -102 38.5 -186.5t100 -143.5t136.5 -92t146 -33q82 0 177 70q90 -72 198 -72q33 0 83 14.5t96 43t79 72.5t33 103q-25 0 -44 -8t-37.5 -18t-37 -18.5t-41.5 -8.5q-47 0 -103 19.5t-105.5 58.5t-83 95.5t-33.5 127.5h589q20 0 48 23.5t52.5 53.5t45 59.5 t29.5 41.5q-2 4 -8.5 12.5t-12.5 10.5h-8q-39 0 -76 -13.5t-80 -13.5h-53q-31 0 -51 27q10 16 20 38.5t19 53.5q2 14 1 23.5t-1 11.5q-23 35 -45.5 67.5t-48 58t-54 41t-63.5 15.5q-63 0 -126 -33.5t-122 -91.5q-18 23 -36.5 42.5t-41.5 35.5q-35 27 -68.5 41t-66.5 14 q-84 0 -163 -43t-142.5 -116.5t-101 -173t-37.5 -209.5zM195 567q0 127 33.5 176.5t127.5 49.5q47 0 95.5 -30t93.5 -77q-35 -66 -56.5 -135t-21.5 -141q0 -115 43 -203q-57 6 -113.5 32.5t-101.5 72.5t-72.5 110.5t-27.5 144.5zM319 1249q0 -53 25 -87t70 -34 q16 0 37.5 5.5t40 16.5t31 30.5t12.5 48.5q0 6 -1.5 13t-1.5 9q-49 98 -73 111q-8 8 -29 8q-2 2 -10 2q-43 0 -72 -36t-29 -87zM655 598q0 43 18.5 84t46.5 72.5t60.5 50t61.5 18.5q23 0 40.5 -9t35.5 -23q16 -16 24 -26.5t12 -14.5q12 -16 21 -58q-23 -23 -49 -28 q-12 -2 -41 -10.5t-72 -24.5q-84 -31 -158 -31z" />
<glyph unicode="&#x153;" horiz-adv-x="1511" d="M25 422q0 -211 93 -317.5t240 -106.5q53 0 92 2t87 12q41 20 59 29.5t35 24.5q61 -66 121 -66h268q20 0 54 27.5t67 64.5t56.5 75t23.5 60q-31 0 -55.5 -8t-47 -19.5t-46 -19.5t-50.5 -8q-31 0 -66.5 5t-72.5 16.5t-71 32t-60 50.5q-10 20 -17 23h-6q-23 37 -35 94h480 q27 0 75.5 17.5t97 48t84 70.5t35.5 87l-245 -38l-512 34q-12 -2 -35 -24q0 2 -1 10t-1 12q0 43 21.5 80t53 63.5t66.5 41t64 14.5q33 0 56 -10.5t43.5 -29.5t39 -47t41.5 -60l30 -3q16 0 38 8.5t41.5 23t32.5 34.5t13 45q0 49 -21.5 92t-53 75t-70.5 49.5t-76 17.5 q-61 0 -135 -35t-143 -99q-4 37 -26.5 61.5t-54.5 39t-66 19.5t-58 5q-92 0 -179 -44t-155 -120.5t-108.5 -181t-40.5 -227.5zM195 510q0 61 9 116.5t28.5 97.5t52 67.5t82.5 25.5q31 0 60.5 -8t58 -18.5t56 -18.5t56.5 -8h16q-59 -78 -96 -163t-37 -173q0 -47 16.5 -109.5 t45.5 -121.5q-43 -25 -94 -25q-123 0 -188.5 89t-65.5 249z" />
<glyph unicode="&#x178;" horiz-adv-x="1038" d="M23 854q0 27 14 45.5t33.5 28.5t41 14t35.5 4q45 0 87 -28.5t81 -72.5t75 -95.5t67.5 -95.5t59.5 -72.5t52 -28.5q4 -4 6 -4q10 0 25.5 28.5t33 71.5t36 94.5t37 98.5t35 81.5t28.5 45.5q18 23 34.5 25.5t39.5 2.5h4q18 0 45 -9t51.5 -26.5t42 -42t17.5 -55.5 q0 -4 -2.5 -12t-2.5 -10q0 2 -14 2q-45 0 -89 -68.5t-86 -177.5t-78 -244t-61.5 -267t-41 -250t-15.5 -189v-25q0 -20 2 -22q-6 -35 -38 -35q-41 0 -65 33.5t-35 80t-13 95.5t-2 80q0 61 9 120.5t21.5 119t21.5 119.5t9 124q0 25 -16 65.5t-42 88t-57.5 96.5t-62.5 88 t-58.5 63.5t-43.5 24.5q-23 0 -43.5 -15.5t-44.5 -15.5q-12 0 -35 9.5t-44.5 26.5t-37.5 38.5t-16 46.5zM160 319q0 4 1 11.5t1 9.5q45 94 71 111q16 4 23 7l6 3q2 2 12 2q43 0 73 -36t30 -89t-25.5 -87t-72.5 -34q-16 0 -37 5t-39.5 17.5t-30.5 32t-12 47.5zM233 1200 q0 53 30 89t73 36q8 0 8 -2q16 0 33 -10q25 -8 72 -111q0 -2 1 -9t1 -11q0 -29 -12.5 -48.5t-31 -30.5t-39 -16.5t-38.5 -5.5q-45 0 -71 33t-26 86zM537 1200q0 53 29.5 89t72.5 36q8 0 8 -2q16 0 33 -10q18 -8 72 -111q0 -2 1 -9t1 -11q0 -29 -12.5 -48.5t-31 -30.5 t-39 -16.5t-38.5 -5.5q-45 0 -70.5 33t-25.5 86z" />
<glyph unicode="&#x2c6;" horiz-adv-x="563" d="M39 1085h166q25 23 33 34t24 36q14 14 33 14l16 -4q16 -12 25.5 -20t15.5 -16.5t13.5 -18.5t19.5 -25h125q-98 113 -154 166q-55 49 -102 78q-43 -29 -57.5 -60.5t-44.5 -60.5z" />
<glyph unicode="&#x2dc;" horiz-adv-x="620" d="M25 1085h92l21 24.5t19.5 19t23 16.5t28.5 20q37 10 51 -10q14 -23 21.5 -36t29.5 -36h39q20 16 46 29.5t61 52.5q45 31 137 162h-96q-23 -27 -40.5 -41t-51.5 -37q-14 -6 -25.5 -9t-22.5 -9q-10 2 -18 12t-18.5 24.5t-23.5 31t-34 30.5q-20 -16 -49 -30.5t-57 -43.5 q-25 -23 -57.5 -65.5t-75.5 -104.5z" />
<glyph unicode="&#x2000;" horiz-adv-x="824" />
<glyph unicode="&#x2001;" horiz-adv-x="1649" />
<glyph unicode="&#x2002;" horiz-adv-x="824" />
<glyph unicode="&#x2003;" horiz-adv-x="1649" />
<glyph unicode="&#x2004;" horiz-adv-x="549" />
<glyph unicode="&#x2005;" horiz-adv-x="412" />
<glyph unicode="&#x2006;" horiz-adv-x="274" />
<glyph unicode="&#x2007;" horiz-adv-x="274" />
<glyph unicode="&#x2008;" horiz-adv-x="206" />
<glyph unicode="&#x2009;" horiz-adv-x="329" />
<glyph unicode="&#x200a;" horiz-adv-x="91" />
<glyph unicode="&#x2010;" horiz-adv-x="614" d="M25 539q0 14 12 29.5t27.5 28.5t32 22.5t24.5 13.5l2 2q14 0 35.5 -20.5t40 -48t32 -57.5t13.5 -48q0 -23 -11.5 -43.5t-27 -34.5t-33.5 -22.5t-33 -8.5q-20 0 -40.5 19.5t-37 48.5t-26.5 60.5t-10 58.5zM195 799q0 45 35.5 82t80.5 37l13 -3q14 -4 27.5 -18t21.5 -32.5 t13 -38t5 -33.5q0 -18 -9 -42t-24.5 -46.5t-35 -38t-39.5 -15.5q-25 0 -41.5 15.5t-27.5 39t-15 49.5t-4 44zM229 262q0 23 10.5 46.5t26 42t34.5 30.5t40 12q14 0 30.5 -13t32 -31.5t26.5 -40t15 -36.5v-8q0 -23 -14 -43t-34.5 -35.5t-41 -24.5t-35.5 -9q-41 0 -65.5 31.5 t-24.5 78.5zM330 549v12q2 18 17 35.5t35.5 31t41 22.5t33.5 9q39 0 71.5 -35.5t32.5 -86.5q0 -27 -13 -49.5t-32.5 -39t-41 -25.5t-40.5 -9q-16 0 -34.5 12t-34 31.5t-25.5 44t-10 47.5z" />
<glyph unicode="&#x2011;" horiz-adv-x="614" d="M25 539q0 14 12 29.5t27.5 28.5t32 22.5t24.5 13.5l2 2q14 0 35.5 -20.5t40 -48t32 -57.5t13.5 -48q0 -23 -11.5 -43.5t-27 -34.5t-33.5 -22.5t-33 -8.5q-20 0 -40.5 19.5t-37 48.5t-26.5 60.5t-10 58.5zM195 799q0 45 35.5 82t80.5 37l13 -3q14 -4 27.5 -18t21.5 -32.5 t13 -38t5 -33.5q0 -18 -9 -42t-24.5 -46.5t-35 -38t-39.5 -15.5q-25 0 -41.5 15.5t-27.5 39t-15 49.5t-4 44zM229 262q0 23 10.5 46.5t26 42t34.5 30.5t40 12q14 0 30.5 -13t32 -31.5t26.5 -40t15 -36.5v-8q0 -23 -14 -43t-34.5 -35.5t-41 -24.5t-35.5 -9q-41 0 -65.5 31.5 t-24.5 78.5zM330 549v12q2 18 17 35.5t35.5 31t41 22.5t33.5 9q39 0 71.5 -35.5t32.5 -86.5q0 -27 -13 -49.5t-32.5 -39t-41 -25.5t-40.5 -9q-16 0 -34.5 12t-34 31.5t-25.5 44t-10 47.5z" />
<glyph unicode="&#x2012;" horiz-adv-x="614" d="M25 539q0 14 12 29.5t27.5 28.5t32 22.5t24.5 13.5l2 2q14 0 35.5 -20.5t40 -48t32 -57.5t13.5 -48q0 -23 -11.5 -43.5t-27 -34.5t-33.5 -22.5t-33 -8.5q-20 0 -40.5 19.5t-37 48.5t-26.5 60.5t-10 58.5zM195 799q0 45 35.5 82t80.5 37l13 -3q14 -4 27.5 -18t21.5 -32.5 t13 -38t5 -33.5q0 -18 -9 -42t-24.5 -46.5t-35 -38t-39.5 -15.5q-25 0 -41.5 15.5t-27.5 39t-15 49.5t-4 44zM229 262q0 23 10.5 46.5t26 42t34.5 30.5t40 12q14 0 30.5 -13t32 -31.5t26.5 -40t15 -36.5v-8q0 -23 -14 -43t-34.5 -35.5t-41 -24.5t-35.5 -9q-41 0 -65.5 31.5 t-24.5 78.5zM330 549v12q2 18 17 35.5t35.5 31t41 22.5t33.5 9q39 0 71.5 -35.5t32.5 -86.5q0 -27 -13 -49.5t-32.5 -39t-41 -25.5t-40.5 -9q-16 0 -34.5 12t-34 31.5t-25.5 44t-10 47.5z" />
<glyph unicode="&#x2013;" horiz-adv-x="720" d="M35 352q0 33 21.5 72t52 72.5t65.5 55t64 21.5h333q23 14 39.5 19.5t38.5 5.5q10 0 24.5 -3t14.5 -22q0 -6 -8 -24.5t-12 -24.5q-53 -59 -94.5 -93t-83 -51.5t-89 -21.5t-114.5 -4q-31 0 -37 4t-8 10.5t-8.5 10.5t-36.5 4q-43 0 -80 -15.5t-82 -15.5z" />
<glyph unicode="&#x2014;" horiz-adv-x="821" d="M37 350q0 33 21.5 72t52 71.5t65.5 54t64 21.5l432 4q23 14 39 19.5t39 5.5q10 0 23 -3t13 -22q0 -6 -7 -24.5t-11 -24.5q-55 -59 -96 -93t-82 -51.5t-89 -21.5t-116 -4l-186 27z" />
<glyph unicode="&#x2018;" horiz-adv-x="315" d="M16 1145q0 -37 13.5 -83t36 -87t52 -68.5t64.5 -27.5q2 0 6 2l5 2q4 2 10 10t8 12v13v12q-2 6 -8 22.5t-13.5 36t-12.5 36.5t-5 24q-4 27 8.5 45t28.5 35.5t30.5 37t14.5 47.5q0 55 -22.5 78t-65.5 23q-63 0 -106.5 -42t-43.5 -128z" />
<glyph unicode="&#x2019;" horiz-adv-x="315" d="M18 1214q0 55 22.5 78t65.5 23q61 0 104.5 -42t43.5 -128q0 -37 -13.5 -83t-35 -87t-52 -68.5t-63.5 -27.5q-4 0 -6 2l-2 2q-6 2 -12.5 10t-8.5 12v13v12q2 6 8.5 23.5t12.5 36t11 35.5t5 24q2 27 -10 45t-27.5 35.5t-29 37t-13.5 47.5z" />
<glyph unicode="&#x201a;" horiz-adv-x="333" d="M18 123q0 49 29 78.5t68 29.5q33 0 62.5 -18t51 -49t33.5 -70t12 -80q0 -53 -21.5 -108.5t-55 -101.5t-75.5 -75.5t-83 -29.5q0 31 10 57.5t22.5 52t22.5 52t10 59.5t-13 56.5t-29.5 45t-30 44t-13.5 57.5z" />
<glyph unicode="&#x201c;" horiz-adv-x="606" d="M16 1145q0 -37 13.5 -83t36 -87t52 -68.5t64.5 -27.5q2 0 6 2l5 2q4 2 10 10t8 12v13v12q-2 6 -8 22.5t-13.5 36t-12.5 36.5t-5 24q-4 27 8.5 45t28.5 35.5t30.5 37t14.5 47.5q0 55 -22.5 78t-65.5 23q-63 0 -106.5 -42t-43.5 -128zM324 1145q0 -37 13 -83t35.5 -87 t52.5 -68.5t64 -27.5q2 0 7 2l4 2q4 2 9 10t9 12v13v12q-2 6 -8 22.5t-13.5 37t-12.5 36.5t-5 23q-2 25 10.5 43t27.5 36.5t28.5 38t13.5 47.5q0 55 -20.5 78t-63.5 23q-63 0 -107 -42t-44 -128z" />
<glyph unicode="&#x201d;" horiz-adv-x="606" d="M18 1214q0 55 22.5 78t65.5 23q61 0 104.5 -42t43.5 -128q0 -37 -13.5 -83t-35 -87t-52 -68.5t-63.5 -27.5q-4 0 -6 2l-2 2q-6 2 -12.5 10t-8.5 12v13v12q2 6 8.5 23.5t12.5 36t11 35.5t5 24q2 27 -10 45t-27.5 35.5t-29 37t-13.5 47.5zM328 1214q0 55 20.5 78t63.5 23 q63 0 106 -42t43 -128q0 -37 -13 -83t-34.5 -87t-52.5 -68.5t-64 -27.5q-2 0 -6 2l-4 2q-4 2 -11 10t-7 12v13v12q2 6 8 23.5t13 37t12.5 35.5t5.5 23q2 25 -10.5 43t-28 36.5t-28.5 38t-13 47.5z" />
<glyph unicode="&#x201e;" horiz-adv-x="636" d="M29 117l86 -201q0 -33 -10.5 -60.5t-22.5 -53t-22.5 -52t-10.5 -57.5q41 0 83 30.5t76 76.5t55.5 102.5t21.5 107.5q0 39 -12.5 78t-34 69.5t-51 50t-62.5 19.5q-39 0 -67.5 -29.5t-28.5 -80.5zM322 123q0 -35 13 -57.5t29.5 -44t30 -45t13.5 -56.5t-10.5 -59.5t-23 -52 t-22.5 -52t-10 -57.5q41 0 83 29.5t76 75.5t55.5 101.5t21.5 108.5q0 41 -12.5 80t-34 70t-51 49t-62.5 18q-39 0 -67.5 -29.5t-28.5 -78.5z" />
<glyph unicode="&#x2022;" horiz-adv-x="593" d="M41 541q0 31 13.5 68.5t35 71.5t49 56.5t58.5 22.5q57 0 118.5 -22.5t111.5 -66.5t82 -107.5t32 -145.5q0 -117 -44 -163t-130 -46q-51 0 -108.5 21.5t-106 63.5t-80 103.5t-31.5 143.5z" />
<glyph unicode="&#x2026;" horiz-adv-x="1142" d="M37 59q0 33 11 54.5t29.5 34t40 17.5t40.5 5q55 0 93 -30.5t38 -114.5q0 -43 -31 -65.5t-65 -29.5h-7q-23 0 -49 13.5t-48.5 34t-37 43t-14.5 38.5zM406 51q0 33 11 53.5t29.5 33t39 17.5t38.5 5q55 0 94 -31t39 -115q0 -43 -31.5 -65.5t-66.5 -28.5h-6q-23 0 -48.5 14.5 t-48 34t-36.5 42t-14 40.5zM764 59q0 33 11 54.5t29.5 34t40 17.5t40.5 5q55 0 94 -30.5t39 -114.5q0 -43 -32 -65.5t-66 -29.5h-7q-23 0 -48 13.5t-47.5 34t-38 43t-15.5 38.5z" />
<glyph unicode="&#x202f;" horiz-adv-x="329" />
<glyph unicode="&#x2039;" horiz-adv-x="307" d="M49 463q12 25 24.5 41t25 29.5t24.5 26.5t24 32l97 141l2 -207q-20 -33 -29.5 -42t-28.5 -29q-18 -33 -8 -64q18 -43 29.5 -67.5t34.5 -55.5v-125q-45 59 -78 108.5t-53 84.5q-18 31 -34 62.5t-30 64.5z" />
<glyph unicode="&#x203a;" horiz-adv-x="307" d="M51 143q47 61 80 109.5t53 83.5q37 70 64 127q-23 49 -49.5 70.5t-48.5 58.5l-99 141v-207q18 -33 27.5 -42t27.5 -29q6 -10 12.5 -16.5t6.5 -16.5q0 -6 -4 -15.5t-6 -15.5q-10 -23 -16.5 -35t-12.5 -21t-14.5 -19.5t-20.5 -24.5v-148z" />
<glyph unicode="&#x205f;" horiz-adv-x="412" />
<glyph unicode="&#x20ac;" horiz-adv-x="1003" d="M27 256l161 31q16 0 25.5 -1t19.5 -3q29 -141 115 -213t209 -72q53 0 92 2t88 12q31 14 49.5 24.5t30.5 20t22.5 18.5t22.5 21l6 6l4 4q5 3 11 9q23 20 41 37.5t26 21.5q2 16 3 31.5t1 27.5q0 63 -20 66q-2 2 -12 2l-14 -4q-13 -4 -40 -12q-16 -10 -32.5 -21.5 t-32.5 -23.5q-35 -29 -71 -48.5t-85 -19.5q-113 0 -180 80q33 0 60.5 2t54 14.5t56.5 36t69 66.5q4 6 12 24.5t8 24.5q0 20 -13.5 23t-23.5 3l-35 3q-21 -1 -41 -13h-217q-2 10 -3 18.5t-1 16.5v55l33 -2q2 -2 16 -2h17h28q31 0 57.5 4t53.5 16.5t56.5 37t66.5 65.5 q4 4 11 23.5t7 23.5q0 20 -12 23.5t-22 3.5q-14 0 -23.5 2t-19.5 2q-18 0 -39 -14h-199q18 49 53 78.5t88 29.5q33 0 62.5 -8t57.5 -18.5t55.5 -18.5t56.5 -8q20 0 41.5 2t38 11t27.5 27.5t11 49.5q0 43 -22.5 70.5t-55 43t-69.5 21.5t-63 6q-129 0 -238 -77.5t-178 -208.5 h-60q-29 0 -63.5 -15.5t-65 -41t-52 -58.5t-21.5 -68l161 33q16 0 26.5 -2t23.5 -4q-6 -29 -11.5 -57.5t-5.5 -59.5q-27 0 -60.5 -15t-63 -41t-50 -58.5t-20.5 -65.5z" />
<glyph unicode="&#x2122;" horiz-adv-x="1067" d="M25 872q16 0 29.5 6.5t25.5 14.5t26.5 14t30.5 6h17q18 0 18 -12v-334q0 -76 47 -75q14 0 32.5 10t35 26.5t29 37t12.5 40.5q-20 0 -33.5 -7t-32.5 -7h-6q0 4 -1 16.5t-3 26.5t-3 26.5t-1 16.5v8v4l8 197l10 14q16 0 45 6t56.5 21.5t47 39t19.5 58.5l-6 -1t-8 -1l-58 -25 h-247q-12 0 -27.5 -15t-30 -36.5t-23.5 -43t-9 -32.5zM440 731q0 -72 36 -125t81 -96l5 -1q5 -1 7 -1q16 0 40 17.5t24 37.5v6q-39 45 -74 93.5t-35 113.5q0 12 3 37t10.5 51.5t17.5 46t25 19.5q18 0 32.5 -30t26.5 -74t22.5 -95t22.5 -95t25.5 -74t31.5 -30q8 0 23.5 7.5 t31 19.5t28 27.5t12.5 31.5v13q-27 2 -44.5 20.5t-27.5 46t-14.5 59t-4.5 60.5q0 14 7.5 31.5t18.5 33t23.5 26t24.5 10.5h6q18 -20 40 -49t41.5 -62t31.5 -69t12 -70q0 -23 -5 -39.5t-12 -31.5t-12.5 -30.5t-5.5 -34.5q25 0 47.5 15.5t40 40t26.5 55.5t9 59q0 29 -16 79 t-41 99.5t-53.5 85t-53.5 35.5q-45 0 -77.5 -30.5t-67.5 -65.5q-12 10 -21.5 28.5t-19.5 36t-22.5 31t-28.5 13.5q-41 0 -76 -26.5t-62.5 -68.5t-43 -92.5t-15.5 -95.5z" />
<glyph unicode="&#x25fc;" horiz-adv-x="1157" d="M0 0v1157h1157v-1157h-1157z" />
</font>
</defs>
</svg>
